<mxfile host="app.diagrams.net" modified="2023-07-07T04:29:55.863Z" agent="Mozilla/5.0 (Windows NT 10.0; Win64; x64; rv:109.0) Gecko/20100101 Firefox/114.0" etag="T8LuWMCIPLFrGn9_nPFD" version="21.6.1" type="device">
  <diagram name="Page-1" id="x5ctNkQ68E1EPBwgkZc0">
    <mxGraphModel dx="1533" dy="-94" grid="1" gridSize="10" guides="1" tooltips="1" connect="1" arrows="1" fold="1" page="0" pageScale="1" pageWidth="850" pageHeight="1100" background="none" math="0" shadow="0">
      <root>
        <mxCell id="0" />
        <mxCell id="1" parent="0" />
        <mxCell id="8NOeoENCalmSI0go_x_y-7" value="" style="rounded=1;whiteSpace=wrap;html=1;rotation=90;strokeWidth=5;strokeColor=#ff8040;" vertex="1" parent="1">
          <mxGeometry x="1110" y="1522.5" width="300" height="215" as="geometry" />
        </mxCell>
        <mxCell id="8NOeoENCalmSI0go_x_y-1" value="" style="shape=image;verticalLabelPosition=bottom;labelBackgroundColor=default;verticalAlign=top;aspect=fixed;imageAspect=0;image=data:image/jpeg,/9j/4AAQSkZJRgABAQACWAJYAAD/4QAC/9sAhAADAgICAgIDAgICAwMDAwQGBAQEBAQIBgYFBgkICgoJCAkJCgwPDAoLDgsJCQ0RDQ4PEBAREAoMEhMSEBMPEBAQAQMDAwQDBAgEBAgQCwkLEBAQEBAQEBAQEBAQEBAQEBAQEBAQEBAQEBAQEBAQEBAQEBAQEBAQEBAQEBAQEBAQEBD/wgARCAamB4ADASIAAhEBAxEB/8QANwABAAMAAgMBAAAAAAAAAAAAAAcICQUGAQMEAgEBAAEFAQEAAAAAAAAAAAAAAAQCAwUGBwEI/9oADAMBAAIQAxAAAADVMAAAAAAAAAAAAAAAAAAAAAAAAAAAAAAAAAAAAAAAAAAAAAAAAAAAAABx9da/LNfjNCvUi1rZDGZa/bu5G1bF6iWeo9UV0/d8f5Vefr6/iHau2xQp9shI9KFFWlsy42rVe8Ptw/sBYuagKqWSjXOZFFQAAAAAAAAAAAAAAAAAAAAAAAAAAAAAAAAAAAAAAAAAAAAAAAAAAAAAAAAAAAAAAAAAAAAAAAAAAAAAAAAAAAAAAAAAAAAAAAAAAAAAAAABDdDr9vQOmtOPxNsdg6+SbQAAAAAAAAADleKFs7kZCeY93eTzkZe+FfsI8eY9wAAAAAAAAAAAAAAAAAAAAAAAAAAAAAAAAAAAAAAAAAAAAAAAAAAAAAAAAAAAAAAAAAAAAAAAAAAAAAAAAAAAAAAAAAAAAAAAAAAAAA9dM66bMZ81v4fIxv3+CTaAAAAAAAAAAAAAAefAsDohjd9Ue5u4z/vjjpX3i3UAAAAAAAAAAAAAAAAAAAAAAAAAAAAAAAAAAAAAAAAAAAAAAAAAAAAAAAAAAAAAAAAAAAAAAAAAAAAAAAAAAAAAAAAAAAAAAAAAA6h0DLeTalKvpkooVeAAADnjgVp7B2LmavK7CyNZuY7931XWqsy+T0hU+5vcbpmMqOlbGKvMMOI3hjy7TjC0wr9et1Qdk63ftgAAAJYid57stKGGGl2Ok2hES8AAAAAAAAAAAAAAAAAAAAAAAAAAAAAAAAAAAAAAAAAAAAAAAAAAAAAAAAAAAAAAAAAAAAAAAAAAAAAAAAAAAAAAAAAAAAAAAAqzwOcU2x9XwGQjAAAH7s5T7WOwehMrwr9YrH/ciXwo9AAAAAAA+WvNkFXmV9b94I4l2cYFt6nzrHoFVIAD9/gaAXlwau5BkaFPz+oEgAAAAAAAAAAAAAAAAAAAAAAAAAAAAAAAAAAAAAAAAAAAAAAAAAAAAAAAAAAAAAAAAAAAAAAAAAAAAAAAAAAAAAAAAAAAAABT7seXs2x+PwZCMAAPeeiWrLXsh34ZnAgSAp9AAAAAAAAAAARPLD3zI6Ct4qaT4+dDkeOm2AAALuaE4NaBwZF4xAkAAAAAAAAAAAAAAAAAAAAAAAAAAAAAAAAAAAAAAAAAAAAAAAAAAAAAAAAAAAAAAAAAAAAAAAAAAAAAAAAAAAAAAAAAAAAIb79jxJtdY40ykQAASR571/UHvchY2UEW6AAAAAAAAAAAAAABEuWm0vV5FvEFNkJ5SIHvgD9/gakWewy2BxsqTBEvAAAAAAAAAAAAAAAAAAAAAAAAAAAAAAAAAAAAAAAAAAAAAAAAAAAAAAAAAAAAAAAAAAAAAAAAAAAAAAAAAAAAAAAAAAPHmpVdNZa0GYhBV4AJF89+7Wbx27FSwsXAAAAAAAAAAAAAAAAAOIyr1r4i9RhgmqFctDD3wBLsRPPd2ftoPfjDzQt1AAAAAAAAAAAAAAAAAAAAAAAAAAAAAAAAAAAAAAAAAAAAAAAAAAAAAAAAAAAAAAAAAAAAAAAAAAAAAAAAAAAAAAAAAdZxktLTXJxQlWQB7Dn9e49sVjJYRboAAAAAAAAAAAAAAAAAAHVsgdp4hkWsd33/AAZWIAB9mxmM9i493Vt484qWAAAAAAAAAAAAAAAAAAAAAAAAAAAAAAAAAAAAAAAAAAAAAAAAAAAAAAAAAAAAAAAAAAAAAAAAAAAAAAAAAAAAAAAeB5jmRc0r1FUflMvCAAXcrZsZEvciMbKAAAAAAAAAAAAAAAAAAAAApRnhvDkXkI0JCbYAefA1tnnJjWfEzAsXAAAAAAAAAAAAAAAAAAAAAAAAAAAAAAAAAAAAAAAAAAAAAAAAAAAAAAAAAAAAAAAAAAAAAAAAAAAAAAAAAAAAAAAOmYsXnoZk4oSrIDz4sFT7duxPjzhpwU+gAAAAAAAAAAAAAAAAAAAAIfmB75g96rV1UzUEKvAPOw+O9wY93SUYqWAAAAAAAAAAAAAAAAAAAAAAAAAAAAAAAAAAAAAAAAAAAAAAAAAAAAAAAAAAAAAAAAAAAAAAAAAAAAAAAAAAAAAA9fsg6rzMboZmoAegPOuOeev8GR5ECQAAAAAAAAAAAAAAAAAAAAAABF2N28WUM6PXcT44DnODG6nJVks3hZ4UegAAAAAAAAAAAAAAAAAAAAAAAAAAAAAAAAAAAAAAAAAAAAAAAAAAAAAAAAAAAAAAAAAAAAAAAAAAAAAAAAAAAAM9dCsbJVmLBk4oA+00at/1/sGFnBRUAAAAAAAAAAAAAAAAAAAAAAArBZ/j6/MKXN8JmoAAFt9L8Ttr8bK/QiXgAAAAAAAAAAAAAAAAAAAAAAAAAAAAAAAAAAAAAAAAAAAAAAAAAAAAAAAAAAAAAAAAAAAAAAAAAAAAAAAAAAAAOrYi6qZUZGKEyyAsNXnQmzXd0YiaAAAAAAAAAAAAAAAAA6P1TKKTatxHVZk+Pe+6OH/frNe1DpXdcdKDwAABlvWHR7OHLwwvWwG0mLeoES9aYY2UAAAAAAAAAAAAAAAAAAAAAAAAAAAAAAAAAAAAAAAAAAAAAAAAAAAAAAAAAAAAAAAAAAAAAAAAAAAAAAAAAAAABRagVs6mZeGF62A14yN3Kh3+WGOkgAAAAAAAAAAAAAADjTkq0wNSudY5bhifGAAlbXHDieYt3W18H34yWAABEmOm7OGOQjfIJtgBeuilpLNeoQxE0AAAAAAAAAAAAAAAAAAAAAAAAAAAAAAAAAAAAAAAAAAAAAAAAAAAAAAAAAAAAAAAAAAAAAAAAAAAAAAAAAAAADJCCJKjXNQQrpA71tZkXrpjpIQ74AAAAAAAAAAAAA8HnxAVEJFu72d0cp8YL1AAAAFodQMHrnw7+i7x5x0kABi/tBknMswKMjFATZCch0+7RjCTwAAAAAAAAAAAAAAAAAAAAAAAAAAAAAAAAAAAAAAAAAAAAAAAAAAAAAAAAAAAAAAAAAAAAAAAAAAAAAAAAAAAAMQ+q81wucx4egLManZi6dYyWEW6AAAAAAAAAAAcJXmum0PC5tVtk2tEqbxAl2QvUAAAAAAAaA3lwc0vx8m2ghXwGWupWY0q1VIZOIA7N1nmvPdzBg54AAAAAAAAAAAAAAAAAAAAAAAAAAAAAAAAAAAAAAAAAAAAAAAAAAAAAAAAAAAAAAAAAAAAAAAAAAAAAAAAAAAAGGHEcvxGdx4AFstNMy9NMXLCNdAAAAAAOM6J75JytUY3abxsyYju0a9w3k5896i+8AwMv2/s+Mu0AAAAAHatDrVdZew6TeqBIwfWcrHkooVeAPq+Uau2Jwx1qxsqZBEvMydNsyZNqp4ykQBzPDcybmjBZAAAAAAAAAAAAAAAAAAAAAAAAAAAAAAAAAAAAAAAAAAAAAAAAAAAAAAAAAAAAAAAAAAAAAAAAAAAAAAAAAAAAADDDiOX4jO48AC2WmmZemmLlvR1zKSn3QjpeZSZZ029GaD3zSLjs7nq/PAUle+W46tXBV5MHS+pq6fb6irwAAAAAAAA5K29FVRLk3U73Bv9e7CQ74HHZPa5devUYdJSi3LQw98Adr6oNoZFxd14xUztWZOm2ZPvlTxlIgDmeG5k3NGCyAAAAAAAAAAAAAAAAAAAAAAAAAAAAAAAAAAAAAAAAAAAAAAAAAAAAAAAAAAAAAAAAAAAAAAAAAAAAAAAAAAAAAGGHEcvxGdx4AFstNMy9McXLzFqtzXC5GMFdIAAAAAAAAAAA7UdVXDtTHu5p2/vH7Il7q3aSNdDwAAB0fIfbCK5NrG12Dr+UiAALVVV5qirczMnTTMvHSanjKRAHM8NzJuaMFkAAAAAAAAAAAAAAAAAAAAAAAAAAAAAAAAAAAAAAAAAAAAAAAAAAAAAAAAAAAAAAAAAAAAAAAAAAAAAAAAAAAAAMMOI5fiM7jwALZaXY2TVCkVR+b2eubHAAAAAAAAPZ3jz3oazExWqqC/Tq1NNm5k3YK/ixcg6avej3Ap9AAAAAAAgjKDdbNabYqEMhGAfV8vsN3Mz/ohODfjMTrADmeG5k3NGCyAAAAAAAAAAAAAAAAAAAAAAAAAAAAAAAAAAAAAAAAAAAAAAAAAAAAAAAAAAAAAAAAAAAAAAAAAAAAAAAAAAAAAGGHEcvxGdx4AAAAABaC+ce7jY2q5u1ViHzu2/00+419x1jUVZpd8vioqqhJEzrdXB84W6gAAAAAAAAAAAGb2kOb0m1ToZSIAAAAA5nhuZNzRgsgAAAAAAAAAAAAAAAAAAAAAAAAAAAAAAAAAAAAAAAAAAAAAAAAAAAAAAAAAAAAAAAAAAAAAAAAAAAAAAAAAAAA4jkMqb1EDceZeEAAAAABcbSDN7SHFywjXQAAAAAAAAAAAAAAAAGb2kOb0m1ToZSIAAAAA5Hjhufy+Ueq2Im+4WawAAAAAAAAAAAAAAAAAAAAAAAAAAAAAAAAAAAAAAAAAAAAAAAAAAAAAAAAAAAAAAAAAAAAAAAAAAAAAAAAAB0n1UygXJcbmIIXKQAB9Z8jz4AALi6Q5vaQ4uWEa6AAAAAAAAAAAAAAAAAze0hzek2qdDKRAB5PD6/kAAAF/qA8lbq3UdK7rh5weAAAAAAAAAAAAAAAAAAAAAAAAAAAAAAAAAAAAAAAAAAAAAAAAAAAAAAAAAAAAAAAAAAAAAAAAAAAAAAAAAGfGgmKEuz0sZKKAAslKOgUK/Ccvff6IMjCn5vp+bNwAALi6Q5vaQ4uWEa6AAAAAAAAAAAAAAAAAze0hzek2qdDKRAH0/N9JudEMz+7CT8qq3byZ+zo9HRNsAAXg0GxO2uxsr9iJeAAAAAAAAAAAAAAAAAAAAAAAAAAAAAAAAAAAAAAAAAAAAAAAAAAAAAAAAAAAAAAAAAAAAAAAAAAAAAAAAAjTGTU3LLJRQl2QEyw1pTZrtx7TETXo9/oMKfm+n5s7jwALi6Q5vaQ4uWEa6AAAAAAAAAAAAAAAAAze0hzek2qdDKRAH0/N9Juv7vT7sFkHq9ox9hvSjNfLwgvUANnMY9Tol6zAxsoAAAAAAAAAAAAAAAAAAAAAAAAAAAAAAAAAAAAAAAAAAAAAAAAAAAAAAAAAAAAAAAAAAAAAAAAAAAAAAAACoWa2mGZ+UiBJtANf8gNbol6eBjZT0e/0GFPzfT82dx4AFxdIc3tIcXLCNdAAAAAAAAAAAAAAAAAZvaQ5vSbVOhlIgD6fm+k3X93p92CyAEL5A625JZKKEuyA0qzV0yjXbaDFywAAAAAAAAAAAAAAAAAAAAAAAAAAAAAAAAAAAAAAAAAAAAAAAAAAAAAAAAAAAAAAAAAAAAAAAAAAAAAAAAK95O7eYjZGN+BMsAL6UL7Rbq2+dV7Vh5z0e/wBHjCn5vp+bO48AC4ukOb2kOLlhGugAAAAAAAAAAAAAAAAM3tIc3pNqnQykQB9PzfSbr+70+7BZAdV9U2oZ2frGYghcpAax5Qbcw7/aRjpIAAAAAAAAAAAAAAAAAAAAAAAAAAAAAAAAAAAAAAAAAAAAAAAAAAAAAAAAAAAAAAAAAAAAAAAAAAAAAAAADH/YCnsm1m2MpEAAmfU/Enno93cj0Z7zVBv5j/N7vTloYAFxdIc3tIcXLCNdAAAAAAAAAAAAAAAAAZvaQ5vSbVOhlIgD6fm95uz7qtwpiZl38r434GdYCRaAAmfX+n1wcXLCNdAAAAAAAAAAAAAAAAAAAAAAAAAAAAAAAAAAAAAAAAAAAAAAAAAAAAAAAAAAAAAAAAAAAAAAAAAAAAAAAAAfD9wxcjzWjJ3Lw/SL1sAAAAAC4ukOb2kOLlhGugAAAAAAAAAAAAAAAAM3tIc3pNqnQykQAAAAABIfQtY7NycPtMRMAAAAAAAAAAAAAAAAAAAAAAAAAAAAAAAAAAAAAAAAAAAAAAAAAAAAAAAAAAAAAAAAAAAAAAAAAAAAAAAAAAAUouurpwa8aJ555aH6BcpAAAAAuLpDmfphi5YRroAAAAAAAAAAAAAAAADN3SLM6TaqUMpEAAAAAefdobbq9d1jEzAoqAAAAAAAAAAAAAAAAAAAAAAAAAAAAAAAAAAAAAAAAAAAAAAAAAAAAAAAAAAAAAAAAAAAAAAAAAAAAAAAAAAAAQZOarzGmL93qvTo+YSwkEy7PwirwAACyGq2NOy2NlBEvAAAAAAAAAAAAAAAAAMqNV8aJdmMBkooAAB907U+17lG9toIl6FZyIMgKfQAAAAAAAAAAAAAAAAAAAAAAAAAAAAAAAAAAAAAAAAAAAAAAAAAAAAAAAAAAAAAAAAAAAAAAAAAAAAAAAAAAAAAAHG8kIi6hYxcpyNgu+NDspEC7QB9W5GFutEO/Pwx0kAAAAAAAAAAAAAAAADi8N9XcmMjGCZYATrBV8rVc0dvl1i5fHciW6gAAAAAAAAAAAAAAAAAAAAAAAAAAAAAAAAAAAAAAAAAAAAAAAAAAAAAAAAAAAAAAAAAAAAAAAAAAAAAAAAAAAAAAAAAAAK6ZSbmYgZGN8QmWAF16Udyt1baPm+nDTgAAAAAAAAAAAAAAAB8xnxSnuPTszBC5SA1cyw3Ah3+ZGOkgAAAAAAAAAAAAAAAAAAAAAAAAAAAAAAAAAAAAAAAAAAAAAAAAAAAAAAAAAAAAAAAAAAAAAAAAAAAAAAAAAAAAAAAAAAAAMoNX6kyLeZ4ysMADUG0uOGxWLl+0RroAAAAAAAAAAAAAACrNoMdZNqKRlIgAFiNXqlW1xUwI9wAAAAAAAAAAAAAAAAAAAAAAAAAAAAAAAAAAAAAAAAAAAAAAAAAAAAAAAAAAAAAAAAAAAAAAAAAAAAAAAAAAAAAAAAAAAABxPLDDnr94qO5mCFykBpLm12C1XuM6R3fETQ8AAAAAAAAAAAAADo/qumbnYOv5eEF2gB2Dr947dV7uVMNOAAAAAAAAAAAAAAAAAAAAAAAAAAAAAAAAAAAAAAAAAAAAAAAAAAAAAAAAAAAAAAAAAAAAAAAAAAAAAAAAAAAAAAAAAAAAAAA6pi5udRSXZoIMlFAAnLWjCW2cS9pm/H7xsoAAAAAAAAAAAAes+fJaQam5KKEuyABzO0dP71Y2UES8AAAAAAAAAAAAAAAAAAAAAAAAAAAAAAAAAAAAAAAAAAAAAAAAAAAAAAAAAAAAAAAAAAAAAAAAAAAAAAAAAAAAAAAAAAAAAAA+D7xjNGWvuRmWh/KL9sAC4Oj+D9lYd/VFwnN46SAAAAAAAAAAODOWzf6pWrIxgmWAAEnR3rpYuSz95iZgAAAAAAAAAAAAAAAAAAAAAAAAAAAAAAAAAAAAAAAAAAAAAAAAAAAAAAAAAAAAAAAAAAAAAAAAAAAAAAAAAAAAAAAAAAAAAAB4Hl4Hmk12PzXTg4tzUbMQwqpAAkXTHIn2Wbm8TNO+eNk95FqsAAAAAAA6NQu7RbzM+PvXkowXrYAAt3RVKd2PHnETAoqAAAAAAAAAAAAAAAAAAAAAAAAAAAAAAAAAAAAAAAAAAAAAAAAAAAAAAAAAAAAAAAAAAAAAAAAAAAAAAAAAAAAAAAAAAAAAAA8AAA+fLvUz47tGEy0lW8tDCrwAB9nxi2NvMkke5vB7sRJ9jXtPlJ5Ls12NRJzFuqQ0ecOS2rlGddN2fTmNAd+jUKoVT0mz9nxki2AAALS0+/JqH+frxMwLVYAAAAAAAAAAAAAAAAAAAAAAAAAAAAAAAAAAAAAAAAAAAAAAAAAAAAAAAAAAAAAAAAAAAAAAAAAAAAAAAAAAAAAAAAAAAAAAAAAAAHqzj0hrPft5YjLQwAAAAAAAAAAAAAALjaN1ustiZgWLgAAAAAAAAAAAAAAAAAAAAAAAAAAAAAAAAAAAAAAAAAAAAAAAAAAAAAAAAAAAAAAAAAAAAAAAAAAAAAAAAAAAAAAAAAAAAAAAAAAAACs9mKz3aMsRmIQAAAAAAAAAAAAAAGqFlq02Ww84LVQAAAAAAAAAAAAAAAAAAAAAAAAAAAAAAAAAAAAAAAAAAAAAAAAAAAAAAAAAAAAAAAAAAAAAAAAAAAAAAAAAAAAAAAAAAAAAAAAB4Hl4Hl4Hl4Hms9l60XaMsRmIQAExRZqfM8KRh002rxet1Qd86Let/kegAAD9d78dCWwsRZuZrSnrJC1ivKITrAAGqFlq02Ww84LVQAAAAAAAAAAAAAAAAAAAAAAAAAAAAAAAAAAAAAAAAAAAAAAAAAAAAAAAAAAAAAAAAAAAAAAAAAAAAAAAAAAAAAAAAAAAAAAAAAAAACs9mKz3aMsRmIQAGr9h68WHw04LdXjrfZXqEOkWmV00z467qqmkXI3MPas93m9T71rsnlRUHhXaxNdrlOUQzMEADVCy1abLYecFqoAAAAAAAAAAAAAAAAAAAAAAAAAAAAAAAAAAAAAAAAAAAAAAAAAAAAAAAAAAAAAAAAAAAAAAAAAAAAAAAAAAAAAAAAA/I/T8j9PyP0/I/T8j9PyP0/I/T8j9PyP0/P5PYiGtV2i+fQ8sokk2tFKpQslWgu0AAav2HqTbbDzQtVgAAAAAAK7WJqRdozQGYhAATTa3Olar2q75g3LcW7sSoZZaNdl1+f1arAAAAAAAAAAAAAAAAAAAAAAAAAAAAAAAAAAAAAAAAAAAAAAAAAAAAAAAAAAAAAAAAAAAAAAAAAAAAAAAAAAAAAAAAAAAAAHCHNqt1pv29L4Jy769JtXPrX0RJtBcpAAAAA7Dr/i/Kce5sk4fmcVM8PI8PI8PI8PI8PI8PI8PPDHUcge4xblYYSLYAAAAHfLKUvW6tZp1wk7DGu7isxbLxrto3Cc3YuAAAAAAAAAAAAAAAAAAAAAAAAAAAAAAAAAAAAAAAAAAAAAAAAAAAAAAAAAAAAAAAAAAAAAAAAAAAAAAAAAAAAH5H6fkfp+R+n4i33yVVFK0yLeplbc5PXJtWJgT4Um0FXgAAAAAAAAFm9RsHr7Qr97n6Y+T+X6H5fofl+h+X6H5foerLiW6FZCME2wAAAAAAAAB90912U+6P2TxN9ka7vEx/stGu3qRXKce55HnoAAAAAAAAAAAAAAAAAAAAAAAAAAAAAAAAAAAAAAAAAAAAAAAAAAAAAAAAAAAAAAAAAAAAAAAAAAAAAAABxFe6/LN/PmtXCTa1IrTSdJtSHHhftB6AAAAAAPbM/nsJ+dAbKxruWNhdF/Ma5hXxum2ZU6x4F2gB7PWNULLYaa+YyVJ4i3gAAFaJHyElWeI9Zk4oADkuO02tVwtXrZ3xBv4N+Nl60ybWfya4Zk2/UPfAAAAAAEhx489uxZfJBYubvfRiBY6Nd0xVksLGu8sKPQAAAAAAAAAAAAAAAAAAAAAAAAAAAAAAAAAAAAAAAAAAAAAAAAAAAAAAAAAAAAAAAAAAAAAAAAAB1f12j4KKU7lWdGKqVqS7PJcaX7YAAAAAAB2WxtFVTeR03sNGu5gWWuCjXeodvLFwPADPLQ357lOEKwVfcvCCrwBJMbPPdx+fym1UxMz2izWA6/zWVd6iO43MtDD3wAWDp9lfQr1e/ETfy/S3V+X6HjqHcHqn1adV1+3hTx+51eZNrLdbKuMm11sV0gAAAAAOS40WWtVl+sXN1/vxBuLEvX5dX7RFvB4AAAAAAAAAAAAAAAAAAAAAAAAAAAAAAAAAAAAAAAAAAAAAAAAAAAAAAAAAAAAAAAAAAAAAAcVBOcEm1bakvDshGC5SAAAAAP2fhMdlrVdBpB1OlWNdzxstPSNd+b6SzWAAAAAB1vH7aWJ5FvHFy/EZWGAAvNRn9UVbyKt2kw80VZIko1+vzmIQV0gDlztewHTJXxUwI9wAAAAB830iBK06Ir1GLUfbyRVJtY4L81pk2ocfv8XaAAAAAAOZu1Qxbq3R5XFXSDHybFCNdAAAAAAAAAAAAAAAAAAAAAAAAAAAAAAAAAAAAAAAAAAAAAAAAAAAAAAAAAAAAAAAAAAAHTPXZM8obhnIxf1+SXZAAAAHPnALVWWsXMzJ51D52NdprZTuyNdC3UAAAAAAAAABV3L7eOgU6xRYT4wAHLa7Y59/sXNTMie1dAAv2wAP3qFEl/IEkIN8AAAAAAAAADpFbLlLlOT8Dbs8FJtYbNP60ybVVnP8BftgAAAP1+RcvQzCiZ4l7X903uWOlB4AAAAAAAAAAAAAAAAAAAAAAAAAAAAAAAAAAAAAAAAAAAAAAAAAAAAAAAAAAAAAAAAEXe+ezJ/wCLqeViBftgAAEqXhs1542i0P8Auh36+Tv9iNdCn0AAAAAAAAAAAAB6vaMqa37kZBZOLGglWQAAAAFkY519i3uZ9pjJQAAAAAAAAAAAAAHxwRYNV5nDV7b/AOGTawnaaUemWIsF6gAADvWr+M3bLFzbpF8oYqWHnoAAAAAAAAAAAAAAAAAAAAAAAAAAAAAAAAAAAAAAAAAAAAAAAAAAAAAAB4h6zPl/olTer4TptnOFr6g7PYBX9TdsAr+LAK/iwCv4sAr+LAVT7YrpiFLy5TEKXhEKXhEKXhEPeuyPE9+2v6zcsAr+LAK/iwCv4sAr+LAK/iwCv4sAr+LAK/iwCv4sAr+LAK/iwCv4sAr+LAK/iwCv4sAr+LAK/iwEcdGe+RCl5eoiFLwiFLwiFLwiFLwiFLw7zI9f1muwCv7z2wCv4sAr+LAK/iwCv4sAr+LAK/iwCv4sAr+LAK/iwCv4sAr+LAK/iwCv4sAr+LAK/iwCv4sB6oEHW+iy8vW4hS89RCl4RCl4RCl4dUtXX9aqsAr+pqsAr+LAK/iwCv4sAr+LBc1WN7au13vOrtE/WL4IemDN8y8i9AAAAAAAAAAAAAAAAAAAAAAAAAAAAAAAAAAAAAAAAAAAAAAAen21Si5z8Qwaf9CBZyAAAAAAAAAAAAAAAAAAAAAAAAAAAAAAAAAAAAAAAAAAAAAAAAAAAAAAAAAAAAAAAAAAAAACZ4YXsfol7qpWs3D578iVgwAAAAAAAAAAAAAAAAAAAAAAAAAAAAAAAAAAAAAAAAAAAB4Iop/3Tpem/RQQdmAAAAAAAAAAAAAAAAAAAAAAAAAAAAAAAAAAAAAAAAAAAAAAAAAAAAAAAAAAAAAAAAAAAAAAAXAp/wB1naxeN487l87AAAAAAAAAAAAAAAAAAAAAAAAAAAAAAAAAAAAAAAAAAAAOpdthiPl6nDR/pkAAl+z+U0igLQpKwWerQoZ6tChnq0KGerQoZ6tChnq0KGerQoZ6tChnq0KGerQoZ6tChnq0KGerQoZ6tChnq0KGerQoZ6tChnq0KGerQoZ6tChnq0KGerQoZ6tChnq0KGerQoZ6tChnq0KGerQoZ6tChnq0KGerQoZ6tChnq0KGerQoZ6tChnq0KGerQoZ6tChnq0KGerQoZ6tChnq0KGerQoZ6tChnq0KGerQoZ6tChnq0KGerQoZ6tChnq0KGerQoZ6tChnq0KGerQoZ6tChnq0KGerQoZ6tChnq0KGerQoZ6tChnq0KGerQoZ6tChnqv7WGLnYgGL3cAC9nbIZmbePmYJGIAAAAAAAAAAAAAAAAAAAAAAAAAAAAAAAAAAAAAAAAAAAQFPsFQdmq4NN+igAL0dw6R3fevl8L2PAAAAAAAAAAAAAAAAAAAAAAAAAAAAAAAAAAAAAAAAAAAAAAAAAAAAAAAAAAAAAAAAAdP7h0izkKPDRfqAACzc+wXOm5fOoTtZAAAAAAAAAAAAAAAAAAAAAAAAAAAAAAAAAAAAAAAAAAAQ/MEaRc3TIaT9KgAXMkyH5g3b5qCVhAAAAAAAAAAAAAAAAAAAAAAAAAAAAAAAAAAAAAAAAAAAAAAAAAAAAAAAAAAAAAAAAAEZyZD0XN1IGk/SoAFuZfjSS92+aglYQAAAAAAAAAAAAAAAAAAAAAAAAAAAAAAAAAAAAAAAAAAB0nu3XrU6hA0T6iAAtFO1dbFbl87hO1cAAAAAAAAAAAAAAAAAAAAAAAAAAAAAAAAAAAAAAAAAAAAAAAAAAAAAAAAAAAAAAAABBM7V0gbRXIad9EAAXj7r1/sG9/LgXYQAAAAAAAAAAAAAAAAAAAAAAAAAAAAAAAAAAAAAAAAAAD4vt/PlWdL6vl0H6sDyoCebP1LtptvBAyelAAAAAAAAAAAAAAAAAAAAAAAAAAAAAAAAAAAAAAAAAAAAAAAAAAAAAAAAAAAAAAAAAKv2gqVjN1hwal3sAfX7ToB9v5/W/fKYe0gAAAAAAAAAAAAAAAAAAAAAAAAAAAAAAAAAAAAAAAAAAAUE4LufTNE+owtTQJPuTSG720cRDMc9AAAAAAAAAAAAAAAAAAAAAAAAAAAAAAAAAAAAAAAAAAAAAAAAAAAAAAAAAAAAAAAAAU2uTSDD9C6MNX7cA57ge53YV5Rvfy4AAAAAAAAAAAAAAAAAAAAAAAAAAAAAAAAAAAAAAAAAAAABS+N5ciPSfpYIuaA7LfPPfQfY+PeRneYAAAAAAAAAAAAAAAAAAAAAAAAAAAeAAAAAADrlN7sXVKmdHwXULy9vzr7JTdvo6H3zPctCuMAAAAAAAAAAAAAAAAAAAAAAAAAAAoZfLPjBdQ48a52ABJEby7Kwtuxu3zSAAAAAAAAAAAAAAAAAAAAAAAAAAAAAAAAAAAAAAAAAAAABVmDbDV5036JCDs4H60Ozvv/AJ7lnMjYuRAAAAAAAAAAAAAAAAAAAAAAAAAAAAAAAAAeKQ2tozr/AFcNf6yBzV8M9bg5zmcrjZONgAAAAAAAAAAAAAAAAAAAAAAAAAAfPnjfygOu9dDA9TATlBth52sWRG5fOwAAAAAAAAAAAAAAAAAAAAAAAAAAAAAAAAAAAAAAAAAAAAEBVkthU/Uu+BjN0AXpotdXNc5kMbNxUAAAAAAAAAAAAAAAAAAAAAAAAAAAAAAAACAqyShF+m/RYQdlAW6qNffM867ANn4oAAAAAAAAAAAAAAAAAAAAAAAAAAB1Ci11KV6z2oML0YBZysdscnpczjbeBgAAAAAAAAAAAAAAAAAAAAAAAAAAAAAAAAAAAAAAAAAAAARZTq7VJdX7eGH6CAuBT+1WV0abhtfCAAAAAAAAAAAAAAAAAAAAAAAAAAAAAAAAHz/RHFuZTr4zRPqIPKgO2Xsq9aHaeGhl9BAAAAAAAAAAAAAAAAAAAAAAAAAAAiaoFqqq6p3cMVvIC41Obt5jnvfRtHEQAAAAAAAAAAAAAAAAAAAAAAAAAAAAAAAAAAAAAAAAAAAAOrUQ0Ez71zsQYLpwCy1abAZDU7MDcPnsAAAAAAAAAAAAAAAAAAAAAAAAAAAAAAABW2yVIsVvPRBqndwB7XlvZW4/kN6+YAvY8AAAAAAAAAAAAAAAAAAAAAAAAAACvlarAV/0/wChAx+2AL30Q0FzvMOTGx8eAAAAAAAAAAAAAAAAAAAAAAAAAAAAAAAAAAAAAAAAAAAAA9WeOiefmA6pxQ17rgCbITleXgLgjdfm4AAAAAAAAAAAAAAAAAAAAAA/Fc4+XmeO6rfjX+sW/k7PLsdyFfV1XtWxckCqwAAAABxef9uahaz2kML0cBIEf2Mma/Ywbp83gHjqtN/sEY1j65rvW7WSJQ/925miquNi9g5R+xIxAAAAAAAAAAAAAAAAAAAAAAFUoUlaKdK+kQiZ8D26H0B0C2LkYZ7lYAAAAAAAAAAAAAAAAAAAAAAAAAAAAAAAAAAAAAAAAAAAACiV7aTYXo/QBrPaQEhR7229jb1jevmEAAAAAAAAAAAAAAAAAAAABxHWKi4zdO2Rmat3ALcwCQrrZ0aD7Hx/kBneXgAAADwVag3s/WNI+mAjZgBdem+ged5h7hsfHgFKLj58YLqHga52ABJsZLkPQHl6D272nh/fRk9LAAAAAAAAAAAAAAAAAAAAApRH3bepaL9PhZyIHbL2Unuxs3FgzXOAAAAAAAAAAAAAAAAAAAAAAAAAAAAAAAAAAAAAAAAAAAAAFPLh1QxW9QsNU7sA5jh/fVa0Rfj9798qAAAAAAAAAAAAAAAAAAAD4fKvtgnoEO6/1n3+gwHVAegAe3Qmqltdm4wGa5sAAAA632SEI+XqsNH+mQAJVuHA087dwEMlpoHyZ76J1JwnSYdGtdnAAe/0Hlop1zomLP8AK7bPi+3YOTB7SAAAAAAAAAAAAAAAAAAPW9oFxHu9Og/VQU3QJVuHVG1218JDK6KAAAAAAAAAAAAAAAAAAAAAAAAAAAAAAAAAAAAAAAAAAAAArLZqveP22tY0/wCgwANBuS6x2ffflgK4wAAAAAAAAAAAAAAAAAh+1P7nULr/AMOq9yDHbeAAP0fmTu+2KznMfi5A2Pj4e0gAAAKi23oBhujcSNY7UAOfqtXM7b48738thXYAcfyDyqmsY6K101zsFdX6/OD6cAAB2+3lFPuyOoaFIgl/auGhdgAAAAAAAAAAAAAAAAAON5LrFEmhw0L6nAAn+zNe7Cbh8+BkNSAAAAAAAAAAAAAAAAAAAAAAAAAAAAAAAAAAAAAAAAAAAAAQfOESQ9gqENL+kAALu97i6Ud4+ZQkYkAAAAAAAAAAAAAAAB6OHqLB2jvUDGqd1CxkwAB3uuN1m2nbexbRxIMrooAAAAAHR6P2VrVqndQxW9gJpha2mQ1KZBuHz4AAABF9TNA+uYreqFO9dF1ftoUSQAE8wMv4zRL3UntztfCufE7VwAAAAAAAAAAAAAAAHQ++RdHy1OBo/wBNAAWpm+JZa3X5vCXr4AAAAAAAAAAAAAAAAAAAAAAAAAAAAAAAAAAAAAAAAAAAACOZG6dYydGBo306ABbOZYFnrc/nIJuuAAAAAAAAAAAAAAD8n6jTodccH0zleHNc7AHlwAA+y08vAx/Z36G18ICVhAAAAAAB8nlVPI1+n5tF+oQtTQPN/KaXm2LkYZ7lYAAAAHz1itKi5vOdbKrOqd3+MRM8AA5jh3tu50lZ1WP2Pj9hn5/Wc5mAAAAAAAAAAAAAAAhmZoEhbHWIaZ9GgAXTkXp3cd5+YQv40AAAAAAAAAAAAAAAAAAAAAAAAAAAAAAAAAAAAAAAAAAAABwfOfNTezwfr86D9VAAWJsfVu0m3fP4ZLTwAAAAAAAAAAAAB0eiT2Sp3UOt6x2sMTvgAADtXcrWZfQOvdxNm4sFccAAAAAABGcmVohbJX4aZ9GAAT7ZuL5Q3P50CbrQAAAAADp3cVEiiPVdCKp6z2mIxiN/AAAlO2WfXZctod83R+8bPxQK4wAAAAAAAAAAAACt9kKtY3cIMGo/QAA/Rfvm/m+nfvlQKrQAAAAAAAAAAAAAAAAAAAAAAAAAAAAAAAAAAAAAAAAAAAADx5Gevw9j65oX1QFEgCX7c0xudtXDAy2hAAAAAAAAAAAAD0PYyqJyHDaZ9FhC2QAAc7Va4ey3e5C2TjvjyZrmwAAAAAAAACjty6AYHqf5Gu9dAe/0SNch3F+03v5dD2kAAAAAAB48iAq06Jx5hek0qc5wet9iCm6AB9NvKdc1N1q/z0e/c/nUHgAAAAAAAAAAACotuqYYnfo2Gq9yAff8HY6499PJvvyuAAAAAAAAAAAAAAAAAAAAAAAAAAAAAAAAAAAAAAAAAAAAAABR7pEmxlo/02EfKgd1vHQe/Gy8ZDN81AAAAAAAAAAAAdN7lwNubQV58aH9RgAAdzuXQWymb5tYB+f1svGAAAAAAAAAAIfqPNsJah9BBjtuAWRrddzK6L3wbXwkAAAAAAAAAfk4emkyVs1ns/rGF6SAAPJebuPA89vny2FyGAAAAAAAAAAAAo3eSg2E6XwA1rsoDvHR5NkYq5Y3j5kAAAAAAAAAAAAAAAAAAAAAAAAAAAAAAAAAAAAAAAAAAAAAAAqRD07wRpf0cEPYgPs0Lzp0M2Dk/wBY2Dk4AAAAAAAAAAAAFP4n0JqZrHa4pGG6KAABLNrs+O0ZfQb4Omdz2bioVxwAAAAAAHjz1am/TLrpof1GFN4Dk9Aai2+2biwZrnAAAAAAAAA6XRI7HVDp/V9Y7UGJ34AABLH5tnmedfeNn4oAAAAAAAAAAAAB4z00Az01/rHga/1gBMUOzvM120I3T5xAAAAAAAAAAAAAAAAAAAAAAAAAAAAAAAAAAAAAAAAAAAAAAArlXS0FX9Q+gQx23gL9UFvJm+ad0Gy8aAAAAAAAAAAAAAfn9CvlbtFI3wnS6XuZ4bW+wh5cAA+u0lUEvBaMKr2f2vhH0iVgwAAAAAEFzpUDHbhEw1D6AAAtLOfV+0bv8zhJw4AAAAAAB81X4uckCrXytU7uETOgADmqrfE2R75I+x8e/P6M3zQAAAAAAAAAAAAADgKDXko3rXZQwnSwFjK52hyOoTuNv+fgAAAAAAAAAAAAAAAAAAAAAAAAAAAAAAAAAAAAAAAAAAAAAAIcqVcqmuq90DE74AufTC3eX0GXRtPDQAAAAAAAAAAAAAAOCqNdb0wdnztT7Aeqd18CxlAAHeOjq419OyZ92x2ficpjLaIAAAAB6s/rk0k1zr4YLqIDsnW5ukYi1Pk3j5mAAAAAAAda6jU3E752Xo5rHawokgAHmfL+L6Jbnl/dtfCgnawAAAAAAAAAAAAAABG1MLdVF1buQYjfgFtqk3Ly2hSaNq4YAAAAAAAAAAAAAAAAAAAAAAAAAAAAAAAAAAAAAAAAAAAAAAB0akF9KF612cMJ0kBaWrVkclp1hxt3AAAAAAAAAAAAAAAAAERy4tTs9vgvbUPVe5dOGO3AAB+vyLD2NzrkvOcyua4fmNj5AHtsAACu9b5FjrS/o4IexALc1Iv/AJrnPLjZuKgAAAADh/LnKVy6FGuudg/X5MH0wAAB9/Yre5HT+my4bVw0LsEAAAAAAAAAAAAAAACDKtWQrfqPfwxu4gLwUfvrm+a9jGy8ZAAAAAAAAAAAAAAAAAAAAAAAAAAAAAAAAAAAAAAAAAAAAAAA4/PfRbPHX+s/ONf6uAnyA5nm63bEbn85gAAAAAAAAAAAAAAAAPj+x5VUyGtF4N1/rFWnv9GA6qD0ADn7dUm90/V9EkXSjtnBAuwgHw/dFtqfUD0GifUAPQO73hrTZba+FBldEAAAAEW2pvJ1F4b06n3sIG0AAD6HnzzLIE5Z/lXyfYbBycPaQAAAAAAAAAAAAAAAAKxQJM0M6Z9GBC2QBoTn/obsHKP0Ng5MAAAAAAAAAAAAAAAAAAAAAAAAAAAAAAAAAAAAAAAAAAAAAAAoFf2i+D6Z08a32QBKUW99kYi7Y3j5mAAAAAAAAAAAAAAAAAAA6JUS+3FY3c8/Enxhq3cAtTQAOzXxzo0E2HknKDP8qAVis7RfE7708ar3MAfV7TcOS/l+revl4LsIAAADxQ272fmA6qGvdbAAEoXYXUbd9m5XaeHhktMAAAAAAAAAAAAAAAAAAApxF3fOh6P9NBHywHN39oxefZONhnOZgAAAAAAAAAAAAAAAAAAAAAAAAAAAAAAAAAAAAAAAAAAAAAAKV3UqBiN/iYat3EB2jq/J3I2go3z5YAAAAAAAAAAAAAPA8vA8vA8vA8vA8vA8vA/Nd7FI+Wzq/Nyamap3biRC2QDkNA69WK2nh4Zfn4HB0EtjU3WO2BhuiAJLjSy03W7BDc/nMAAAAD05+6EV1xHQK4jVu4AP3ydtJut9CsR+218JCRiQAAAAAAAAAAAAAAAAAAAKH9X5PjNC+pwokgSLdOoNvtp4cGX0AAAAAAAAAAAAAAAAAAAAAAAAAAAAAAAAAAAAAAAAAAAAAAABVa1NasbuVfBqPfgHs9Z5ol7uI5ffvlQKrYAAAAAAAAAAAHh5Hh5Hh5Hh5Hh5Hh5Hh5Hh5Hjr3YlN2o0caAMR0CiM5T4uQ/z+jK6MAPBU+GOd4LR/psI+VAXhprf7Pcs/Y2LkQAAAAD8/oQHBt7mK3nP+R7crczr3YTL8/Cq0AAAAAAAAAAAAAAAAAAAA9Pu4im7QH8Gg/VQPQJvtTWuym3cBDJaaAAAAAAAAAAAAAAAAAAAAAAAAAAAAAAAAAAAAAAAAAAAAAAAr/YCFIWy1SGmfRYAF7O2R/IG9fMAXscAAAAAAAAAAAAAAAAAAAAAAAAA6h2+BYuarCNJ+lgAJftzCM3bf8+hkdRAAAAAAAAAAAAAAAAAAAAAAAAAAAAAAdS7bH1nI0oGi/T4AFmZ/hWatz+dAm60AAAAAAAAAAAAAAAAAAAAAAAAAAAAAAAAAAAAAAAAAAAAAAAimVo+jZelA0j6ZAAuFK0KTXuvzaEvAgAAAAAAAAAAAAAAAAAAAAAAAAKdW+z8wnSvhGtdmAHaarFzOx+PO+fLYVWgAAAAAAAAAAAAAAAAAAAAAAAAAAAAAEUytCkTPVSGlfSQAFw5Vj+QN4+ZgkYgAAAAAAAAAAAAAAAAAAAAAAAAAAAAAAAAAAAAAAAAAAAAAAB1PtnEW5Wfw0P6mAAszP9arK7h89BkNUAAAAAAAAAAAAAAAAAAAAAAAAAj2lNsqm6r3IMTvwCdILt9ktPlobd8/gAAAAAAAAAAAAAAAAAAAAAAAAAAAAAAK/wBgK1Y/a6+DT/oUAC9va+J5bfPlkLkUAAAAAAAAAAAAAAAAAAAAAAAAAAAAAAAAAAAAAAAAAAAAAAB6fce51+vk+M0D6rDy4BN9qag2+2zg4ZTRwAAAAAAAAAAAAAAAAAAAAAAAAOk0d0YqZguow0Nc6+B9N/YLsNtHEQzHPQAAAAAAAAAAAAAAAAAAAAAAAAAAAAAAFVbVVAxe8RMNT7wA9nr5Sq3f73G/fKgPAAAAAAAAAAAAAAAAAAAAAAAAAAAAAAAAAAAAAAAAAAAAAAAAKH9X750PRfqALOQAkW6dF70bPxUMzzkAAAAAAAAAAAAAAAAAAAAAAAAB6/YewXFdyGN3Cn0yy4qt+PJkNSAAAAAAAAAAAAAAAAAAAAAAAAAAAAAAAAUrupRbDdG6gNY7UA7T1bvt7H3bG9fL4AAAAAAAAAAAAAAAAAAAAAAAAAAAAAAAAAAAAAAAAAAAAAAAAFOYtmaGdK+kwiZ0Dm7+536HbFyL9DPcsAAAAAAAAAAAAAAAAAAAAAAAAAAAAAAAAAAAAAAAAAAAAAAAAAAAAAAAAAAAAAUBv3nlgep/ONd66AlOLJnl4K2I3X5sAAAAAAAAAAAAAAAAAAAAAAAAAAAAAAAAAAAAAAAAAAAAAAAAArFAlka3ad9DBA2oBoTntfTO8v7INj4+AAAAAAAAAAAAAAAAAAAAAAAAAAAAAAAAAAAAAAAAAAAAAAAAAAAAAAAAAAAABx+e986Ga52AMF1ABPkB2Rn6pYcbj89AAAAAAAAAAAAAAAAAAAAAAAAAAAAAAAAAAAAAAAAAAAAAAAAAQZVq3VRdT7yGL3cBeCj9ysxzyThtHEgAAAAAAAAAAAAAAAAAAAAAAAAAAAAAAAAAAAAAAAAAAAAAAAAAAAAAAAAAAAAOjUguVTXV+2hh+hgLTVZt3lNHl0bZwcAAAAAAAAAAAAAAAAAAAAAAAAAAAAAAAAAAAAAAAAAAAAAAAACNqYXko3rHaww3RQFtqk2gymkzwNs4KAAAAAAAAAAAAAAAAAAAAAAAAAAAAAAAAAAAAAAAAAAAAAAAAAAAAAAAAAAAABDlSrQVf1PvQYvdgF0KX3lzPOu5jZ+KAAAAAAAAAAAAAAAAAAAAAAAAAAAAAAAAAAAAAAAAAAAAAAAAAcBQbQ3PPXeveBgepALGVznefq1oRuPzwAAAAAAAAAAAAAAAAAAAAAAAAAAAAAAAAAAAAAAAAAAAAAAAAAAAAAAAAAAAABXKuk7QTp30OEDaQF+qDaGZ7lv1jYuQgAAAAAAAAAAAAAAAAAAAAAAAAAAAAAHDVkrptp6ct4Hk2tfY1ysXqNIuIz0V+aEM9zzQhnuNCGe40IZ7jQhnuNCGe40IZ7jQhnuNCGe40IZ7jQhnuNCGe40IZ7jQhnuNCGe40HrZBaPmJwQejZicEHicO41eVx77KEpuu32UJF9lCRfZQkX2UJF9lCRfZQkX2UJF9lCRfZQkX2UJF9lCRfZQkX2UJF9lCRfZQkX2UJF9lCRfZQkX2UJF9lCRfZQkX2UJF9lCRfZQkX2UJF9lCRfZQkX2UJF9lCRfZQkX2UJF9lCRfZQkX2UJF9lCRfZQkX2UJF9lCRfZQkX2UJF9lCRfZQkX2UJF9lCRfZQkX2UJF9lCRfZQkX2UJF9lCRfZQkX2UJF9lCRfZQkX2UJF9lCRfZQkX2UJF9lCRfZQkX2UJFoenQehbFOCD1EicEHidbJZ8JOG0IZ7pGI0IZ7jQhnuNCGe40IZ7jQhnuNCGe40IZ7jQhnuNCGe40IZ7jQhnuNCGe40IZ7jQhnuNC+XzdPdU5KxiUe7w+3DmebNzU1Uuzka5zAoqAAAAAAAAAPmpLcptpSCn3ET4/N8ISrIAAAAAAAAAAAAAAAAAAAAAAAAAAAAAAAAAAAAAAAAAAAAAAAAAAAAAAAAAAAAAAAAAAAAAAAAAAAAAAAAAAAAAAAAAAAAAAAAAAAAAAAAADm+EF2Lv4kcvFvbnqOXagSPpFuoAAAAAB0DpuWEm1IMMGTih74AAAAAAAAAAAAAAAAAAAAAAAAAAAAAAAAAAAAAAAAAAAAAAAAAAAAAAAAAAAAAAAAAAAAAAAAAAAAAAAAAAAAAAAAAAAAAAAAAAAAAAAAAAAAAmiF3nu0/f8P9T8ZKnERroAAACAewZISrPq4sycUAAAdxOnLhzhYuZmNfOyWq8X204xYbTjFhtOMWG04xYbTjFhtOMWG04xYbTjFhtOMWG04xYbTjFhtOMWG04xYbTjFhtOMWG04xYbTjFhtOMWG04xYbTjFhtOMWG04xYbTjFhtOMWG04xYbTjFhtOMWG04xYbTjFhtOMWG04xYbTjFhtOMWG04xYbTjFhtOMWG04xYbTjFhtOMWG04xYbTjFhtOMWG04xYbTjFhtOMWG04xYbTjFhtOMWG04xYbTjFhtOMWG04xYbTjFhtOMWG04xYbTjFhtOMWG04xYbTjFhtOMWG04xYbTjFhtOMWG04xYbTjFhtOMWG04xYbTjFhtOMWG04xYbTjFhtOMWG04xYbTjFhtOMWG04xYbTjFhtOMWG04xYbTjFhtOMWG04xYbTjFhtOMWG04xYbTjFhtOMWG04xYbTjFhtOMWG04xYbTjFhtOMWG04xYbTjFhtOMWG04xYbTjFhtOMWG04xYbQdbMg2mcHXaKeu49Ov2wAAHKcWNaZ9wy1wxkqXRFvAAOudjy+u0Qr0Qy8IPQA+8+CXLaXQh361WU96BICn0AAAAAAAAAAAAAAAAAAAAAAAAAAAAAAAAAAAAAAAAAAAAAAAAAAAAAAAAAAAAAAAAAAAAAAAAAAAAAAAAAAAAAAAAAAAAAAAAAAAAAAD5612cVeY6RJvBS6fHzwff8EywAA750N43D7Hl/qBiJoWqx6yvGUsqxTl4YXrYA58+jVTkpZxksIt0AAAAAAAAAAAAAAAAAAAAAAAAAAAAAAAAAAAAAAAAAAAAAAAAAAAAAAAAAAAAAAAAAAAAAAAAAAAAAAAAAAAAAAAAAAAAAAAAAAAAAAAAAACE8rNv4mlWscnPcDk4gAHnVvKOV7NzY96/ZiJitVlcpJFuugysMAD96q1o0lgSAgyAAAAAAAAAAAAAAAAAAAAAAAAAAAAAAAAAAAAAAAAAAAAAAAAAAAAAAAAAAAAAAAAAAAAAAAAAAAAAAAAAAAAAAAAAAAAAAAAAAAAAAAAAAAAAK35Wbx5szo9PxPjgAap2Tyl1axMzrGJGmeYkuyEuyA5fiLl0VXx7UYacHgAAAAAAAAAAAAAAAAAAAAAAAAAAAAAAAAAAAAAAAAAAAAAAAAAAAAAAAAAAAAAAAAAAAAAAAAAAAAAAAAAAAAAAAAAAAAAAAAAAAAAAAAAAAAB1Ttb1hfxNyqa5mCFdIH07b4f6eRL0GU2nKDb9AXKAGvmUm38K/7hj5IAAAAAAAAAAAAAAAAAAAAAAAAAAAAAAAAAAAAAAAAAAAAAAAAAAAAAAAAAAAAAAAAAAAAAAAAAAAAAAAAAAAAAAAAAAAAAAAAAAAAAAAAAAAAAAEJ5C7wYf5CN18TbAC5VNZzt1x9036/kroD0BPWtmZemmMlBFvAAAAAAAAAAAAAAAAAAAAAAAAAAAAAAAAAAAAAAAAAAAAAAAAAAAAAAAAAAAAAAAAAAAAAAAAAAAAAAAAAAAAAAAAAAAAAAAAAAAAAAAAAAAAAAAMktbcypVmpwycUB3Ppn2ee/J4PfAAOwdwi957KCL3iUEXiUEXiUEXiUEXiUEXiUEXiUEXiUEXiUEXiUEXiUEXiUEXiUEXiUEXiUEXiUEXiUEXiUEXiUEXiUEXiUEXiUEXiUEXiUEXiUEXiUEXiUEXiUEXiUEXiUEXiUEXiUEXiUEXiUEXiUEXiUEXiUEXiUEXiUEXiUEXiUEXiUEXiUEXiUEXiUEXiUEXiUEXiUEXiUEXiUEXiUEXiUEXiUEXiUEXiUEXiUEXiUEXiUEXiUEXiUEXiUEXiUEXiUEXiUEXiUEXiUEXiUEXiUEXiUEXiUEXiUEXiUEXiUEXiUEXiUEXiUEXiUEXiUEXiUEXiUEXiUEXiUEXiUEXiUEXiUEXiUEXiUEXiUEXiUEXiUEXiUEXiUEXiUEXiUEXiUEXiUEXiUEXiUEXiUEXiUEXiUEXiUEXiUEXiUEXiUEXiUEXiUEXiUEXiUEXiUEXiUEXiUOn9feg98Afr8+Tw/f4AAAAAAAAAAAAAAAAAAAAAAAAAAAAAAAAAAAAAAAAAAAAAAAAAAAAAAAAAAAAAAAAAAAAAAAAAAAAAAAAAAAAAAAAAAAAAAAAAAAAAAAAAAAAAAAAAAAAAAHnx7CVIn1dyrs3PmF62AAAAAAAAAAAAAAAAAAAAAAAAAAAAAAAAAAAAAAAAAAAAAAAAAAAAAAAAAAAAAAAAAAAAAAAAAAAAAAAAAAAAAAAAAAAAAAAAAAAAAAAAAAAAAAAAAAAAAlqL9VLNyxELGKl0CgAy8LwLlIAAAAAAAAAAAAAAAAAAAAAAAAAAAAAAAAAAAAAAAAAAAAAAAAAAAAAAAAAAAAAAAAAAAAAAAAAAAAAAAAAAAAAAAAAAAAAAAAAAAAAAAAAAAAAAAAAAHmfy3Vf2aTETf/8QARBAAAAQEAwMKBAQGAwABBAMAAwQFBgABAgcIEVcJGCASExQVFxkwVVZwQFBRYCExN1IQFjQ1NjgiI2JBJCUyMyYnYf/aAAgBAQABDAD7vFFCADqFGEpDod+JOxLFnWG47noQQzp2kdkkidQbcRXEvCOLaeOweddDUtglE6VvaC4j1blSJrSOk0quLDEYsTq6Xdxeoko3YuirznNTuM5TUGFxaOTnUbVzo86q66/xrrqqimuuiedFdVMF1tZKTlMornQZp11rnpE5TTLiOUrCXisxFI/JkTu64KpIm0BxJJPJkacCUq0t7advUvOih02zRj1LX2lNm1SdIbmbbiQ62hijsC95hhoV0EWQ5cyWOA0mChgMcL3bXHCgtggIquNaIpZO4m0DsSzJilG8ZPO06/do/eJwzELstISGuWeN37oXBFqEeb9W1WXwDSubcNhj0mGa9VlHqYe0Tvi2Jhl3SEkuorbzaKWWdUwijwKKbTNtd5tJ7J9Kq0HKmrJT3WutiYs3ZwMQJ3u4vUo3T2kj8XZjJ1rG8WbhR4P97XAUKlV6ulTWjXwzddTlaCjQrtZfUEk7a3aK3YacwSFwCBR3ELTYvrI3c5kklualIV5TlOWcp+6V58V9oLJhik1xckprd5Mdl4rnTHTG+bk0EQYYUwLWOOLWIJ8VKc5TzlPKdnsY96LQVAkSy5NeRLK427QXcmAknz38rL8pynKU5Tzl7m3UvRbmzKLNafriAJSvrj5uPceZhCt9IVooAooo4tY44lYgnx9jcaV2LOVF0k4dqczcspiVtbfQjTNqLMi6t7lDjgFQBDJkYMEHETtBUNsTMtOykgFhUdbvc75WzDjd64cVlL5EmKaijHwFVIPmCRzDxtDThGZZp31pqNF0NdRnKlFlxvKhVRT/AHHufddjWfbQrpfa2ERK4jcYj9vkYHQ02sVAaPjIzTdLiEkE322qKdaLhSxFL8qaiFpF6ilM2f2JRQplUO3EohIns2L6DylM2vNMtAezKuxVLMR+NWmYmzKuxTL/AK341apnNmvfMCU5lF9pGYUtn7iUIUzqAbqSfktYT8RaDKqo9aVdEpWmg7G5XMNwthWTKvGsTiUuNYRWkM2z8ziNY3ERby/aF1i1D/MKXuLiPxUMnD+k1FRag1Z03Ruw+bxOcZ1PpZEOmfDabCer7OyTmY1VRaMMPZ13wc8gzLpMJLVLMzZsWjRpUDPJyLjhGamGmwzKlRUgWtQaBSpMmRBkXJFQS4XgGSpU4FMA4WCHDdeHCxT05dThta3xRHls3LNrcqxWiurrcGfezkvQ3JCGWgpI7pLvG2z+t6bmSezPVkUXw2o7XIx14o52msGUtTwtY1G9eIMszH3UWRnj7h4scZiRZ8AwxmAMXUnkuryy51c2vuFTMKCj4IQQo4tAAAVYglp8DV8LmyBUD6TQ1Ui2Oz8skyJBHHSCaeCijISI3SIaYgJBJNJ/AKSUmLJMRPWE4qeK3NwFWJf0hTaImDtJRuvgHvXb2Qyg3CoLwSjZM2nmRCR8qMWMeCCMKXFoHAFrDFwj446VOolbO9KnTQblOVUpTlOU5e4GMTGcDb+g3bC1Z8MZymTJg6YFNnBxBx/ACCEGEpBBDqEEslgIuncqRdaeebPQrRYYbPWYBDFarYCMKnw11cPdprylag3u0ywxy9ez0uGyZDrdsTdTtSThI4nGhSKgUGLGfBwc41BUCslaq7ypUIl0V0CUUiB101Ue32NDGDRbwuZtZbNQprc4ooo4tY44lYgngWOwyXPvuepm2kzoSNYvCJamyAIKgUTpLji+KvVhltVfInXN0ItJVXv3hBufY0QZUFKzXmz4OCrGLWgikrQXVVJ1JkpynKU5Tzl7eYysVpezCJWx2YbDFehs2aPmhjp0wIOY4yJE6pnAU9OKDGjWG3Z9TEpKvO+4U6ZJiWmoieAko5AuSJfGDgAmQay5kGgULEfs/wBDdFJp32UDASFZwt1daayabzlSTSapeBgcxbzV6CdlrmKeZ327xPYh0bD+xa1LMI04nI41t3Lx5zONRGPKfHbi2jzuu6CzRY6MKoH8NuEVk2GIhLB2kFbd/wAgv5hrt/f5FmAvlJEVu89jn5YxzVN15p05BcYIwxYYMwXFrCFwXYow7ytyTIeByiTy9ubj3CbdrGYpvl1m5AJ957uOW9b9PvhyizlVx2MsO9r9OuhutUrzRSy1jmLYtqhttnEJc78iuNbZnXWaxpoPdHCPkMSmF93YfV7liyEU2vxs93L7Dcyc72uoVklPD5e9Bvzbwo7kudAB/wBt6qqaKZ111Sppxs4kBLxvebSbJ2c2lx4fMPruxAO+lDRKKiiVbC17PtC0SjNZSZSVJfJHW1G892+dazqSgFFLxT4WF+wC/NSTZDqLO48Mt+VSwdxiy/TWKMhIywmOBJJrqKdCNkPbbHxiInbxoSta1T3IcPHYuyLrvu9y7RbYUwgLW2uaVn2cSZTNISLk/kzsabffDdPNV0pgKgl4n8Nq9h9d8wKedOtjj2eOIeYQtViXYe/4e2tyn+hWuY6u+3GNyCVx38vXQeys+nKPMQ9xW9YLluc705ktIhUaUrDWQbFh2KWaSAHSMb+UXMts1rss1QZDvIyMEL3Wbc9jn4cZTkDnXTxI6upICqTXEc2IVPYdLzJ18rXJjyAqDoUfbTaI30m53aXs43znKTOIuXHNjhlSoNYo2DjDSWsezJLziKUVPH5ViZsAj3+t+Mi10hF15fQldrrR5urxEUko8WCG+dVo7rAoiwc5tue2eIG7JKy1qlp8j1UVG1NSPLKkaV1MzWYOcWz7w30rihTfF4kOUQ+WbQPDhSvpFV72eQ/+5cUpzpnKcpzlPBlentis6SmpmudXva/Of7ZxnP8AbOM5/tnG0RvHN4XHLWySTXKTOLD7ZtVvlc1NZRGQgZNvICQ1UMg20EkGUTvlhksXOlhSZsGgYDFpYcexV0DJBPAr/lziwUXhnae9JAuoGuaRPbG8VxSFp7aOB/H50zksKygvKx1cVTFRg7wylOc8pSznglsTTZ+1gKysk5BuX5dinskWvlahQQAAaJrhksYJmBShoGsIfhpqqoqlXRVOmrCpdeV4LKITiMmJCKnthtLrqT//AI/Z9NM8eCiykrvXfKnFYpzrflKUpZSl8w2gdlJW/uaHcFFKc2jcWzgulNuXIU7ZqBjkkva8wYBKgCGjIlIYV9bij3Wuy5XyIJVUDwyln+EowbWeptDZZMAPFeaW/mGJW0oF5rPrjQpBpqURwBiw4hYwFUGLwsZ2KLEeKK8kqudJttrye6W8mOVKFkIT9rsZ9xZ25w/uE0WH5o/xYR7Udrl70NGOF5ipUpSlKUpSyl8xx0WplbW+J5RIFuaSeLZ9XDm8bEAt00PyzntdtNH9010Na2xYfMPi2b9sZNy2Slcg8X5Jz5ltBrZyetkqnWTL8tQ4tm8/JoF31JlGBuSX9rsUL3ncG/TxcNA0xC/CiJB1fWSCEmhTENsBokWCyEJlptMpF/mThQyDmQVFuKgUhCb1a55ku9aaClTOkzw2WeVdv7sNN4018iiiukSikSiqVVPtZdN1hsa2znd4lcqYGGEMDVmBq51icOBJhye2IVHNmAeWU+S3VvRbqzCJ12/nAESpf+00cxkyKWtowyJEtRtD8R1I/O1KDfrotxtNDMzIRK6rDB5i31yWRdNvhOdiOAsqkPC2hbEk1L81uEuDKgtxYfXbN82TZjnrE5YvtZj+dU25hzVCIQvIF4tmOy5FWw7n+ODlX8kxHYlmhh9bcxztYag47iXGd103UbeL1VhT6h/GzF6HnY94F3W0TtUqbQ3aaV6GSTerRNyrB8HaXs2SnbRuvYEKUxeLZzujrqwgiGIJyhPazafuPkJjGaNFfHgwakmlhwaBeoPkDfI8T2M5q2WLmGq0Ky648ne8HK/HCcdTtVzCkqcOHbEA5sP72DXkyqs0jsR8tm5DVT3m0FKg6meBixasnjh5e6VSFzgvFsv3FVSoPpp11/h7WbSZdmoXwTEWVedHCTLCnTYBMCWYjRRQm21UZvAUypD+QuFxoLTSDK+5lcomJ2JLaAqThpNM2yFY6anDDDGBazBgWsUXjwp4nFiwLqkUUqxjjQQV1Hc6MTcKAoAnk7jWk0FZRj6OYplMJXTxUlWOpQ8pyE4dnOt1JuIGpMnXlR7WY31iaviZd8+VnTw2KQ5OW87IQ508qn5BOcqZTqqnKUr644bW2kpMIreHDdbkvDf65l8FbrB7rtdZXwsG2LAzZtZDYr2OCCssqaLHiwRwmYDHL8eItEpbt9n4k0U8mjhwYKs0nEuyRZVZS9rMSij1rf1/nc85cOCdKkrYmWZROnOn46qqmimdddUqabxY1rL2nkOngK/8zLd6sZl4bx8+mTU/5dQPFwRYuZs8yUs/cpS/+xSnKqUqqZynLixypckzE07OTTlLhw8KE0u+rBO8rL2tusamdug7zk55z4dnkUkZxHkxpyz+NdL0aLHTqld4ORORid0to9bVtSGT7aIpt0nbsYrL13gmKVcTrFJJXwGB7F11mGSsvc5T/wDrOLaJFZF8Rg40pZcVsDEylymmalPKftY9hJivNfFn+fDs3ApV37PCTl8U53sz2UTqUHc6EtGL3B2hljGlzpZsVKTsOXG2iF63dIUm0QU9ok3G63M71GtWdTgUFc58EEKIAJQMCJUGJgsxahXQTQLZXBUKaXbw7SMOVN+yNcuJk1ToeaBXL8/ax3/5Yt8WzX/XRV+GX3e02qBM05nMlpITvxxYcGjyw5Pea0O89p4BTKsC31sq65vfG9iKe0hAZvTqMqqrKuum6j62qnFA14uG3BC87u1lnS+KTLcaWMfBsDa8tK49rCA9bY40tUUURSLLCQdGJncIuKZOvs3JIDiGBKvTg2k367pvEzP8wQva13/5Yt8WzX/XRV+AU3M20WiYiw4E0hSu4nMP7cnVSqXbbkql/aD4ckbl0kVZZWa3FtPm+FKuhp2sUDNTm2kV8VblUICS3EOh04pMQLwlXQs3UXKQjygfUx6jSkeMGxvHt3a993WXg24w26aVDeHjAYy7azLOi5NRdzuOmmVMpU0ylKRwmUUCgxA8WDMFsY2FE3ZdbrerNKCDMvjaLtcDFcZB2NZSFIKmGbEa38QTNpPBzCJuP+O0m/XdN4mZ/mCF7Wu//LFvi2a/66Kv8Th0mnFRTygbBKlnpjkw5swzWSm8BVsxLaT2KnVOU0F2ylPaTWIlL8ER2zgTaV2Rp/8A1tl3VwPtNbS0Z9HYrrEgxtPmLT/S2uXhIObUMpLPq+zw04O7T94V59XWqRgoUdpXesznJPbDTJyUtoDiUPynIBxpRGSpi8xIq/K6TdpZCkr3aukvznNauM5TshzJk1XMQ0YEGr+DRUNZcakAjICUbUT9jNnQ4FuZdwXrP1I5Jj2/ZltkMJuMduk0gh/Fwt9FdaIdbjiTgT6biowzLWH92TGJUjHGlx2wuY67RvIi92eemXPWLvc1L7scu7W4LIIx/DaTfrum8TM/zBC9rXf/AJYt8WzX/XRV/hc65bVtIzD74eB3mCF/cT1xb8rAs1U+KnN745vttwOtTCRWyinVU/ZzZyPZxzAV7tq1LbIWusjbGzidJPYLWKka+J/sJsXMaagy3enUHEzELYJz2BewreV6azSXx2Mva67EPgu7m2LMUC2NymtdtmJ74aBznyMbSb9d03iZn+YIXta7/wDLFvi2a/66Kv8ADaB3kNvi61VvE43V1L8bbawl27tD0UMdkqB0vanZppxaYKneF21G62Ha+39sU2SSw2mno4Hg3itC071sk2ynYWzDvBaN22VexxlO0rOkXj2fd5DbHurTbtRN1dSxtJv13TeJmf5ghe1rv/yxb4tmv+uirAtcgg6xJ/k9Fcw4HguLpuudY3xTKtXce4xmRVjspXWKrc7Nm5a7MI5cVyJzaLW0wTWDtvMI3/K/8wqJcuAVBoLFQAwQvExD2AbF/wBkiICrTQVVn6xHPbV1qDMd6bWSU+JkrBhvvJCXSlc6Bg65CB0iS/LaTfrum8TM/wAwQva13/5Yt8WzX/XRVg5/Rjwp/wByN/DkE1RVTNJNLIGTg7JwdYiH1zYhC3ZxOLMbZjKAnNmLj3HBAkwsF+HlgTDHLMcJZOEyRNOLUE08oCWA+AxV4ZEa/wC1JmU+gEm7l9AWGstHW64E4YipcKX/AHMpBT+lBjaTfrum8TM/zBC9rXf/AJYt8VgL6K+H94G3kiIZNVMn9pVeg1TWGWarTL0Di1GBhB68uV8CCAOYEkEXBrFrbNhr0PCdM25bBxm6Gts9sQ6/yK1ROR0AJqbMElRyBXxdIYWGjgSw4tSdAo7RHXR24ymezy8irVaySkBfC7S5PIlLwoBwsTBCH4QBqi44ZiiUp1ENpVegrTRQZarTMUX+vkr3/eJZ5raGTSzPCzP8wQva13/5Yt/BF05QNzlSUIGBpp9sbkq05SS7fuM3CZhcxDK8pTJWhcmSRgOxMKuUxGSWIUo2zUvQdymsOhrJtKHsvg5cmpyXcqnCDs3bFpvJqWVZzK9Tfwc4bW5yZlbXJpqtDYzKbFFIbcaKMl0/FbTb9WGv4zM/zBC9rXf/AJYt+NgEtoxLnXGcKU/myUWyhfC1h3KzlMKzzZzKWFskRymVtM0qJk7d2/T8ugMZvloLpyeUlKRUgXBl8i2m36sNfxmZ/mCF7WO12N5jN0863UqAp6W4DoCkvKSiWnVMHxdmTP8A/td0y+T7Tb9WGv4zcPAJjhS1I1OqQLTdjefLdIupqqgKgl+1J06UTSY6gfMhly2L3FAoX0dVaA3jIoDL8bZk/qw6Pk+02/Vhr+PhBxQqFjHTQ33EaFHZZI4UUSYCgQMhmC3tRtC8RQhIGVimie5Ivj7Mn9WHR8n2m36sNf4DZ6YihD4E7FO4/wAob2nvPc1Ms/bVcf6nyaocjhVnYvqDmXjdZpR8AmkKyh+KemGzMTlOU8pyynw7Mn9WHR8n2m36sNfilKc5ylKWcziQqp/4qCYbLeC23CrNJwJznQTdZVRs1cxMu/bVDf6XyaZe020rurWeX0O0KaZnzHHYDBBca8YJdyOCuprNm3GDiwVtwQqyjKLrR/q1OTU0YunECxUJR/uBri2ZP6sOj5PtNv1Ya/Emf3IpE01OUk4IuokCxoK4+DiwVyARazTKLop/EBghuNZwEw5ECup0Njj2al1ayS8u2gUjM+Y9pRhgi4NY44kqA7zvoe5V1HQ9hhJ108WCbB6UXixO8V1EyQxGmmmimVFFMqaYO/0Y8KP9wNcWzJ/Vh0fJ9pt+rDX4kz+5FIJ/0gH8K6Ka6Z0V0yqpxtYPSjfLnLxWrTJAkOKyz6HtrdVrvYESdNAQoY4VA4Ncqw/aTEo662VYd7uAETmxuLCfZXtvu8noKgDVUhlixcmXCKFAaAQP4Hf6MeFH+4GuLZk/qw6Pk+02/Vhr8SZ/cikE/wCkA/iZLFzhYUmbBoGAxX2W7ELuqCAQBqpQ+LDa663rYlkOEYTnBvaTaGq9SbhzNE6K+TPi2bLEBRbTqz6GBl0v+J3+jHhR/uBri2ZP6sOj5PtNv1Ya/Emf3IpBP+kA4NpOxAVm1CQ+wQZdK4tnmr1KWHImTrr5U/aTaYD1UWbb4Ep/hxYNyIJDDSxQwaZS4Dv9GPCj/cDXFsyf1YdHyfabfqw1+JM/uRSCf9IBwYySIJ/DQ+QxqZT49mgPVXZlfBnP8PaTaVEqh7II5ymWcuLA8uhLmGhpyDrlOv8Aid/ox4Uf7ga4tmT+rDo+T7Tb9WGvxJn9yKQT/pAODHGuhIeGh1yEqlKvi2axKoCx6ubqllL2kx5IFa5hqcIoVHKr4tmbcwGkNy2lPmZUifxO/wBGPCj/AHA1xbMn9WHR8n2m36sNfiTP7kUgn/SAcG0yuYDVS2rSkDEqhOLAegVoeGpuiC0cmv2kuq06H1bVzs+qjlTHBFLDCFx6J0CcNsrgrlrH2jv1vCck5bG47auwyU18tU3IYl/A7/Rjwo/3A1xbMn9WHR8n2m36sNfiTP7kUgn/AEgH8bn3IbVpmSpPp1GpBErmXBXLpvpYfjiE5RzhAAFMjhlgKJ1iWsalDFts2GfRRyZ+0uLy3NVtL9uZLCA5sjxYasS7pw9OWoYvRWoty2N2WJd9uBOZiLoJ8vB3+jHhR/uBri2ZP6sOj5PtNv1Ya/Emf3IpBP8ApAP4XPuyw7PtwVzPtdBIl8SmJd04hXLSOZprTm5xYQbc1XLv42kwUvzhH2m2jdoq3Rb9PukklZ1nuNmPx427Wg3CyXEdR1C3G0vdaYCERucyiy1SQ2iOHtVIVyPCOFLGOCUDHBxg5508OzJ/Vh0fJ9pt+rDX4iQtAB0uMJPKhQ2iWHtKI0SIiOFUGuPtL3YqAikbYsoqi0vN9vC4a0I4Xs4jqwocezltFW1rfKF0VYryD3tMtoqa40Y8gLJWgyQvzaJWslcxWYyjTXWX8fZk/qw6Pk+02/Vhr/AWEtCrXtualMdPproLIiMmt1HJIKOVoLEfafGFh1CvswJmkQvRJ2GyhkgaGJHS4gBjxtmT+rDo+T7Tb9WGv45QoaPmgSJIuIOYwfYdQbEsCRlaL0TdntTjfwiiOmk3eO2SZylecp0znTVKcp+Lsypy7WXRL/5+TbTWqU7tNin/AOfFlKdU5U0ynOeCDCKI1aCl47mpvJWPavFtgeCd4hy5VnSIQC0eInUw4MnKRQYqa8TZqHJA3uWSk5/j8m2lRyQ18EgrKf4+IRIHVQ4AnJpQY0awk4HgmeITuVeIiEOt+1uITCRbq/JcRTGCkiOi8uHC6djj9YTvQaxEzw9n4q0puJNKL1VZS+TbQFVpUsSauBRVnLw7NYb7qXxP0BtFBrCTMPmEm3VhiwakAFJbc/tefTyKoTFT1MkAbK3b2e1pXzWMqMYcZnKdxMC2IBh1ijk22G5iCshrSCaqIriQdTjPgYYHBS2MQLEVhBOQH8mxOuClz4gH2rhicsPwElDWl81SRQ0g6ombd4FsQD8rCGOtsNskLSbPa0jGrBVHwOM8VMiQIpZMJPTCYBQr7ZrLbbzjLzKuFBT1MFcwk4cnBVUIetOihVmsAOGgzXOqhqqReMYtmW3ZC7IbZZ5YyCjcKUoDpCoTVStXJGa64XczaSnGUqlUD8kdK4XbDZVnIbqlSCqKA6spm1U1VyhuHBzZht3vuwK2ngWMjIxTAFhoLVyqraqkYhDwk4cm/VSIRtOii1ozbbzcLyKt9CT0wH252n7WnzjHeodH4cWBp70vTDq3whBeWa+SY5nvSzMOq+CGLKg1xbMBrT5T4eolH4e3mPhnTdeHVWPAhcsfi2Z1xJJzuclsjg+QfyTaYXEkpO9t2zJj5h8WAlnTamHVIOjBcgf28ejaKPJoLTTPUyqAWko4grB5DUA5hmuGz1wDVrbmt1+FZ1QmqJNXTiqqnD0jFfkSmok0dONKyiPSCUvBcA3dK5jifhudXEipJxeWSKGnhzENMxtlGc0UVpkaZSA9vcdtvKmJiAVjxcCdBHi2fl36X5aSbGUzXLV/kW0Eu/SxLSyYqYa5CtxYEbeVPrEAlKBgCdZH2+2jVspui1JG4BAtyznFhjvGPZG7aS6xRa5JJU0WPFQTpMegYD5AbNFiBUY8cHoBL4m7xj3uu2rOwMWvqri2c1spta055/ny3IOe3zsbSY8mwqtNZBkKRf7NVLevVaZKzROk5xbPm/1LyaFdoHIdzWfkG0Hv9SzmjRZ9tnclnit+zFS4b2RWQjUTqNtRtpjObKW1EYGQRH2/2ktnZkldJvQjlf8Ap4mC+HBbZ4Jb2bBqZdRs3ddu3oYCa+26LKVHx15bsN2y1v1J9OISU6X691+5DvVHs5zczCjxbNqzszisrXoWCv8A0+4F0repF1GAtsJbpl0d4NRZYzpVGe4C0wFHiwoYjVCwL5lWfrFHaqQrpi+llFtFPAnCHxiwrpjfSja2tHgSZDFdiNUb/PqYhGsUBrcTOaay+nUlM9vlpjqNrrfI9rGAiMJDol0b3B2jFhqjABa+bbJZ18eC3FtXatQCtpcE/XU0QBwTIIZguLQKF8UOOCVBEMmRqAgsaOLWu6qiLbW3x6ulo8eznsNMsXM3zchLIT3CXkNKcyKeby4TDNp+IeyytYq5agzztIgifx4PcZw1uqytsrpHhB2wUNlVAqCeImQjBb4g4cKJ5UY8fMhFy2MLGaPcas1bO1x4QBr8eHeyqtfW5ZBnk6RA05CREttIxFvohMMon+4eKnD+Rv5boZNKhhBONUTFBFUTSQrExSh3jwt4yXJZIcBpuzpCyzGa9WtcFvFXSzlosqJnwzzezWt63jTqeK0WS0zFJjIcl7jAzUafSEZmcaWlqC2pFUdJJimzuFfD+QsHboFMM0BCuP3Fx6YXKnEUMXtYSdylPwLMX6uJYteksMpVnItYHFtbS+pYJPLm6URzfCX+xb20sUWGTxzdK25rzX5uJfRemsvVVnMv4GAzC5U3CYF7H6nclU9weVT+6Ucqn90o5VP7pRyqf3SjlU/ulFfN10zor5NVONnCfXbdUMXTt6nzqavgFzBgmOGaKDiAjWK2hD5Y9Jdv3ULCupHthey2V4U2SiwnUUP1fAXPvZbKzybNRfrqKEKr67Qd9Pmkw37WFhWqjGDBg2OIaNDiDDeBglwmiXHUy91Lgp1VLWpppoplRRTKmn3Byl9Iyl9Iyl9Iyl9Iyl9Iyl9IUk1PWE8ylKpIE2TxeYSVKyisK8WcWGOMnwUhZV0BQBVkNTNJ521G0RuszpAptwCRd4J1tcbFgrjyCL/zVJvKJU2VPF6DZIyEYA8I0bKES9Zs8ZCLgXKxsWCtxSKXk6ZOJRuvtEbrvKQyawCRdnpyssKy+oDKy4pmlA74OEPCQpXqVgnk8iwxRkpqaQR08ulJRMEoT9ws5/tnGc/2zjOf7ZxnP9s4zn+2cZz/AGzjOf7ZwrpSYvJhpFWk4E6QxZ4OFez5sw+WEWMKDM8NmXWuVbwaQzJfCyjwzdovfVvyoBcZZDcoLZ2nTNM00UO+2iuRrRcf2GxW5MjDkU0uohizw4qUpTAu6g0QDiGsUPKVQV3GnVIbENYoCU6hbuNOmR/FnhxTZTmPd1Brhax/YbEnlSLORTVKnNtO2aWlXQ0LaK56t47Re+rglWC3C6I2gXnda5NwxpjPZ7rKx4mEvBsrXgNFny/iw6ezElJTEFMKoyKQAJEfcsyWLHS4pM4AGOBjYwioNriIt2bfGAyiH8gwT4RUG6BEK7NwRwziGWLFyZcIoUADAA9zdob/AK3nfkOz0/1uIe5+0N/1vO/Idnp/rcQ9z9ob/red+Q7PT/W4h7n7Q3/W87xtnCjeF8WzI3SZCMAuJy0hLbcPiJbgSDqac+ARUFbcZ8NLb6OdUjjnwo3gY1szt0nujAIadxbPT/W4h7jf8vpKP+X0lH/L6Sj/AJfSUf8AL6Sj/l9JR/y+ko/5fSUf8vpKNoZnu3nc5S48A+e7K3spSh3sBlP4jNNejTSlou/9nNZpyzFNM9QVWqZeuzivYgTrGaikiOUB2WHvKx6qv5oto4CVFYdYVcwxKKqKvAoDrFrkGHRVXU07DXlfE6f5Xto4DobK2cV61+dAzsU0Rsl2Bs5rMNqYZp4KCs6jLRYDIYJGSay2olopfH1/rM4OPZ6f63EPc/aG/wCt53jwD/6yt7g/P8Jw4bZ26dlNVLmYqCqQuYLMNK7ypi2zKE61TZx4fzucyJlzp8zezGtoJOcyNxnKBITZfNSc/wDquyrUyD2XzUlP/tuyrVSKbMa2gc5TPXFco8kvZx4fiWUzxhzqE0PBbhpQeTMG2RQ5W3raW7adNNLZYqClx+X4S4MfX+szg49np/rcQ9z9ob/red48A/8ArK3vg8fX+szg49np/rcQ9zX5fW0Vs6K5vV/pCeNcDaXsVL5wrbhlqK4NenFtdy+SZW3nQbTyaHxYB/8AWVvfB4+v9ZnBx2WxbXcsamUN1sG084h2/wBpexFTmytx2YooYzDvraK5lFE2U/0hQG9s86v2xnV+2M6v2xnV+2M6v2xnV+2M6v2xnV+2M6v2xnV+2M6v2xnV+2M6v2xnV+2M6v2xnV+2M6v2xnV+2M6v2wILSCHUKLOmii4GLGwtt+cBXX+RNHLgbTf/APYVthbyLgYr793I5wFduCeKkxBBBq6hRRKq6/A2dl0GutWnlbEI1zK/8FtFLoNZFtRO2Ahrnl/wAxBARKRQhKqK7f4sL+W35sFDuCeNE7f7Tf8A/WVufb2Lf4r7CXI5sFCuCRKnAxAxaKRQq6a6Pb9TVUtFKVqCwpFSJW4GOXD2xOcLgOgRxnbgbS99qnOlbcsxOQwX5fW7tzK65vV/q6gD4jAfjltm7k56tI/UVUrEXsbd9mEUeKDOQRjOf7ZxnP8AbOM5/tnGc/2zjOf7ZxnP9s4zn+2cZz/bOM5/tnGc/wBs4zn+2cZz/bOM5/tnGc/2zjOf7ZxnP9s4vxe1t2JYJp4L05CmX++3Lct3KL1dp+o2peIw763etnXRNlP9XTwbf7S99JfNlbjstOXAbf45cPb75suO6RG4dTFVLWilCgjqRU8V9uXS92cyCVSi8HQloxe4G0Psc1OdLNalTdhu4G0XvS5+cLM8kltQq7bgvl+nJn3m7VZaG+Aw635cFgn8A5U6YhhKZ7vb78bKe7msoBnUvxni72+wmyoO90qAZJLxE34cF/X8O5lKYhdL+AaNwnywjkjzLdqsijW/2i96WxzZV4Ekt1lbf7Q+xzr5ss6aVNpm2u92c9iVKi0HQlrJf2zfV6LVW1CqEe78R0uu4G0rtwj84Vt601Nwj3Ax4Ygnvzhcg4C7YJLC4tOA7WpLyucUTfwmC/FCNZhzSZbuO11M0EwCYBoMF65Chcr/AMzjlf8Amccr/wAzjlf+Zxyv/M45X/mccr/zOOV/5nHK/wDM45X/AJnHK/8AM45X/mcDGASwIhgwJSEFjPxQjXnc02a0TldLN+ER1xabx2hRQVc6mm7f48cQTI5ouoL5dzkrf7Sq3CzzRW4TUU28Oxrz2ruUFSIyH4jqtftNypfSccqX0nHKl9JxypfSccqX0nHKl9JxUJRRTOuufJpf+KOxNtecBclwk6s3cDabkQucK2xt8KPO4GL3EBcXnAFV+m04mOOOZFqHMjVii/EYDMU/OSK2NuCo/wDLxMeeKfkyNWNt8o/j8QAOOWFpHLDVhC2/xfYgLdc2Alv02ok7f7TcgLzZS51vhQJ2/wAUNiblSDCbdw02g3TVTXTKuiqVVPtKeUCCWVrOqZ0uUL3Axs4e2DzgFTxkvHbgbTJ2n+cK21YxFJDf2IO81zaq5PG4KsbL/BSlOc8pSzmwMOV7LmTDraVvFUYsgbM24BlCNnXI+kgiqONvLLSXTzacSeKRUuIuOOVHDNFhqwhsGeKAC9bXk0nWcopefhYzsUAFlWvNoNM5RU8hxxzQ4hkyNWKNxNxurTtXSLabqeKeUnBszbgFkMqdbT6SDym/8Od67Z1CVu23qqAWnKcp5Tl8GwcQd5rZ1USZ1wlYoXt/tMnaQ5srcpikVYO3+NnD2/8AmwKXjJBOkVAgplaDqadANl/Z9xu5rM8jUpOtxpqQVuBtBrDtDnSzeMqDrOXA2j14HFzhVkpCU1izyubcK4RqZt7PJXWa/gixYycHoLFC4g41v8HGIK4fNjkWKYSSVv8AZkoxbmzVzbgGDlTAw0WOtnIMRrW8S6TUpSplKmmUpSjG9hapuihCXMY6fKbsqpqoqnRXTOmriZbycVvnQnPBqqFZJTw9X1b1/GCXdKVOgupeBiGvs3rBsEw6FSdBhSebxcNwHQovB1KFZ1U4qaaq6pUUUzqqwQ4WqbWIQdy3wnyk7InKVUp01SlOT/wz2OuZIQR028TKjVwNmSjmOdN2yuAYJ1XAwc4grec4OfYphVJGSxkmPWWNlxABvgmbc24VvTUjbJeaujV2/wBo9d9u82Ve6OlOktb/AGg1h3fzZZwmVBqHG47Ws8CNKk1XEmq5X2ZW19DbScKrOFYJJhK5u0NswzZikWcEdeB+4uP6/L1mKWQVAm0yK65HC5z1ak5Fw+qG/gkRvL7mPUJrdRDyobt/gHv+9eaMKyOUaxO3+zYteh82af7lVHIYZFobY23BpBY7GR0ifFjwwsfy6bM3st+nZJfHYO97ksM/iruRKqxibEfDbuQ0056NM/QbTOJ+Plt22aai9HYfpKJl+73OS/D+NO9bqqBKceA/Cx/MJstey4Cdmmcmn6RyKfpHIp+kcin6RyKfpHJp+kPez9r7jg1Avdio6tO4GzYtguc4aYDmVG2YuBgHxAMrnDCUjFHSTW28vNo7WmuJFPJhv4JCcjha56hSba4fSjdusf8AfllTCLLx8m7CNstoZZh5TCIvAM6zz6IvIblTwlZvK5NTJeyj+ucwrXpFS2/HQRRyt39pQZFmOk2XbUgaH3c+4FzFKaq+3aorI/wTOts/7gmpE2SzlZZEt/s47xOTmzT1VUpqlrf7PaxLR5sy4wVF2G20z2ozSNKa022mo5XwT5AkqETCapFQjJTF7hnO2IeM1RCAFGZ3Hg5xOmbHOyTdcpoQRmlDRY8VBOkjAY5fgNmypAqMeOmAwC+MXE4Zvk7P5ebRoQNm8eELDMdvu8JKy8XFCZxAgSSyRdNTioRYr4LlZzTeRGpNdjbTVgrcDZ7WJd3OGW2EotM3cDZx3jbfOGmWqJTqKvC2z/t+amTerOVkYT4JiXPuBbJSkqsR2qKMPaDaUGA5gJN6G1IWhg3NYV0EilbYboIrBX2QczpbjMRjDgda2TSk6+e0cqzMN+xqbKUnW8HS+VgZfeC+eV1D4FhWAvJcyqibNt8rnQLf7M54qPNmrkvggjhW/wAEWHphc2PNodfnSCcnpRWgilkC5Mt4txbfNm6LOUWQ7SNJlOvlZhzWMfpxmOEOoQLjwG4p+rhitjrgqORXgx5Yp+sxjVj7fKOZTjsbZhzX0fpNmN4OoMK3dv2za9npzIaRGksneKoJqcrFayKoQLnC1wMEWHt+84Yk0Zt87cDZnPJO5w1bZ8EFgJ+2BvHbOqubyt8rkgPgWo8XUxlgJfZ6+eSFCxm0cnOZdv3yTZZNp0tx5I5dwNVbJqqd7G4h8advbKyMN9DqDcrruxe6496Vqaw/HAKap8cEEYwLSAAFWIJb/CNf+43NDpDBOECdv9mQVo5s3c+4VYs7f4WbEW15sVu29ThTdFFAdMqA6ZU0/A4j7BIN/mEM3zkgyyy7GqvMhxqDTc6eIRU+IMQQESkUISqivBRijDu83aWA8z1P84fwxsYow7RN6u37LPU/zgIIIKJUKLXVXXxNJqL74cie02wniHlTDjYNAsCwgW8SkGZWPga6KBKZ0CUyqpuBhZsPcrnBXFb1OCOXA2ZBWvnTVsLhVhTuBhGv/bnnRldgHD5MYEUuLUCOFWGJ49pr3XHsqtSWGI4BStOHjGlb29VJdvrVQbbdfsUuryK2Eg0vuJULJydiXx7rbwqNsuzI5hIRK66xa6hBa6q6/FSUVYXjlCchpRxRNW/wJYg3zzZg63QGySt/s07dpHNmriO5TcA7Fspai2gVNDIYSOmCfDY1cLgd4G5U/GaRpk8RQhARKwRg6gxOJquldZTiT3W2VAQip4bb/IN/2ECvFZhllvEnf9CsAwhl0zMIyuOl0Lr0cJ91OZQFPKfEEEKOLQCCHUIJgrwuB2dblL7eJKmbx+Gfdk7T3LDqoezCSFMS4GzTt4r84at27lNAGuBgSxBsbnDBJuAOUkrIqwgnK05cSjiea8UMSsKukUKuqivDRj4W2hUUZd5xzCsiIS8iudIKrzeVCyinew91rtsizTVGdr4VaSpfERigfWIBZqpUBa0xt+I02C932ckQZrTVVoe3+zqvY6ObMu40ltQrb/Z3WQavNmXWKqOw21WKzGMSkns5qpaMX+Kx5YWOhCmr42+Tci/HZC8rnsa/Sb1bgkxKL3Xkc98X4cerkEnRTx4DMLHSxCt8bgpuYHxTqYjLfJKae8WqlrJe4Gztsg6udMtQZUaZu4GzrvY1+cMtIylusq7GC9mIcmQeTUVUYfxMO2KF9Yf1mmkgLWptu1V2mTeRqgO1jqtJot7C35v6y7BtOpecg8jChd+8j3va7BnY9FGYtfhMi2VwLknpJzFaKmsjW52a1w1qQRy47qT26Bb/AALYe2LzZg02RXIdS0hJQydCeiphQgV+NNFSx0sKTOABjgYyMMJmyDrm5mwVErZnjYNsMJi97qk53QUEoZhYsXJFgiZQAMED41UR0lcJ1p60mFD5W4GBbD4+ucMFW0K2ztxtmtcNFkKctw6k9xAPe2dwLbnppz6aKmijeFZ+8r3sk7AXWy1GYdVh7+su/jToX20PIA/7B4gL/NKwLNrcC5XSaU7nXOd93Hcbeb0UqjR3wbQYZ7u3rGoEaLaECTLR7PC1jNpBUriGxXepoyGit1PCSUBJJppL5C+WQ3LjNRRZjsT6DiZf+xzjsM/jLSWaaxyXiYf7HOO/T+LNNGprAIsdkty3TVTma1E+gmmfIVlDRXGnipK+kk1IldzZ32seVIynbs2M0FO7+Gi7tlB663e2hBUzwbYXPd9oncUebLUqip3D/f1pX+ZobhQq6Syl95iChgh1CjCU0UOK+lsm1VUEZcYZsdSxbIAVU6UlpnzEhMXSnOr/AKmUVlTvcrHosnG9yseiycb3Kx6LJxvcrHosnG9yseiycb3Kx6LJxvcrHosnG9yseiycb3Kx6LJxvcrHosnG9yr+iycXaZ67eZ5m3q8HmaEMbu6d6nMxu7p3qczG7unepzMbu6d6nMxu7p3qczG7unepzMbu6d6nMxu7p3qczG7unepzMWqtjbdgKvXToa1LyMFcV54kXDKE2GnAAb3Kx6LJxvcrHosnG9yseiycb3Kx6LJxvcrHosnG9yseiycb3Kx6LJxvcrHosnG9yseiycb3Kx6LJxvcrHosnG9yseiycb3Kx6LJxvcrHosnG9yseiycb3Kx6LJxvcrHosnG9yseiycb3Kx6LJxvcrHosnG9yseiycb3Kx6LJxvcrHosnG9yseiycb3Kx6LJxvcrHosnG9yseiycb3Kx6LJxvcrHosnG9yseiycb3Kx6LJxvcrHosnG9yseiycb3Kx6LJxvcrHosnG9yseiycX2uKk38ZlTUczLKlh93dO9TmY3d071OZjd3TvU5mN3dO9TmY3d071OZjd3TvU5mN3dO9TmY3d071OZjd3TvU5mN3dO9TmY3d071OZjd3TvU5mLFXGSbCMyhpthllTI29yseiycb3Kx6LJxvcrHosnG9yseiycb3Kx6LJxvcrHosnG9yseiycb3Kx6LJxvcrHosnG9yseiycb3Kx6LJxvcrHosnG9yseiycb3Kx6LJxvcrHosnG9yseiycb3Kx6LJxvcrHosnG9yseiycb3Kx6LJxvcrHosnG9yseiycb3Kx6LJxvcrHosnG9yseiycb3Kx6LJxvcrHosnG9yseiycb3Kx6LJxvcrHosnG9yseiycb3Kx6LJxvcrHosnG9yseiycb3Kx6LJxvcrHosnBrFeeOlxCh1hpw4F1bY24fyrJaazXpZpjd3TvU5mN3dO9TmY3d071OZjd3TvU5mN3dO9TmY3d071OZjd3TvU5mN3dO9TmY3d071OZi0jQXbMPMo9We8zQZje5V/RZON7lY9Fk43uVj0WTje5WPRZON7lY9Fk43uVj0WTje5WPRZON7lY9Fk43uVj0WTje5WPRZON7lY9Fk4DxdKcqv+1lFZ0puLZvi1U0qzTPl5N2+dsnLVSCWcYRQcMUMYOkUESmuj7inOUpTnOeUrk4jm406xUps0ULKm77mPV8DVVr62MID7FM+5j1Y41NaAtjBg23xHNt2VhJTlooRlOU5TlnKecvt82bKkCop06YDAL3jv8AKDsFGbrRHFJovsdZy/yg0xQG67hxDiKUNlj5UI6SHDHA+3fy/GcYgrwCOdRFZreNTkkeyGH28AjYUAma4TU5pH27iHuNWzGpJGTB+QqeyWHm41Tzak0dTH5ap9tznKUs5zyleB41vZ+qSpSLOop7JWeeNbJfyap1izpKSnKcs5Tzl9tXXcFTYt4uK4dfIG9lLUuCpz29Q1cSvli/bWKlSmVt+UIUzy47GWUDf9VbicUxKEVLZTRRS1JRLbSaXC6iRPJiMdRInkxGOokTyYjHUSJ5MRjqJE8mIx1EieTEY6iRPJiMdRInkxGOokTyYjHUSJ5MRjqJE8mIx1EieTEY6iRPJiMdRInkxGOokTyYjHUSJ5MRjqJE8mIx1EieTEY6iRPJiMdRInkxGOokTyYjHUSJ5MRjqJE8mIx1EieTEY6iRPJiMdRInkxGOokTyYjHUSJ5MRjqJE8mIx1EieTEY6iRPJiMdRInkxGOokTyYjHUSJ5MRjqJE8mIx1EieTEY6iRPJiMdRInkxGOokTyYjHUSJ5MRjqJE8mIx1EieTEY6iRPJiMdRInkxGOokTyYjHUSJ5MRjqJE8mIx1EieTEY6iRPJiMdRInkxGOokTyYjHUSJ5MRjqJE8mIx1EieTEY6iRPJiMdRInkxGOokTyYjHUSJ5MRjqJE8mIx1EieTEY6iRPJiMdRInkxGOokTyYjHUSJ5MRjqJE8mIx1EieTEY6iRPJiMdRInkxGOokTyYjHUSJ5MRjqJE8mIx1EieTEY6iRPJiMdRInkxGOokTyYjHUSJ5MRjqJE8mIx1EieTEY6iRPJiMdRInkxGOokTyYjHUSJ5MRjqJE8mIx1EieTEY6iRPJiMdRInkxGOokTyYjHUSJ5MRjqJE8mIx1EieTEY6iRPJiMdRInkxGOokTyYjHUSJ5MRjqJE8mIx1EieTEY6iRPJiMdRInkxGOokTyYjHUSJ5MRjqJE8mIx1EieTEY6iRPJiMdRInkxGOokTyYjHUSJ5MRjqJE8mIx1EieTEY6iRPJiMdRInkxGOokTyYjHUSJ5MRjqJE8mIx1EieTEY6iRPJiMdRInkxGOokTyYjHUSJ5MRjqJE8mIx1EieTEY6iRPJiMdRInkxGOokTyYjHUSJ5MRjqJE8mIx1EieTEY6iRPJiMdRInkxGOokTyYjHUSJ5MRjqJE8mIx1EieTEYVGU0FotUUVG0mmAr52VoYFdDibsxBEXiwrKVRq3xohVVn9t4uKqpITeo/wDjitCTLEbZtwErTKVHsNd8mWPWycYJqmU6eLCPVVNBcFH/AMfbWLQvOtpIpqUuOyhjpVq24Jnn7D3rMdFtW4xM8uPCWXnQ0Vk1OX23ijLc9bSgbL8eLDoZ6RaZKpzz9h8Rhno1p1WmU8p8WFwtzNs6hsvtvEWW6TaZWnlnPiwtmeetqIDn7D4pTPM21DAz/Hiw6lujWmSZ5Zfbd6S/SbWOQPLPjwlmeW01orOfsPi1M8hqIhXPjssX6Laxth5Zfbdwy3TGG4S2WfHhFNf9blJZ+w+Loz/wbRPPjt6V6ExG8Vyy+21sDpSMfKzlnFUp01Tpn+fDhJMclyrxXP2HxbGOW5kIrnxUynVVKmX5ooHRUciWyy+266ZV0VUT/JWA6KqnS05ZcWFczzNxjJfP2HxTmeeuMXAz4kgDpSsSLSlnFFMqKZUy/L7bfpbob3XyuWXFhuM9HuunUTn7D4kDPSLrqVMp58TALdMfLfK5Z/bt5S/RbouQLLLiscZ6LdZu155ew98DPSrrOKvPPisyX6VdJthZZ/buIcr0a7KzPLLitmZ6HcJuGM8vnWcozlGcozlGcozlGcozlGcozlGcozlGcozlFVdFFM666pU0qt2LbooswFB5JtAhC8lr1IWQJV6J0qy5gubBpMFRwxgvndyzPTLhOMxnnxYdy3Sbso88s/t3FCW5m50xsuJuGOiOFLNZ5R+f4/OcpT/+Iyl9JRlL6SjKX0lGUvpKMpfSUZS+koyl9JRlL6SjKX0lGUvpKMpfSUZS+kofj7QbeoQi2tiQ/wC8LxuAZEpOnqyad/Bm3EdrEOUmm8rChB2quyjXNTKqgaZFFT5zOeUs5w4jHS3Apms8+LC8W565vPZfh9uYsy3NvFINZcQNcwhaBZfmQGkYIljEp5y+xKqqaKZ11zlKm8VwDFwHkaOUjVTTuBnOtTZTjJuJKEnSKiK5NfRya2n18st84UBpFyBkxOeUha5ii1iT/PhwmFuceCwanL7dxdFsjbbOZcbLM9MZ6Gazz+xbwOH+WbbrilQJyBuLDMqiqNsASwtc6p/OHqZ6Gzlw1nlx4RS2ZpyHMvt3FwX5SA3zeXHaIz0q2TaGnPOf2JizcHMIqM2QhMquLC8niFLadJEpnKXzi7xnolsnKNKeU+LCQX5LfXzeX27irK87b4kZy48P5npVpkOeef2LiOcHXdzjhaivlBcNNNVVUqaZTnNgoNLYZaMhSpyq+cYgTXRbTLk88uPCqV5q3pwxl9u4lS3P2pO1ylnx4YzHPWtBDzz+xFA6CmkDKiZq5IS0pjLSweVzE5zF4bUN/wDma4aGk1UcoL5zicMcza0YLPjw1luYtSRrnLL7dvsW6VadwU5Z8eFAzzjGUy2f2JiAcHUFr1TkV8kbiwnt/pTjVnILRnR85xYGebY6YVz47FFui2ob1GWX27dMt0y3DkAlLOfFhGM5pbjJ5/YmLVwcsyhtcKv8OLDW3+praFzwgfJF+c4uTOSY3CefHa4t0O3LbL5ZT+3HSX6W2Vcrlnx4RjM6VZxFM/sS+Lg/mO5y0Zor5QPCTKjHjYBIvTyhW+kgoKEnogEpSD+c4uTPKV26Uz42uX6I2kkpKWX26ZCkMXFBnLORsKYBsYGcsp8OFA1zT6Ui2fzF2XMZDJzocK+ACObxXMQEWdBVGWDFCLiatoqi0gnBj6ZUmKqYtE6FBIPlzhbxnOshN5uKa4NOUqTA4powKaHqnUJw2Gb/APMNz0gKujlA8SmrJiKTrUFdQLkyy1iatolC1Akxj6nUUxXMQYWVBpGWC9DTuYyHtlQ3l8uMP8wxXGedfacWz4iYUxzYAEpZzLhyBLhBS/L7ddpfojqWSuWXFhkMcxdMuHnl8vGGBLhVmDAtAQV3MSNVUxm7bsfKkcwOaGrMGRqxhf4Mm4DmYCnSot8/VRTbi4SRcdvULSb/ANQ3i4mnB1RbitNDr5IvFhKb/wDfHQJRw5f/AOxce4KRbhv1rKlPnRns/wBzP5TqUXAfrEp/gAYHKjUGSo1YIto8SFVMwW7cQfOQIwJgKgcuLQIF8uxNGOfumYDzz4mgW6Y60Yrln9v3XLdEuS5QMsuKwJnot2UKeeXy50OtBZqSIsuFQDKlrrXwXrhjVppKdach8NjXwMyn4SmINOkh4uK5wdMdaY3Q686OKwzf/l62CQHXRyRuG+L4Ger8O1BjTqIcNqb4L1vBaE09MRRQ2u60F4pIay3lAM0W+W39M9KuyvTzzlw2nLdLuU2gMs/t+/Rbot2F+nLKXDaQz0S5jaGzy+W3PvC3LbFJhD1yOqz0fTjfqtUrOE7MWriorqDrpEonOVTfN1n0FNPCTzq8P8vxnFzl/wDmd/LizTXyg+FvpIy8up6KBKcxCZUEiUAJF6eSFwOE3WnoCmfDnlVXVVXVOuuc51cTKfbjYKtSrN47MKdsbwNy5JSQQFciat8su0Z6XctyjSnnxWELdKuyg05Z/b+JgvzF1DQmWXEzTPQ3ciGs8vlc5yplOc5ylK7mIwoic83WGKGaPnjxxSNin1A0KZM8ZMqMeNgEi9M6hUonJOSyafL8vDuOvybDFW1uVXJrnOc55znnPhw1t/rm5Zc6IHyguFWJSUko4nT/ACNlRiRsYkYonSLxkTxxMNhH080KWM2jxGFFvmW8+xQyp+U5VSlOU5Tl8qeJnpjtWjWefFhmL8/dQsJln9v4rS3NP4gZy4iI0y50uPKeUwRJCghiy/L5QsrSU3k4ZWWjwRQpdvECqvKYyE16hU9F8HDdbsdxumh2HgJ9W+JiscHQWcQb4deVfFhOb/RW6rOUUPKvixI27HbbqrdZEvPqzwbSYgVVnTBQnTUKoIqMtJTgTgVZFPBGynygcSQIAgs/yOjTMHTA855z4cKRbnX6oGcvt/FwW5K03jeXG2jHS26lms8/lFwrmNq3Kb0tZM8szcO57luOo9KVzHNFPBtRY5duEMGpqEhE9CQUFKbKSXREQnQWJ+JiecHW1xJJQYnKC4rTt/8Ali3aGlVUckXiX0FJc6SYRFsnQZJ3Xscu29GEUyEhFBD8G3dz3LbhR6SkGOdKW+uY2rjJvTEYzyDPydzGOiNxVNZ5ceEctyllwm8vt/F0WzINs5lx2xNdMt22zGefye7d/wBJZchkNtVBKK2tLis4lIZXWz4ps34AQQo4tAIAdQglo8N+fMuO4YH4AghFwqAAAqAw/EGFDLg1ji1Spodq2I5HOqLolWc+FgoNTneaMhSpzppppoplRTKUpcYwIRgKsAcKgQO7mG+cuecdvAPwFCFAFrBHDqDE8BEXFZuKQKuiHxSZu0l/0l60goblqCTlv5Nc8z0O3TkMZ5ceEYtknOM5l9v4sS3OMpKNZcdjDPSrUt6vPP5KcOlE4qKePmQy5e7mI00r883WCMIWJTnOqc6qpznPwGy1l13qoSM308Q0ZtRY1Ct6EGqKPNqK5416nB/LdtFs7QJyBeLCw3+sXwbXBKMw/CuvYxCuCEIqJ3Npy45WuutBVFRnAniFDPgU1TpnKqmc5TtHiNNJHMt1/DCGSRM4UUCoR4gZDMF/kl9DPRbUOGvPLjwnFubZKoanL7fxPF+etfWLlx4bTPP2oT6Jzz+SPJ8NxhpNSu4T1INF0LxuK5BqYAlVRJI8G2VoXJck5KsrRMmlMlhNtgJVKW3yUg/gMWjg5pORGwFX+PFhcb/VjBGWRKMhPDe7Cbb/AEqpLcBKQkXNtC5LbHJ1Gg5m0vwbX3jcVtzUgKKqjyQzXu3X2k0q7ePUjUfI8SZno9qT9Ep5ceGEvzNrgxcvt/EGW6TaZb/DPjwrGeet2aL5/I7q3uQLdg1p5WdCgtup2r70VhFlwqFZkx4EpTnPKUs52jw6nV7mXC+QhSicQTySWTCT00oEWLfAYhnB17c9RDor5QPDRRWLXSGHTOqpkoVDZaKQg005T8Q+nkVUmMnqRQIyWu5h1OoHPOFjBCnE6cpynlOWU/AaruX2WrBrLeP1ljFqr2oFxQaE8zOhPW/kWKkzzVuypfPjw+lujWmRPwy+37wl+lWwcoUpZ8eEgxym4vFc/kIggYQdQotdNFF3MSFAHPNy3g8qxBxxzQ1ZkyNWKL4CQjqi8ogpKMRFNm7SYfEtoyBXnZSEoLPwKqoAJKWbVTM5SCVFAdVUjaoZqnMXhs83/wCZrkIadUHywvHu3h8THdIZeadASesK6OpoKgMlLBEUob8AAccqNQZLDVhC2jxIUD8y3LhjyoEDEDFDpFCrpro+QYtzHJbqAUz47Pl+i2wbQWWX2++C3TGWvFcs+PCKZ/7nKTz+QONyojTShVlfUAyhW7F9lt/iCJCTzich+Db+2rluMpyJIhbkl7dWubVt0/o6UBzx34LEQ4OorYKAVFfJG4sJjf59aWXMKHnT8BcW1rauQn8wqgcyduBbZy26U+grZblAeDae+y2wKw0hW5xRQm65UR2JQSygKAZsr8fi6NZmG0Tz42QW6GzEIrll9vqYPSU02XnLOBKJhiVBz/PhwlmeQ7VkrOfx9y7tNq2xKczwkjSk+bguS4KrNSXzk6qfBtLYJXe9QS24pCpyIhoKQ2kwFHQyARQp8Hi0cHOqaK2Aq/w4sOLf6ktiTM10ckb4FdQUhypgyOuEAjZS7Vgldj1CrbekKoofgsW4Lkt6qyUkA5Omi2t2m1ckjKZEWRVS+OxZmeW7kYrnxB0TEEpDl+aaDIsnFS8pZS+3pylOU5T/ACXy/RF1RK5ZcWFwzzNy6gc/jr33hDt2n0JKPMMVdUVI+rnhlJUOCmjXgFCho+ZCJEi4g49o8OJdM5hxP8GgwbpppoplTTTKVPwl6HB/Mly1s9QJywuFPJDKR8snFqeUKipgKKjkkgtKUgvgqqaa6Z0V0yqpu5hxLqfPOK34NBc2bKGiBkUmdLiAD+AmqSgjngVJLOClTVkLwh3FTq0pYmGEu/G4ojPPXMpBz4m+X6WvJpXLOJSyllL7guOW6G/3EWyy4sOpro12UmWeUvjDpwBPJDnzNfJBeTmOvFzKDjPVzmJ4DOZTifStQkN4jUOJa6zLdtuWpMyppPLPwrvWw221lVeEqykKKIOLWMLVOqvhw/t/r+6CXy6OUD8LdKzLeuQWqM8mkisvBlOJiq1aQ4SNQAngMxznWc509xka5yrJGwFAmAfLV8oH4zESZ6TdlXlnnxW2LdMuA3C+Wf3De0v0W6rjDyy4rLGOi3TbYmeXxt4jIpS17kGBnOVXgWqt7RcdyUowyyXIAtNoN9lJIaM3SFBYD4bE+4OqreUpIdeQvFhKb/ILLjoFo/H4Z2M9vvZJERnCQoMAXVt7Rbhy1IwSyXPg+BZ4yIbtg2xhpznV8Zegx0q6bkEzz4rIl+lXVbgeWf3DiOLdHuwp1SllLht6Z6G+28Zzy+NfqLW4mWtoocsxKqaqKp0V0zlVxlTRkkYDNkxxAB7R4jwT/Mt24I9AJmiukSmVdFUqqfhcVbg6e8yKAHXmHxWOb/8ALlsUUtXRyRvha66A6Z111Sppu5iPBI883bfD0jGDJoydMCGzg4gw/HTTVXVKiimc6mGi1t1loiILLIT4y4Jrpj6cBnPPiw4FukXYTKpy+4cUxbmbkAj5cSKP0VZIGZTyimcqqZVS/L4zEHbQdnOkVfTy8+p/BtLftZYtQSKvTFUUNAcCM50sFYQj4Rsp8HOcpSnOc8pXFX5ud8LS5yuVRwthGFcLiTEIGU51FwAipcIqBTKkP4RfcKM10sZZXT4RQpdq/Sy+qxUZCmKnIfg4fLaDvB0BOBQLz6n+MqqlTTOqf5LI/Slg8Zzz4sLJbnrkDD5fcOLUvyHShmsuKiqdFUq5fmkD9KSiRnPP41dQkpypRhFWyQZondmwy0w6xVhFkKoofgsG4zlt2pyPoZrMG3F1G1ckhzqYNzB/4K6Lg/li364sU18kTiwyt/re5FCkIHygvhLkXVbVtk/nVIaRg+/bjOW4ipNQXTWQXg2msMtPysJYW5CpyGhoSU20suiohIMqT+MWB+ipJ0zOeUVVTrqnVP8APhwlF+W6Fw1l9w4uiv4to7lxsEz0xjoBrPP46uigSioMSimqi7mHAI3zzit6BSGOYLGCY4hU0AICN4CUrKSGfBVEg6KUN2jxCprr5lAd9YRBX+BxXuDobWS24HXlXxYUW/0NqKbiEoyr+Du5iFTWrIZAZ9YR9XVVZSXD4yornRTZvwCxYwcMBlSgAgw1o8OARPmXHcICkUeiigOikMOiVNPxr/M9DYzgM55ceEUt+DlOZfcOLUvy2uhmsuOzJjpVrW2Jnn8gupZRv3GArPAyoT1t2M9wMlWERnCQrLj+BKeX4yi0eIk83OZbz2EFOpicokFckCpJhsI0V8fEw4OuLkiJwYnKC4rYN/8AlhgoaNOjkifAqKkQSCQykqHAipW7mIk+4+ebzJEFJJk55/jPwWmz3A9lYNGbpCswPayyjftyBSdGlQoLXx95zHRbWuQTPLjwlF+Q1lw1l9w4pi3PW3BHy48PBnpNpkeWec/kDwZTdfSTWjuEjSOFdGzLituZqM8mo+jeDbS7bktsdl0ISZpMY1wG3cFKkpoByVVXimTARQuKaHqlSG5VgVwuFSXBpznXw24QJud9IiJOnlUSlKUspSyl8A+bgtu3yVNTXzkqarl3bctyTs+miTKpng2tsy4bkGaTXJqIIzPZbdYyTQjt0hSAF8gxEGejWmWJZ5T4sLRbmbbCj5fj9wYjy3SLTqdUpZ8eF4zz1suZz/H5CbKFT5YUmdLhjgXcw4mEzn3EwAaxylVNVFU6K6Z01eA23MuNJVCWW+oCFDVp76ob/DDSVWYacueJfNwfy7bFZMUV8kXiwqN/pzxPuASjMP4C7F9URgBiJKVMNRXXG5lx2qoqy4FAQ2a8CmmquqVFFM6qrR4cTClzDiuADWAUKFCpAsETJFwwAPkOKIzzNspA5/jxYcS3R7TplU5ZfcN7i/SrVOMPLPjwmGecZywVnP5JdqwSQ96RVtvSCTltdQVdtKYyOuEBShvwAxBARKRQhKqK7R4kKguZblwx51UADgmQaDBYWgULwsWrg5ICG1w6/wAeLDC3+qrdzVRKMhfGHHBKg1mDI1AQV3MSFQ3PNy3g86QxBBBhKhRa6q6/AQkBYcqmCjoZAU4btLYNHY9IS24ZBKK58jxZmeQz0crnx2SLdFtU3A8svuG5JXplv3GWyz48IpnMq5CefyV/22bVxUyZFbLcke4trXLbdQ5hVA54l4Nqb3r9uxqE43OtRQ2s7EB5pIay3lCg0X8G/wC4Ov7oKs6K+UDwghCDi0ABUzqraSIG22wlIIcspeK6XagMxJEWXCfoLF7q3uX7iDVp5Sdaeh+Dbm1rluQocwlAcySYFtm1bpMkRRC3KH+SYujORZtE8+O3BbobAbpbLL7hcBfpaCpFcs4nLKeU+LCQY5K+4CmfyZXR0xeTxkpYIhGyl28Pim0ZjLzTpFPo3gsx8uNhq1Ks3j1QVVsLxNy5JSQIVVJJX41tUBREY8sGJykEfODKJ4woGauULw2Vb/8AMly0QlWHywvFuheNuW2KzAFqpOq7zfDjfitUrOE9UNX4NpMPam7pgrztoFII6QkJiCngpSORCKFPkuLcxynAgFM+KUpznlKEAv0VCTiuWX3CJRIQOoOf5KQMyyiaLzllPhwqGeauEcL5/J5ylOWU5Zyu5h1JL/POFjBBE1E+nnko4KnqRQUsZ8AkeOJpsI+nmRC5mxt25XESK05WqooXOLEe4OpLZGyodfJF4sJbf51RW3OLR+HiXzu3K3aRQmpFdFS4dOnFI2KfPmRDBjwE9PPKpwFOTSgpkzaPDqSb/MuF8hBHFKUpSllKWUvk2KozztwyhfPiTAJmVIoWlLOA6JBh0hy/L7he5bobzXSuWXFhqM8xdYlRn8pubaFt3JJzqNUSJqj3YTkYCrUluAlMPwbbOsdmPVKXghJ0h01U10yrpnnLhxZODpC4jtkITOniw8t/qK2CcJXRyRvDqqpopnXVPKm5DqHeb1VF4USdQfgMhguS4CrSlt8nOuLZWibdticqigcjap8oxKGefuseolPPiYxbpj0QSuWf3HeAt0W57lCyy4rEmei3Yb9WeUvlLla6E70oVGcCeGbLXXsYu2+FEVE7nFFD8BriiDNlIGGz5fDd5wfzNcdcUqROWFwpSeOrKZRKLSnMVLTwUpMKJZamUgvDdQogDYWBgs+X4FqLGLlwRQ1RS5xOQ2010JoJQSM308MoV+U31M9Kuu4a88+KzxfpVz20FOWf3HiCK9Fuyt/hlLhtaZ6HcZtj55fKxQghwqwRw6RA7uYb5T55x28AymMCKXFrAHCrDE4W8jmXCukEMpROoYqXDKFQSgUsqOB8LtLZaCwvVVZTrrqErqErqnOrhw7t/r256eLXRygfENlgzhUYoLLOhwI5lvrh9EN0TpG4QQRjAtABcKsQS0eG+VPMuO4YGcwgggA6QQQ6Qw/lV0TPTLiuQxnnxYfCvSbsov4Zy+4sTxfmboCC5cTXMdEcySazy+Nzn9Izn9Izn9Izn9Izn9Izn9Izn9Izn9Izn9Izn9Izn9Izn9Izn9Izn9Izn9Izn9IutY5CuEEIpkKQ05cc7VXmeqiIzhTxCpngwz2sMFxO0NdLTD4sUrg6tYRdFDryE4sJbf5pMWnOLR+Pi4l7WGBxZ3DQi0xOFsNVeeKsGjN5PENGbU2OQbeBUKR6QaiufLHOY6W5VY1nnxYYS/PXQoFy+48WJbm3slmsuIuJMEwENL8yYshygA8vy+Lzn9JxnP6TjOf0nGc/pOM5/ScZz+k4zn9JxnP6TjOf0nGc/pOM5/ScZz+k4zn9JxnP6TjOf0nGc/pOM5/ScPVitx/JVSU4SEhZPPDQ+EAYQdu00rhI0zXcRFmCcbCqDWiWruG4BaQ01oqM5W2wxlEocJYfpgI8PRRQHRSGHTKmnhxTODrF9FUMOvMPisu3/wCW7aIhGsPkC+LXRQJRUGJRTXRcnDGUVRxVhhGAiQ63au4bfFqDUmioykUZruPCyBJtdVGrZeGh7r4wY7jpoQyTLYjbYKVSlN4jIKn5YcFkATHHn+RgSYw4gs/z4cJxbnHqqmsvuPF0WyUW2cy42iZ6Y1EY1nn83qqpopnXXOUqX4vVOd5LK7OrOnhaCII5HQlIIcpzmEEGAFQCFTKmj5+7zPQ2mtGs8uPCKWzPuQ5l9x4uC3KRm8by47Tmel21bQ855z+bXacH8s26XFSmvki8WGBv9a3DqVhKMwvsC7JnoltHKNKeU+LCOX5KI4TeX3HitLc6wk8zlx2EM9KtOgVZ5/N8WLg6M30htBCZVcWFRv8AQGYeXxKMhPsC/hnotpl6eeU+LCkV5pgnzOX3HiZL8/as0Jlnx4ZzHP2rKh55/N8STg66uYZJh18oLhlKc5ylKWc7dIEmwxkRE5PJr+wMTJjmLVmQ88uPDOW5i1ZUTLL7jv2W6VaZepyz48KRrnWEoFs/mx02CQJjnjFXJCXlUZdWz60YnOYnDa9v/wAz3AQ0eqjlB/YOK0zzTCTy2fHYUt0W06BTllP7iuwW6XbVygSlnPiwjmeUiuEpn82v0vVIFrlcQOrki8WFBv8ATHSqOISjOj7BxcmeSjt0pnx2oLdEts2gJyyn9xO8t0xqLRXLPjwimclByE8/m2KqkWduyk6M+RxYZm/1PbcNRED5Iv2Di5M5qLcJ58bSLdDaqMVyy+4zgUhyg4E/yMBzBMCgz/PhwnGebeqqVz+bXma4rttyrphYOdZmcsvwnwpqeaVlAslkQpiGG2jAt1vpyEXy5H2DiwM8490srnxFgpjGAgZfmUCkAUBAlLKX3G6C/RHKrFcsuLDCZ5m6AYWfze/1nzTVVh3aglaq0Xgw52fMkRQ7gOYpUEJ9hYnTHPXRFCz4msX6W50grln9y3RLdDuM5C+WXFh9NdGuyifjlL5sYLgGwBCxoGgYF84XENXGEUGaodUjH8Nt1SQk6AUkqcpScM1z1AWmk4VIpwdvcOTUaAwSoti9dqP5fhL7DxBGek3ZW/xz4rWFumXHbYGWf3LfUt0W67hoyy4rPGOi3PbQs55ff93zPSrnOUXPPisQW6Vdhv05Z/cuJQtzF1j1cpZcTHM9DeaEazy+/wB7GemPJdNZ58WGovz91iVeWf3LiqLc1cImYy4k0aZZRKmJTgOuQgdIkvy+/Ba5Bh1iT/JRGmZUDRic8+LCoW524J0xl9y4ty/JcDfN5cUpzlPOUIBjpaEmms8/v1wGOiIKkazyic855z4sI5flLzgN5fcuLotmVbZzLjtua6YwG6Zzz+/blGuh2+cZnPLjwilsijkOZfcuLMty2ejmsuOyJjpNqm4Jnn9+3vM9FtU4q88uPCaW5tmq5qcvuXFCW562XPZceHEz0i06ZTnn9+4jzPR7TqVMp5T4sLxbmbYyGy+5cRBbpNplieX48WFkzz1txgM/x+/MU5nmbcAAZ8eHkt0a0yN+H4/cl5i/SrWuQPLPjwlGOW11wrn9+4tjHIbCGVz47NF+i2ubYWWX3K/i3TGO4C2WfHhFM/5KTz+/cXRr8W0Sz42EW6GyEArll9yq4HSkk6WnLOKqZ0VTpn+fDhKM8h0LhTP79xamOW6UQrnxUUzrrpol+aSB0ZKJlpSy+wjRsqSBqMHDIQATlxI2HaNVQa7dVuhCLO0Fw3pVVVBRbWFSpQ2mlpwKpyTmK6TUhdqA0JT/AOm1CxVLvQWtpIqx3oLW0kVY70FraSKsd6C1tJFWO9Ba2kirHegtbSRVjvQWtpIqx3oLW0kVY70FraSKsd6C1tJFWO9Ba2kirHegtbSRVjvQWtpIqx3oLW0kVY70FraSKsd6C1tJFWO9Ba2kirHegtbSRVjvQWtpIqx3oLW0kVY70FraSKsd6C1tJFWO9Ba2kirHegtbSRVjvQWtpIqx3oLW0kVY70FraSKsd6C1tJFWO9Ba2kirHegtbSRViraftaqmdM7SKuRnEaljGRRqGqapp3iE70wZjeITvTBmN4hO9MGY3iE70wZjeITvTBmLW4zilsnAMuAsUc/HehgaQCR3oYGkAkd6GBpAJHehgaQCR3oYGkAkd6GBpAJHehgaQCR3oYGkAkd6GBpAJHehgaQCR3oYGkAkd6GBpAJHehgaQCR3oYGkAkd6GBpAJHehgaQCR3oYGkAkd6GBpAJHehgaQCR3oYGkAkd6GBpAJHehgaQCR3oYGkAkd6GBpAJHehgaQCR3oYGkAkd6GBpAJHehgaQCR3oYGkAkd6GBpAJHehgaQCR3oYGkAkd6GBpAJHehgaQCR3oYGkAkd6GBpAJHehgaQCR3oYGkAkd6GBpAJHehgaQCR3oYGkAkd6GBpAJHehgaQCR3oYGkAkd6GBpAJHehgaQCR3oYGkAkd6GBpAJHehgaQCR3oYGkAkd6GBpAJHehgaQCR3oYGkAkd6GBpAJHehgaQCR3oYGkAkd6GBpAJHehgaQCR3oYGkAkd6GBpAJHehgaQCR3oYGkAkd6GBpAJHehgaQCR3oYGkAkd6GBpAJHehgaQCR3oYGkAkd6GBpAJHehgaQCR3oYGkAkd6GBpAJHehgaQCR3oYGkAkd6GBpAJHehgaQCR3oYGkAkd6GBpAJHehgaQCR3oYGkAkd6GBpAJHehgaQCR3oYGkAkd6GBpAJHehgaQCR3oYGkAkd6GBpAJHehgaQCR3oYGkAkd6GBpAJHehgaQCR3oYGkAkd6GBpAJHehgaQCR3oYGkAkd6GBpAJHehgaQCR3oYGkAkd6GBpAJHehgaQCR3oYGkAkd6GBpAJHehgaQCR3oYGkAkd6GBpAJHehgaQCR3oYGkAkd6GBpAJHehgaQCR3oYGkAkd6GBpAJHehgaQCR3oYGkAkd6GBpAJHehgaQCR3oYGkAkd6GBpAJHehgaQCR3oYGkAkd6GBpAJHehgaQCR3oYGkAkd6GBpAJHehgaQCRdLGaUuY4AV0VijkI3iE70wZjeITvTBmN4hO9MGY3iE70wZjeITvTBmCuI1LAMgjCNU1VTTtQGtTTKmVpFXLvQWtpIqx3oLW0kVY70FraSKsd6C1tJFWO9Ba2kirHegtbSRVjvQWtpIqx3oLW0kVY70FraSKsd6C1tJFWO9Ba2kirHegtbSRVjvQWtpIqx3oLW0kVY70FraSKsd6C1tJFWO9Ba2kirHegtbSRVjvQWtpIqx3oLW0kVY70FraSKsd6C1tJFWO9Ba2kirHegtbSRVjvQWtpIqx3oLW0kVY70FraSKsd6C1tJFWO9Ba2kirHegtbSRVgLagNCc/+61CxTJP2mlpx6pSUWK6SskbaC4b1Wqmg2trCXU2sSNh3dVSGhXVboohY2VOg0mCZkIcL4t0PFqMlNrWHe405HJXI2jdo2xUKSYiUouw2/NoJf12zEAQjyc1ijnuA+noPUZdrwWFgT3QbFwX0yh6TLReCwjiMPaC39aUwwF46nOkpbfaN2jc9QRJ9JSi0zbXeLUeybQsNBxJywS+GuPdq3lpUia0/nQTSwbxbSJyq1Q6RZtCpRyrsezufapWtPJyKCyd91mm9nexFShaZrkUEY7Z3aRORKqASLyINKwVtxdm3l2UiS0wXQTVQfglJST0cgOqKx4AmTxAbREim1GWvYwAM6YdLuc73WR3C7l06rKPu01Xc52OsgOForp1JUcP+0RIqVRZr3zADImE5ST1giAqJR4A4T8e8d72DY5tVOF7Kkg68QOKe4l/FGsBSM1JTb93sP2Ki4lhFGgunGalVt2dvcwb4tqlxMlUkJV4uJjFM08PyJMrTzSo67h3HeN1HOZdz3WRVBQ94Ld3IeNq3OWdzIWRU9Qw0YpWniBRJFp80luvw8VeKZEsC3urEqYB94uZzr7yXjrmc6oOoqfvE2HOvsxeJOdrqg6cp4VcUqHf5vdWqkwCDx8HEriEQMPzGEWDPNG153u9wvxyH3a6lMU+qeCwrPXOucYkAxGSqq8mPs1LoLFIZh8uxHbwTY2bdk0qmmpxrjiXRUjBphqRqKaQbWJ5mZbDnYYpTKkC0DTlLsAsdpG0Y7ALHaRtGOwCx2kbRjsAsdpG0Y7ALHaRtGOwCx2kbRjsAsdpG0Y7ALHaRtGOwCx2kbRjsAsdpG0Y7ALHaRtGOwCx2kbRjsAsdpG0Y7ALHaRtGOwCx2kbRjsAsdpG0Y7ALHaRtGOwCx2kbRjsAsdpG0Y7ALHaRtGOwCx2kbRjsAsdpG0Y7ALHaRtGOwCx2kbRjsAsdpG0Y7ALHaRtGOwCx2kbRjsAsdpG0Y7ALHaRtGOwCx2kbRjsAsdpG0Y7ALHaRtGOwCx2kbRjsAsdpG0Y7ALHaRtGOwCx2kbRjsAsdpG0Y7ALHaRtGOwCx2kbRjsAsdpG0Y7ALHaRtGOwCx2kbRjsAsdpG0Y7ALHaRtGOwCx2kbRjsAsdpG0Y7ALHaRtGOwCx2kbRjsAsdpG0Y7ALHaRtGOwCx2kbRjsAsdpG0Y7ALHaRtGOwCx2kbRjsAsdpG0Y7ALHaRtGOwCx2kbRjsAsdpG0Y7ALHaRtGOwCx2kbRjsAsdpG0Y7ALHaRtGOwCx2kbRjsAsdpG0Y7ALHaRtGOwCx2kbRjsAsdpG0Y7ALHaRtGOwCx2kbRjsAsdpG0Y7ALHaRtGOwCx2kbRjsAsdpG0Y7ALHaRtGOwCx2kbRjsAsdpG0Y7ALHaRtGOwCx2kbRjsAsdpG0Y7ALHaRtGOwCx2kbRjsAsdpG0Y7ALHaRtGOwCx2kbRjsAsdpG0Y7ALHaRtGOwCx2kbRjsAsdpG0Y7ALHaRtGOwCx2kbRjsAsdpG0Y7ALHaRtGOwCx2kbRjsAsdpG0Y7ALHaRtGOwCx2kbRjsAsdpG0Y7ALHaRtGOwCx2kbRjsAsdpG0Y7ALHaRtGOwCx2kbRjsAsdpG0Y7ALHaRtGOwCx2kbRjsAsdpG0Y7ALHaRtGOwCx2kbRjsAsdpG0Y7ALHaRtGOwCx2kbRjsAsdpG0Y7ALHaRtGOwCx2kbRjsAsdpG0Y7ALHaRtGOwCx2kbRjsAsdpG0Y7ALHaRtGOwCx2kbRjsAsdpG0Y7ALHaRtGOwCx2kbRjsAsdpG0Y7ALHaRtGOwCx2kbRjsAsdpG0Y7ALHaRtGOwCx2kbRjsAsdpG0Y7ALHaRtGOwCx2kbRjsAsdpG0Y7ALHaRtGOwCx2kbRjsAsdpG0Y7ALHaRtGOwCx2kbRjsAsdpG0Y7ALHaRtGOwCx2kbRjsAsdpG0Y7ALHaRtGOwCx2kbRjsAsdpG0Y7ALHaRtGOwCx2kbRjsAsdpG0Y7ALHaRtGOwCx2kbRjsAsdpG0Y7ALHaRtGOwCx2kbRjsAsdpG0Y7ALHaRtGOwCx2kbRjsAsdpG0Y7ALHaRtGOwCx2kbRjsAsdpG0Y7ALHaRtGOwCx2kbRjsAsdpG0Y7ALHaRtGOwCx2kbRjsAsdpG0Y7ALHaRtGOwCx2kbRjsAsdpG0Y7ALHaRtGOwCx2kbRjsAsdpG0Y7ALHaRtGOwCx2kbRjsAsdpG0Y7ALHaRtGOwCx2kbRjsAsdpG0Y7ALHaRtGOwCx2kbRjsAsdpG0Y7ALHaRtGOwCx2kbRjsAsdpG0Y7ALHaRtGOwCx2kbRjsAsdpG0Y7ALHaRtGOwCx2kbRjsAsdpG0Y7ALHaRtGOwCx2kbRjsAsdpG0Y7ALHaRtGOwCx2kbRjsAsdpG0Y7ALHaRtGOwCx2kbRjsAsdpG0Y7ALHaRtGDOHOwxumdI9oGnOSvg0w1LNFVI1rU8tNz7NuyarTVU21xxIQr42al0UekQwx3WjuEJ+WfudbExMu+2SqpEvBZ7vcTCchB2tRTFIKmGvEIgYgWMGslubKLvHcR/Ny2DNU3w6jci6deq77lvc/T73cgs6fBsvheuzfEegdsokyaNaHALZy3tACi7QK3isESBFMKhkU0mAULe6B4gRUyohFSJAGy13sAlnbhUjqLRBrZyxejC/dmxw9YznRJnEfwLKXgctkX8Re7cFqqlbx+ty5zOTHw1TkjCdxY6sRVd0nxVb5sHp1NfjQ0JZcysVQW8mGVFRw5bPpGQKCruvfQEqKRQmUTyoRIgVCLF/dQ4TKKBUUifKhGS2I3Z9I69Qad1j6AkxSXEJZbSsaQnAmGU9Q48CmIqu1z3lb1znp0tjhxuX4nZ61wiMhnObcs5znOc5zznxW4tu77rOsozWUlVnVDDjhcZWH9FpFLhhqjo92MR+FtlYgEWoYYMNLdFxrcO61TrOM16pVZFQ4pTnTOVVM5ynglvxO8Nrg0dcOc45f4mDABQuKaMi0hA4m7xGb2XcV3VQNXNK4mKx3Lcd1p7MaKdWdU8OuHpq4f2dQjplAZtb92sReHlrYgGdWkKVAZRbfLHctuHUoM12p1ZJT4sMd4jFk7uJDprGrkklzABsAM0WFpFB/hj0u3VbizAzdTTXNK/ECEKYFoAADqEEwaYaC1k2bS5HIToqePu5jMw0F71s2pzNonRS8RQhQBawBw6gxOLAZduq49lwG+pGudV/4Y7rnVXBvuoJRQxzibxbPrD9Q9XWJd1zkecRvd7aCYfqGQ7A7uNgjzaNxYELnTt9fYgkmzHNpsXOeRa3lvHE9zU5SoUT5pVUDKoeFmKZ4Wi11Z7OhKaKEBMZQtfb5GtWwUVhIQcpFvd66VvUa6rBWmEuhymWdrYVmU51RpLpeYKhwpqgbSVEqqkBphGbZvItcK3rdexScp0bRl7VN2yBZrlxZ0j8WzbtXSvPlXumpFpVFveDaR2qpQH0kXTTS3JK8Wzne1TiseYbBgWdY+0ydc1C5bZZ4Ys5h8WDq3tNusP7ZICgc2d94MY9vabi4fnMSCA5w7xbMx1zIXJc7PEFnIPGu4KnDiVeAnL5VHDbxsCvR+N5pA0zqqKFQCJQEkVDlQD7wHCgB8oORNByrBuC2RWW+nC0hqZ01cOCZwVN7Eq0K+XyaLyrFTgu28lmqrlcWBxv0uDEs1eco5VHvFjhb1LfxLOuQdHJo4bLrE2/d1mLMquTCuZqOqp05VPOfDs2E6k1fNTP1U5+8e0lTqSt9U09TTlxIxmokrkTlM8pznOc858TMuA9rdnxlNjOdQQze8/iF1idMbz+IXWJ0xvP4hdYnTG8/iF1idMbz+IXWJ0xvP4hdYnTG8/iF1idMbz+IXWJ0xvP4hdYnTG8/iF1idMbz+IXWJ0xvP4hdYnTG8/iF1idMbz+IXWJ0xvP4hdYnTG8/iF1idMbz+IXWJ0xvP4hdYnTG8/iF1idMbz+IXWJ0xvP4hdYnTG8/iF1idMbz+IXWJ0xvP4hdYnTG8/iF1idMbz+IXWJ0xvP4hdYnTG8/iF1idMbz+IXWJ0xvP4hdYnTG8/iF1idMbz+IXWJ0xvP4hdYnTG8/iF1idMbz+IXWJ0xvP4hdYnTG8/iF1idMbz+IXWJ0xvP4hdYnTG8/iF1idMbz+IXWJ0xvP4hdYnTG8/iF1idMbz+IXWJ0xvP4hdYnTG8/iF1idMbz+IXWJ0xvP4hdYnTG8/iF1idMbz+IXWJ0xvP4hdYnTG8/iF1idMbz+IXWJ0xvP4hdYnTG8/iF1idMbz+IXWJ0xvP4hdYnTG8/iF1idMbz+IXWJ0xvP4hdYnTG8/iF1idMbz+IXWJ0xvP4hdYnTG8/iF1idMbz+IXWJ0xvP4hdYnTG8/iF1idMbz+IXWJ0xvP4hdYnTG8/iF1idMbz+IXWJ0xvP4hdYnTG8/iF1idMbz+IXWJ0xvP4hdYnTG8/iF1idMbz+IXWJ0xvP4hdYnTG8/iF1idMbz+IXWJ0xvP4hdYnTG8/iF1idMbz+IXWJ0xvP4hdYnTG8/iF1idMbz+IXWJ0xvP4hdYnTG8/iF1idMbz+IXWJ0xvP4hdYnTG8/iF1idMbz+IXWJ0xvP4hdYnTG8/iF1idMbz+IXWJ0xvP4hdYnTG8/iF1idMbz+IXWJ0xvP4hdYnTG8/iF1idMbz+IXWJ0xvP4hdYnTG8/iF1idMbz+IXWJ0xvP4hdYnTG8/iF1idMbz+IXWJ0xvP4hdYnTG8/iF1idMbz+IXWJ0xvP4hdYnTG8/iF1idMbz+IXWJ0xvP4hdYnTG8/iF1idMbz+IXWJ0xvP4hdYnTG8/iF1idMbz+IXWJ0xvP4hdYnTG8/iF1idMbz+IXWJ0xvP4hdYnTG8/iF1idMbz+IXWJ0xvP4hdYnTG8/iF1idMbz+IXWJ0xvP4hdYnTG8/iF1idMbz+IXWJ0xvP4hdYnTG8/iF1idMbz+IXWJ0xvP4hdYnTG8/iF1idMbz+IXWJ0xvP4hdYnTG8/iF1idMbz+IXWJ0xvP4hdYnTG8/iF1idMbz+IXWJ0xvP4hdYnTG8/iF1idMbz+IXWJ0xvP4hdYnTG8/iF1idMbz+IXWJ0xvP4hdYnTG8/iF1idMbz+IXWJ0xvP4hdYnTG8/iF1idMbz+IXWJ0xvP4hdYnTG8/iF1idMbz+IXWJ0xvP4hdYnTG8/iF1idMbz+IXWJ0xvP4hdYnTG8/iF1idMbz+IXWJ0xvP4hdYnTG8/iF1idMbz+IXWJ0xvP4hdYnTG8/iF1idMbz+IXWJ0xvP4hdYnTG8/iF1idMbz+IXWJ0xvP4hdYnTG8/iF1idMbz+IXWJ0xvP4hdYnTG8/iF1idMbz+IXWJ0xvP4hdYnTG8/iF1idMbz+IXWJ0xvP4hdYnTG8/iF1idMbz+IXWJ0xvP4hdYnTG8/iF1idMbz+IXWJ0xvP4hdYnTG8/iF1idMbz+IXWJ0xvP4hdYnTG8/iF1idMbz+IXWJ0xvP4hdYnTG8/iF1idMbz+IXWJ0xvP4hdYnTG8/iF1idMbz+IXWJ0xvP4hdYnTG8/iF1idMbz+IXWJ0xvP4hdYnTG8/iF1idMbz+IXWJ0xvP4hdYnTG8/iF1idMbz+IXWJ0xvP4hdYnTG8/iF1idMbz+IXWJ0xvP4hdYnTG8/iF1idMbz+IXWJ0xvP4hdYnTG8/iF1idMbz+IXWJ0xvP4hdYnTG8/iF1idMbz+IXWJ0xvP4hdYnTG8/iF1idMbz+IXWJ0xvP4hdYnTG8/iF1idMPK4D2uGfBVHw51BcN8NH4VSnL3wp/8Ayl74U/8A5SgYIQAasAWmdNfvcXCEHHDACpnVXimtuYtffJzt+ZeoMn73YV7bmLoXzbCDIvMQljIw1duzNCV20EHS7lJNUEZQMJSsSGJnPexMTFFZUC6Skkhzh3Bxhr7CWYKrOQIOp3RfbCda6+9NSisE60lwXywdvCymZww6kZVT6qZ0VTpn+fvRTTOuqVMvzsZg6eF68jhd1I6Un2Jwn2usRRSoIxOtWcEf/8QAWRAAAgEBAgcHDgsGAwcDBQEAAQIDBAARBRIhMUFRdBMgYXF1gdIUIjAyQFBgcHKRocHR0wYVQlJigpKisbLCEBYjo7PEM0NjJDRTc4OTtCVUwzVEZGXw4f/aAAgBAQANPwDwvUXszEAAcJNo78aCnqOqZQdWJFjEc4sMgZadKaI88jY33bfJevrZKhvsoEHps2YUeDIyRzy45s2daeVacfywtjn3XCs7A/esc5kqHb8TbhN9uA3WGYx1Dr+BsubcsKTqB96y5hUTiceaQNZc4rMGR3nnjxDYds9DVy07HmYOLHO4ijqohzowb7tpM0FZKaSS/VizBb+azi9ZI3DKw4CMh8bkQveesqFhjH1mIFkyBcHRYkF/DNJcCOFQ1mvCyCPqupA8uTrAeJLN/lT1j7kOKMEIOYdwqb8WkrHRDxoDinnFkuDGqg6nqCOCSK4X8JU2e4F6hOqKa/8A5kYxgONBZhfutFUpKBx4pyHgPjXQXrgyi/2irY6ii9pxuVFjeq1tZdU1ZGsL/hp5m47Mbw9ZUNIF4FUm5RwAAdzxm9Z6KoeF/OpF44LLcrTNdTVir5ajFY+Ut512luHxbha6nlLakYnEk+qxPB400BxcEYOIlqL9G6G/FiHlEHUDaS9ep8HSHqiRP9SfI3MuKOO0hLO7sSzE5ySc57rForgcGYVZpUVdUcl+PHzG7gtLcvUOEpAI5X1RTZFbgBxW4LHKCPGcwJp6VevqakjRHGMrceYaSLPeheGS+vqF+nKP8MH5qZfpG0jFndySzE5ySc57wRkKcHYQlJeFP9GbKycAN68FkTGqMEVhEdVFrIW+6RfpKSNd3jLiUvJJIwVUUZSSTkAGuy3xTYakGNSU7ZjuS/5zDX2nlWqmxpKipkLseAaFA0AXAaO8dM4khqKeQxyRsMxVhlBtkii+EEEd8qaB1RGvbj6ai/WDntWIJIKmmlEkcinSGGTxkJeIo+2mqZLskcSZ3b0DOSBlsGIjwbDJ/EqQMzVDjtvIHWjhOXs7ZAtHRyTH7oNnzNVQimH80rY/+5wrFeOZC1tRrJnu80VtQNQf/jtqJqB/8dhmAq5kv88Vh/7bCsV55nK2TO1LEtSP5Ray5CKyikh/MB2eZw1ZgeqcmnmGkr/w3+kvPeMloEBrsE1DAVNMdd3y0vzOMmu45PGNUx41FgiOTKt+aSYjtE9LaNYe9YYh1sNNHfkjiTMqjznOST2Qm4pRUry4vlEC5eMkWcAlambqioA/5cV4v4CwsLi0cbLRwE8S3vd9e0eaapphUy8ePLjGy5AkSBFHMMnYWyFJEDKeY2fPNBSCnl48eLFb02N5VN1WrgB8l7n+/ZbyEil6lqCPIk62/iewNw6rpWRG8l7sVuYnslE+PDUU74rDWDoIOYg5CM9goSM34lNhIjTFf2smuM5/k35h4w5EKyyZHhwWCM76Gl1JoztqNdIZqipqHLySOc5JPYpCFVEUlmJzAAZzaW5uqsLgpIynSkA68/WxRw2S4lq87nTBuCBDcRwOWtELkgpIFijUcCqAO4ZRdJBUwrLGw1FWBBs95E2CmuhLfSga9LvJxbR3tumDQRUqv0oG64/ULWhYpJFMhR0YZwVOUHsUbB0dGIZWBvBBGY2OLBg3D0zXLMcyxVB0NoEmn5WXKTlBHjBdTFhHCUZDJg0EZUQ5jN6E480zmSSWRizOxN5Yk5SSdPYXIVVUXlicwA0m0lzg1UeNWzJ9CHJi363I4jZBc+Fa8CerY6SGIuj4kA7nxcWPCNONxq49V0q5TxNeOCyXuaTFCV8S+R2sv1bj9G0DFJYZkKOjDOGU5QeA9iYrBgrDM7XtS6FhnY549Ac9rmOTKGAZWU3gg5iD4v50MeEq+JrxgxCO0U/8Yj7Ay57rpGLu7klmYm8kk5yewo+LU4YrFKU0esLpkb6K38JFlUY+F6+MM6Np3FO1iHFe2tj3WExYcMUQEdVGdGMbrpF+iwPBdYMcTC1FGSI10CePKYjw5V4exSFYMDYVqH/3VjkWCVj/AJZzKx7XMcl1xygjxe4Uh7dSGGDIGF26sP8AiH5CnyjkuvqHaWWWRizu7G8sScpJOnsFQ4jhhhQu8jk3BVUZSTqFjiy0/wAHUe46walxm/5anjOcWpUEcFPTxiOONBmCqMgHdsqlHjdQyspzgg5CLG+WbArHFpKk5zuR/wApjq7Q/RtROY56apjKSRsNYPoOY9hRRDgHCU75Z1GamkY/KA7QnOOtz3X+LvCQaHA9Cx7eS7LK4z7ml4J1m4abYSmaoqaiVr2d2OXiGgDMAAOwVBva7JHCmmSR8yINJPNeclpY/wCPhOSPrae8ZUp1PaDQW7Y8Ayd4aeMrQ4Yp0G7wnQrf8SO/Op5iDltIS1FXwgmmrIx8pG161OUaewRMHR0YhlYG8EEZiDbAsAxnY3HCNOuQTDW4yBxxNpN3i5wZEZGAPXyvmSNBpZjcAOG07bnSUoa+OkpwTiRJxDOdJJOnsEJVsIYSlU7hRxHSx0scuKoyngF5EgVq7CEoBqKyUDtnbVqUZAM2k946kZLxdJC+iSNs6ONBHpGS1bIRg/Cqpk1iKYDIkgHM1140gb/Bc6z08qHMRnBGlSLwRpBItFdT4Vog17UtSB1w14p7ZTpB1g+LhReSTcANdvg5M0cBQ9bW1IyPOdajKqcF5+V2CkKvhTCjpfHSxnQPnSNlxV5zcATamF8jnLLUS3ddLI3ymOvmFwAHeXCEZiqKeZb1YHSNRGcEZQReLYRlIoa4i9qdjl3Ca7Mw0NmYDXeOwV5WlwzRqcksBPbqPnoTjDnGm1fAlTTTxNeskbi9WB4j4t/hLAerJI2uakoTeGzZmkyqPohjq7Al0uEa91Jio6e/K7aycyrnJ5yKVb5JWA3WplI66WRvlMfRkAyAd58IxGGoglF4ZTpGog5QRlBAIthN2fBOECucZzDIRkEij7QyjSBv5Meo+D0srZmytJTXnXldRrxhpHi2wTTtMVBuaV8yRrrZmIUcdsLVDTML71iTMka6lVQFHFv8JSiNB8mNflSOfkoovJOoWe6bCVeVukrKi7Kx1KMyroHDeT3orkuDADdIJB2ksZ+S6nKDzZibId1oaxVIjrKcnrZF/AjQQRv6CdKmmnjNzRyIQVYHgIsq9SYVp1P+BVoBji75rZGXgYavFr8HnE+FCjZJq4jIh1iNT9pjq38ziOONFLM7E3AADOSdFsPRK9a5AJo4TlWmU6Lshc6WyZgO9eDw1RgauYZYprssbH/hvcARoyHRbB0701TBKLmjkU3EHf8AwqZKGsx2uSCe+6GbguY4pPzWOrxaQxdT4OhY/wCNVyZI1u0gHrjwKbVsz1FRM5vaSRyWZidZJO/oJDHgGCVck1QuRqi451Q5F+lefk97cGRhMOwxLlqKYZFqLhnZMza1y/J34ygi3wdxcGYSxj10mKv8KY+WgF5+creLP4JLfVBT1slfIOuv8hLl4CX35bqnCdUoyU9IhGO1/wA43hV+kwtg2nSmpoIxcqRqLgP/APdPe2dGjljdb1dGFxUjSCDdbDONW4HlOULGT10BOuMm7ySp07/4T4uCq/GNyozN/BlPkvcL/ms3iywVRs8EbH/FnbrYk53Kjz2whUSVNRKxyvI7FmPOSd8bfClUra4svXwQ3XwwcFwOMR85jq734OBr8DSkZRUKP8O/U4vU8YOi0DtHJG4uZHU3EEaCCN8pvBBuINqOP4twnly9UwgAsfLXFf63ix/+s4TVTxpAh/mNd5O/+DGJhLCGML0lcH+DCdeMwvI+ard8fhgWmlCLcsNev+KvBji5xwl9W/8AhRT7vSqxyCshBNw4Wjx/sL4sIUMkjsbgqgXknmthCucUgJ7SmTrIh9hV5yd/h8DCuEiRcys6jc4j5CYou1lu+KxdW4LcjKlXECyAeVlQ8DG0TFHRhcVYG4gjWDvsDV0NZHcbsYowJXiIvB4DbCtJFWQMDfekiBh6D4r8NIuBqQg3NjT3hyOKMSHf4Mf41wleOtMMJBCHy3KLxE2GQAd8vhWnxtS4ouVZWN06Die9uJxv/gnVvg5gc+4N/EhPFczKPI8V+DaV8K1SA/5spxIweEKjH6+/+FNVuNMzDKKSAlRdwNIX+yO+fwPqBXAgdcaV7kmHEOsf6m/+E2DWMak5DUQHHXnxDL4r1wi9FSm/JuMH8JbuA4l/PvsI1MVLAg+VJIwVR5yLYFoIaNbh2xRQGbjJvPP3zwpSy0c6EX3xyIVb0G2Bq6eikvF15jcrfz3X8++wZhWnkmN+eEsFkHOjMLMAQRmIPitwRgqpqkP01jOIOdrhaVi7sc5JN5O++DcMuGJrxeMdAFiv/wCo6H6veaQHqemTr6mpYaI4xlbjyAaSLAkJVYXdppWGvc4yqrxYzWvv3I4KXF4sjX+mzEK9dgZyGThMMhN/M44rSZGaI3PE/wAyRD1yNwEDsfwpoIq68DIZ0/hSc/WKx8rf1eCIEnN/+dGu5yfeRvFbh6upcGqL8pXH3V/uxEc+/r6yHBdO5HyIlx3u42kX7PeWtjb4swSj9fIc26SXZUjBznTmGXNVtfexuSFNEca5lQaAPx3mMEraF2O4VsN+WNx+DZwcotOMSppnI3WknA66KQaCNeYi4jP2LAeFDSysBlENQn4Y8aeff4AwxUUwBOaOQLKvpd/FbNPV4RkW/wCYqRofvvv8JU74UmvGUmdy6n7BQc3eRlKbiGxqfB5I7acjOw0RjLruGeufdJqiZrydQAzKozADIBm31WViwtg0vclTDfnGgSLeSrcxyE2wjEJIpFzqflI4+SynIQcxHYYMGtXwi7Lj05Eou5kI59/JDR4RjW/SrPGx+8nitwTgKEXankkkc+jF308ixINbMbh+NsGUFPRqBoEcar6u8VIheepqpRHGg4SfwzmzXxVGHXUpUzjMRApyxKfnHrtWLaRi7u7FmZjlJJOc9gwrKowlRg3mFswqIh88DOPlDJnAIwhCtRTVELYySIwvBB7BXU0tM4OlXQqfQbUVRJTuDoZGKn8N9hbAtXBdfnZCko9CHxW0bU1GvBiU8d485O+qsPUSuNaiVWb0A94RlJNo706lopR1PA/+tMLwLvmredd1o3LU2Dae+Okph9GO/KfpNe3D2PCc2R2JY4MmY/4q/wCmT266O2Gm+dFkiljYMroReGBGQgjLf2CLDtW6D6LyFx6GG+qKqakbh3SCRfxI8Vpw/Vxg8CSFB+XfU01RVH/p08hHpu7vUXkk3AC0V6igwU6yKjapJu0ThAJbgtLevxZgx2TdF1Sy9vJwjIv0ezVDiLA+EJ3/ANxkY5IXJ/ymJyH5JOo5DlBG/q+pKrjxqaO/0g75PhDQgngaZVP4+K2bDte9/HUPvqXBFdKOC9Qn6+7UF5lrahYgeAXnKeAZbLeq1U19NRg67yN0fmUDhtIT/wCmYMvp6fF1MAcaT65PcKAQ4BwnO/8AjKMgppGPyhmRjnHW57r99U4GopOO4Ov6d9Fhyhe/inQ+K18KVTeeVt9H8HqojnlhHdSi/HrapIQeLGIv5rJkAoodxp7+GWS7JwqrWe8A0qbvVXcMsguB4VUWkN7T1tQ8z+dibhwdxxsGR1NxUjKCCMxtQRYtHVSNd8aQqNP+soGUfKGXPfvn+D1Kf5sw3y4UpT/NXxW/GNT/AFW337u1H9aHuZReXrayOEfeIsl/8LBNM9RefLuEf3rZQtRherAHHuUV/wCez3jcMDwLTXDVumWT71nN7TVU7SueNmJPZmIkVnTFq69dUSntVPz2HEDZESPCVDjNK9AwAAmBN5MbaSe1Y6jk39FKs9PPC5V4pFN6spGYg2wTCOq4Rcq1sYydURj8yjMTqI3v7u039abffGVL/VXxW/GNT/Vbffu7Uf1oe4BnNTVxxAfaIsudIKsVDeaLGNlzCiwa4B55Sgt8mTCFekI51RX/ABsczR0z1Eg55GK/dtJnio5upEu1XQhbNlaSeVpGPGSb+4GIxzGt0UK/OkkPWovCTaO6SOApfQ0b5+tVv8Vh85hdqXTYC4AaLVEbRTRSqGSRGFxVgchBBuuthSbIFBY4MmY/4Ln5h+Qx8k5QL9/g2YTU88ZygjQRpUi8EHIQSLYOVY8L4ODZUfRLHflMbaDoOQ8P7f3dpv602++MqX+qvit+Man+q2+/d2o/rQ/tgUvLNNIERFGcsxyAcdoyQyYIpmqFBH+pkjPMxtr6jh97bYofe22WAf8Ay2+kKdf/AJDb/UrYU/AG2gzYYA/CK2gzYQlk/BVscx6nnkI88tj/AO2wVFk53DWbRTbnT/01FmzibCs7A82NdY52kcsfOe5KlgkNNSwtLI51BVBJsbnGBqNw1VINUsgvWIcAxm8m0X+XTpcXb5zt2ztwsSd5hGFoKmnmXGSRGGUH25wctsKyM2C64i8xnOaeU6HUZj8oZdYG/om65CTudREe2ikHylYZCOcZQLJdFhGgZgZaOouyo2sHOrZiOcD9n7u039abffGVL/VXxW/GNT/Vbffu7Uf1of2UK5FXLJPKe0ijGlmOQDjJyA2jkJo8C08hEKLoaS7/ABX1sc2gDu+c3R09JA0sjcygnns1znB1KVmrXGpmypF948AsyhZqxhulVP5crdceLINQ3+EYykiHtkb5MiH5LqcoI02qi0uCsJBLkqob9OgOuQMvPmI7A10WEaBmIirKe/KjaiM6tnB5wa5Mqt/iQSjt4pBoZTkI4iMhH7P3dpv602++MqX+qvit+Man+q2+/d2o/rQ/s+B/8Fo1PWy1zAGVzrxQQg1XNr7uZrmrZE3GlTjle5eYEngsLmbBmCCUj4nnYYx+qo47XAOaeIbpJwvIb2c8LE9ilG6UtUgG60c4HWyodY0jMReDaE49NUoDuVXAT1ssZ0g6RnBvBzdg+GH8FI2PWxVygmJxqxgCh13rq/Z+7tN/Wm33xlS/1V8VvxjU/wBVt9+7tR/WhsiljzWwhhGpqpGJylnkZj+PdZNxempmMS+VIesXnIs1xanp/wDa6q7VkIjU/WPFaK49V4aYVFzDSsVwjH2SeG0YxUjjUKqjUAMgHZaQNLgnCQS96aa7MdJjbIGXnGUC2DpDHIjdq4+S6H5SMMoIzjf4PwlTVSMDlBSVWH4WYBhz2/d2m/rTb74ypf6q+K34xqf6rb793aj+tDbc2/C27yfmPc7m5YqeJpHbiCgk2kyiowsy0aAa7nuc8ym2QvS4Hpy7cW6yXAfYNo7iKnDDmra8acRv4Y5ltGLkihjCIo1ADIO4cFRscGVpFwlGc08p+YxzH5Jy5rwcHzNT1NPMuK8bqbiCPXp327x/mFtzX8Lfu7Tf1pt98ZUv9VfFb8Y1P9Vt9VYPkoNyqpGVFDOjY3W5SeszcNnBW7qedyAeEy2kYubs15N/cTZAqKWJ5hZ80nUEkcf23AX02bOa+vVnA8mEOfwtnaHBVCEHFukhP5bLd/EwtWPKCfIXFT7tgLsWio44fPigX9zVmAVeokRAGlZZpFBY6SFAF50Ab6Jw4vzXg32QBbup50JA4RLanwfHQbjSyMyMEd2xuuyjt83BvvjKl/qr4rfjGp/qt3EcwjiZvwFmzbjgudwfMtmzGakMI88mLY6avCdOt3MrE+ixzgTzTsOYRgem3ykocFXeZnk9VhnD1ccKHmjQH02T5dfJLVE80jEeiy5B1HQxQ/lUd1/u/wD3EvZvjKl/qr4rfjGp/qt2akwN1RDDUhiqSbvGuMLiMtxI57D59GH/ADX2Gb/0iA/ithm3LBkKXeZbDRHEq/gO8f7v/wBxL2b4ypf6q+KzB0RmqJ5TcFA0DSSTkAGUkgC1VWTTR4wuOKzki8cR7N+7/wDcRd5/3f8A7iXs1JWQTyYovOKrgm4cQthGITU88RvDA6DqIOQg5QQQfFVTRtNNNIwVI0UXsxJzAAE2wPMVooQSvVsgyGokHD8kHMOEns/7v/3EXef93/7iXs+GJgKyIkt1FKcgqIx5scDOMucC1TGssMsbBkkRherAjOCCDf4qahFn+EE0TZVjOWOmvGvIzcGKNJ7g/d/+4i7z/u//AHEvcFMjT/B+aVsrRjLJTXn5uVl4MYaB4qMG056mhJu3eobrYoxxsRfwXnRbClTJVVMzHK8jm8niy5BoHYf9GFn/AAFhvv3f/uIu8/7v/wBxLvjmFj/xoWT8R2HBdTHVU0ynKkiG8c2TKNIthKnBqIQb9wqF62WM8TA81x0+KfBsYwrhJVORp5AVhQ+SmM3/AFB2CW50qqiImpqk1wxG7IfntcNV9owCa7DIFVIW1hWG5r9VRZYmCpBEqKBccwAtuz/mO+/d/wDuIu8/7v8A9xLvt3j/ADCzRKGSeJXUi7SCLSAkV2BgKWQNrKKNzbnU2ivd6qniIqKVNc0QvyD563jXd2DCMZwtg1WOQTIAsyDykxW+ofFNGpd2JyAAXk2wphKaSC834sAOLEvMiqN+xEuBMFTr1s9xyVEynOt/aqchznJdeouAAuAGr9m5N+Btuz/mO+/d/wDuIu8/7v8A9xLvt3j/ADC25r+H7GFxBF4I1WUmXDeCoF62C/PURKMyX9soyDOMl92+wZhKJ57jdjQMcWVedGYWkUOrDMQReD4pYsETQQtfddJMNyW7ncb/AAYPjHC7DMYEIujv1uxVeIk6LQIsccaLcqKBcFAGYAD9u5N+Btuz/mO+/d/+4i7z/u//AHEu+3eP8wtua/h+2dGjljdcZXRhcVIOcEG62Eh8Y4IY5hA5N8d+tGDLxAHTv5cEQwzNfeTJENye/nQ+KXCeFqKlPCoZpD/TG/8AhHhJoUcjL1PTjFAHBjtJ5hvNyb8Dbdn/ADHffu//AHEXef8Ad/8AuJd9u8f5hbc1/DefB3CSwyOBl6nqBikHgx1j853+DMLVtKOAFhIP6h8UsvwijJ5qebfy0Mk7XaWeeRj+O83JvwNt2f8AMd9+7/8AcRd5/wB3/wC4l327x/mFtzX8N5FRRzrfoZJ42H4b+L4RSXc9PD4pab4QwXnVjQTDf4OFTQSDUyTvcPssp595uTfgbbs/5jvv3f8A7iLvP+7/APcS77d4/wAwtua/hvMI9TUEY1s86Ej7Ksebf1PwhnKnWFhhHilwXUUleOALMqsfsud+zjDODlY9sLhHOo4ro28+83JvwNt2f8x337v/ANxF3n/d/wDuJd9u8f5hbc1/DeIxwzhFVPa5DHAp88jebf4Unq688IaZlU/ZRfFLhfBVTSoP9RoziHma42iYo6nOrA3Eb7BNQJcQm5Zo8zxt9FlJU8dsIxBil4x4JR28TjQynIfPmI/buTfgbbs/5jvv3f8A7iLvP+7/APcS77d4/wAwtua/h+3B8RZUvGPPKe0iQaWY5B58wNsLVDTFAb1iTMka/RVQFHFvpXCIozsxNwHntgjBVNSuPprGA552vPimwnP8bUNwuBinvcgeS+Ov1d/hB1+M8Fl7g92TdYyciyAacxGQ6CGA3aK/FnpnI7SWPOjeg6CR+zcm/A23Z/zHffu//cRd5/3f/uJd9u8f5hbc1/D9ig7jDfjT1LgdpFHndvQNJAtg92+LMFh7wgOTdZCMjSEacwGQaSd9guf43rrxeoiguYA+U+Iv1vFP8FnMNbii8tRSkdcfIkuPE7dgizTU0pXGHzWGZl4GBFkAVq7BsnU0x4WjYFGPEVFpI2G5z4Ox7iRrjZrPIzLxE7793/7iLvP+7/8AcS76OVGY8AIJskYAjgwdiXkDXIy2cXLXYSk6pnHCsYARTxlhaXPNVSlsUfNUZlXgUAdg+FUghosYXFaGInrh5cl54kXxT4Rp5KWphcXh43Uqw8xtDJu+DqhhkqKRyTG44butOplPcH7v/wBxF3n/AHf/ALiXuCWTd8I1CjJT0iEGR+O7rR9JhbB1PHS00KC4JGihVA5gPFRgBXnwY+QGoTO9Mx1NdeupgNBNqeRopYpFKsjqbipBzEEXXdn/AHf/ALiLvP8Au/8A3EvZ6iRYooo1LM7sbgoAzkk3XWw+qT4UkyE0650plOpb721sToA8VUSGTDWDYEy1aAZaiNRnkA7YfKAvzg3jIQdHZj8Hz/5EXecfB8f+RL2Y5ABptKgkwLg2dctGhGSeRTmkI7UfJBvznJ4q2xpsIYGS5I605zJDoWQ6VzNouOemcxTQzIUeNwbirKcoI1HstT8HZrhrxZ4T3npvg7BeNWNPMey1LiKGCFC7yOTcFVRlJOoWXFmwfgZ7njojnEk2hpBoXMum85vFaqXQ4XpYxfJdmWdMgkXhyMNB0WL4sGFqQGSkmGjr7usb6LXHj7JhHB1dS8Z3LdAP5fefB2D6Gl4juQcjzydkD4s+FqsGOkhGnr7uvP0VBPFZ0umwvVRi+O/OsCZRGvDlY6To8WE6lJYJ4w8cinOGU5COO0l7YlOu60Ttwwkgp9RgOCyXkVGBpN1YrrMJukHMDx2Q3NDVQNE4PEwB7CMMw00hv+TNfEfQ/ec4Znp4zff1sJ3IehOwublhpYHlcnyVBNnuJqMMybkwXWIRfITxgcdo7mxKldyokbghBJf67EcFoFCRQQRhI41GYKoyAcXi0Iu3OspUmXzMDZ8pajV6U/ymUWOiLC093pY2q8FwVtOtRMZWxizo/XHKeuT076iqI6iMjQyMGHpFsKUUFZGRmxZEDD8e8uC6GeskJzYsaFj+FqyeSokJ0s7Fj6TvqPBc9bOsExibGDIidcMoyv6LDRLhae70MLJlDVivVH+azCwFwjo6ZIV8ygeLoiqwXM13kyRj+pv8ANLgecX3kCJr4/5bJ5u8vwgeLA8AvuJEjXyXf9NH8+/upcFwtd5Ukg/p+L34PVVPhVMmUIrbnJ9yRjzb/DFMuE6NSf8AOh62QDhKMD/0+8uBqZsJVig/583Wxg8IRSf+pv8A4Q1VRhV8mUqzbnH9yNTz+L3DFBPRPfoEiFb+a++2D6mSlmUjtXRirDzg77BNdHLMqn/EgPWypzoWFq2FKiCRTeHjdQysOMEd46KF6ieRjcEjRSzMeIA2wvXSSwqx/wAOAdbEnMgUc2+wjUxUsKgX3u7BVHnItgeggoo7tIjQLfz3X+L74TxphiAgXLjv1swH/UVj9Yb/AOBzilAY9c9E95hb6vXJ9VdfeP4YuaZgrddHRJcZm+t1qcTNq3/wYifDE5IvGOnWwj/uMp+qfF/8E6r+OVGU0c5CvzK4jPFfv6huocLRjM1LIQGa7SUNzjybtNqiNZYpEN6ujC8MDpBBB7w08bSyyOblRFF7MToAAJtA3UOCY2zJSRkhWu0FyS58rg3/AMLaq+EsMoo4SVTmLmQ8V3i/wvRy0c6kX9Y6lSRwi+8cItgaskpJLxdjBT1rjgZbmHARv/g5Fj4NaRuuqaC/tRrMZN3kldR7w/COLHwm0bddT0N/aHUZCLvJDaxv8M1sdIhAvxAx65zwKt7HgFsEUkVHAoF3WIoUHjN154T4wK8LgvC5UZFmUEwyHylBS/6C69/gmoWeI/JcfKRhpVlvUjUTarTEqqYte9LUKP4kTcIOY6QQdPd9KmJS0wa56qoYfw4l4Sc50AE6LYWqGnlb5KA9qijQqi5QNQG/oQ2C8EFhkaZgDNIPJUhL/ptq8YOF6VoVkuvMMueOQcKuFPNbBFVJSVCH5ym68awRcQdII3+GWSHC9KuXEGZahB89L+dbxquroVnp6iFsZJY2F6sDqI7toYWqKmombFSKNReWJ4rYHZ4cEUrZMcZmqHHz3u5luGu/fYXqo6SnQfOY3XnUALyToANsEUqwl7rjNLnkkPCzlm5/GFAEosPJGudM0NQeLtGOrE1dgrpbqSqkJPxXMx0/6LHOPknLrtKodHRgyspF4IIyEEae64lLySOwVUUC8kk5AANNqCW6qqoyR8aTKc//ACVOYfKPXauwVAeiwCki5o801QOM9Yp1B9fjDwlTvTVMEgvWSNwQwPMbOTU4Kq2GSopGJxTf85e1bhHCOwOwjwfhFyWfBhJyI+kw+lNGTIKhFkilicMkiEXhlIyEEae6adGllmlcKkaAXlmJyAAabIxjr8IoSr4TIOVV0iH0vpyZDv4yKnC1WoyU9IpGMb/nN2q8J4DbB1OlNTQRi5Y40ACgcw8YmCQ1VgapbJ/Eu66Fj8xwAOAhTotRTPBUQSrivHIpuZSNBBHYJHu3HGxp8H3nK8JOddJjOTVcc9YuNHPA14v0qwzqw0qbiO56NcaSedrrzoVRnZjoUXk2je7cMbFnwhccjzEZl0iMZNd5zb+tmSCngiXGeSRjcqgaSSbYVC1WGalcv8W7rYVPzEBIGs4x0+Majjvw9RwplqYVH+8qBndR22tRfoN/YJmHVmDZyWpatRodNB1MLmGvRbF/jYHrJAHc6TC+QSrxdcNI7lxf4WB6SQFkOgzvlES8fXHQLRMeo8HQXrS0inQiaTrY3sdejsNZHfgKjmTLTQsP94YHM7g9bqU36cnjB47cduO3HbjswuIOUEarYQlxq+khW/4snY5wBmhYnJ80m7MR2GJg8ckbFWRhmIIyg8NkuRa1WC4QgXhY5JgPpXN9KwUNLSFtzqoOB4m64cd12onuEqWipFbdKqfgSJeuPHddrIs96NWlgcITrwMMkIP0b2+laVi8kkjFmdjnJJyk8PYaCXHoKSVbvjOdTnIOeFSMvziLswNlFwAFwA8ZFZE0M8EyBkkjYXMrA5wRavl60i9nwbIxyRSH5nzXPEcufsNO2NFUUszRSIdYZSCLJcpmkIgrVX/mKMV/rLeddpLh1HhoCn646BLeYz9q/gtIMZJInDow1gjIexxjGeWVwiKNZJyC0d4FHgVRUdcNBlvEY+1fwWe9RNGd3rWX/mMMVPqreNdqhsaWoqZmlkc6yzEk9ioZcpN6vhORT/hRn5nznHEMuakiWGCCFAqRxqLlVQMgAHjKrYmhqKedA8cqMLirA5xaZy8iC95cFkntX0tFqfRmbWexg37nTVTCJuOMnFPOLKAC1TTGCYjy4iBfxqbHt5KCqjqV8z4hs2dazBkuTnjDD02OieVoT98Cx/8A20I/FrD/APbQn8GsNEErTH7gNlzLR4Mly88gUemw7SSvqo6ZfMgc2YEBqamM8wHlyki/iUWJv3OpqmaIcUd+KOYdkhcPFGb0mwoQe1TSsWt9OZdYoolhp6eBAkcSKLgqgZh4zJ0McsUihkdSLipByEEaLVNWkFZgh7/9mlkJxWgPzCR2p7XQSMg7wU9W8NHghL/9pljIxmnPzAfkjttJuyGFBHHFGoVUUC4KAMgAGjxnfG1D+c94fjau/OPGf8bUP5z3h+Nq7848Z/xtQ/nPeH42rvzjxn/G1D+c7+saZDS0sw6riMUhQ/w2uxgcW8YpJ4LRG56ergaKReNWAPcMpuSnpIGlkY8CqCbUbwotLUzA1cplkCD+Gt+KBfecYg8G/wDjau/OPGNx247cduO3Hbjtx247cdvjah0/TO/6qr9P/wCS9iLgtZTrIV8liL1PCCLPeVSKXqqmB8iTrgOJ7LeVWOc0s5HkSdbf9eyZ5uonki/7iAr6bLkKsLiOwtkCqLybPmm6ieOL/uOAvps1xZZJjVTgeRH1t/17JcSksnUtMT5EfXEcbmwFxWjpljLeUQL2PCSbdV0H/kJv/jau/OPGf8bUP5zv+qq//wAl962dqrB8UjecrfZvlUNTNT3cQRwvoscwiwgrgfbjJ9NtAkigk/BVt9LBkZ/WLfRwZGP1m2kRxQR/irWGcS4QVAfsRqfTZflV1TNUX8YdyvosuZqXB8UbecLfveq6D/yE3/xtXfnHjP8Ajah/Od/1VX/+S/cfVdB/5Cb/AONq7848ZqAnqbdxLUHiiS9/RYZFqq9xSQX6woxnYceLZplnGDqGlCJjqetJdsZzdf8AOu4N/wBVV/8A5L9x9V0H/kJv1maf4urqUOgZjexV1xXF/lXcFjkaqoHFXBfrKnFdRxBrOAept3EdQOOJ7n9Hi047cduO3Hbjtx247cduO3Hbjtx247cduO3Hbjtx247KL2ZmAAGsm0eQ0eDG6smv1ER3qp8oi2UJWYam9IhiP4vaXIaPBp6jhu1ER3Fh5RNmN7MxvJOsnsPwfnnnlp5CAZoJZS4lj1gFsU6jdrHcfwgngqI6eMgmGCKQOZZNQJXFUaTfqPYVN6spuIOsG0WQUeEz1ZDdqAkvKjySLZA9bgWb0mGU/g9pcgo8JHqSa/UBJcGPkk2YXqym8EawfGBGL3mqZlijUcLMQBaO8dT4Gi3db9RlN0fmY2ORaqvc1c92sKMVFPGGs5J6m3cxU44okuT0dlwZKJI2Hauvyo3HylYXgjUbC6HCVCWBejqQOuQ/ROdTpB4+4WvhwbQhgHrKkjrUGpRnY6AOK2E5TJIx7VF+SiD5KqLgBqHZUIPU27mWnPHE96eiwyNVUDmknu1lTjIx4sW0lw6nwzFuAv1CUXx+dhaQXpNTTLLGw4GUkHxdKL90rapIgeLGN55rJeB1JDuFPfwyyXG7hVTZ7wrQx9U1N3/MkGKDxILE3g1lU8gXyVJuXmA7hqisGF8H41y1NPfnGgOudTryZibYThWenmQ5wc4I0MDeCDlBBHZ8GQtPUTPqGYAaWJuAAykkC1MWgwTg/GvWmp78l+gu2djryZgO4Qb76OqeMN5Sg3Nzg2S4Fpo+pqm7/mRjFJ40NnuB6sh3env4JY7zdwsoswv3SiqkmA48U3jn8Wii/cJKgNOeKJb3PMLC8LUVZFHT36wDjOR9VbPeBDgiHc3u1GVsZ/MRaQ3vPVztLI3GzEnuXDcwx2YkjB1Q2QTLqQ5A44m0ZZVDo6EFWUi8EEZwRbitxW4rcVuK3FbitxW4rcVuK3FaJS7u5AVVAvJJOYAWwJMRGykgYRqBkM7a0GUINV7acnckZvSeknaKReJlINkuBhwvDuj3ahKuK/nJsbg1RSkVlPfrIGK4H1Wswv3COoCzjjia5xzjxT8VuK3FbitxW4rAXknIALRZ6OhY1c9+orHfinyiLZQlZhmbEXjEMZJPO4tJeDR4JHUcd2olOvYeUxs5vZ3YszHWSc/dI6z4PVsz5x/7RifuH6vzeynrPhDWwtm//EQj75+r87ulDjK6MVZTrBGa0VwFHhYdWR3agX69R5LC2QPWYGmx14zDIQRzObS5qOufqSe/UFkuxj5N9mF4IN4I8U0QveaeRY0UayzEAWjvHU2Bo+qco0GTJGPtWORavCchqZuMRriop4y1pCb6SObcKccG5R4q+cdxm0hF1ZURdT092vdJMVTzX2FO7UlDSxPOrTXdaskpxQoJyEqGtg2dqepp5Rc0bqbiPYdIuO/hcSRyIxVkYG8EEZiDptgSECbGIBwhAMgnUaWGQONdxzHJ2LDcJEJUgnB9OchnbUxyhBrvOYZZnMkkjsWZ2JvJJOck7/CU609NTxC9ndjcBxaScwF5sadGq6GqieBVmu65Y5RjBgDkBYLaMm+sp4uqKe7XukeMo5yO5IyCKSWbd6c8G5SYyjmAsMjVeDJDTTcZjbGRjxFbSXDqbDUfU2U6BJljP2rSi9JoJBIjDWGBIPigUXmWtqkhXmLEX81kyBcHw7nBfwyyXC7hUNZrwsgTqupA8txiA8SWJvAq6pnRfJS/FXmA7jkOKkcaFmY6gBlNpLiKvDDdSJdrCt/EPMpsLi9HgeERJxGWS9jzKLRjJWVcfVVRfrx5cYg8V1hkAH7MEQf7VBEuXCVMozcMqDtdY63VZTcQRcQd/gyYTQSrmvGdWGlSLwRpBNqfFgwrQY17UtRdl4SjZ1OkcIPYajGgwTQY1zVVRdkv0hFzsdAyZyLYTmM08razmVRoUC4AaABv2NwAF5JthiD/AGaCVcuDaZh2vBK47bUOt1/sOQg6bSA31lJH1LUX68eK4k8d9jeUo8MQiVOISx3Ec6m0d5NXgduq0u1lV68c6i0ZxXjkQqynUQco7jBvIpKpkRvKS/FbnBstwaQp1JU3eWgxCeNLPkK4Qhx4L+CWO8XcLBbMLxLRVKTLzlSbufxNQi+Soq51ijUcLMQLJeA1KNxpA3DM4vI8lSOGz5BHgyK+a7hme9r+FcWzm9p6yoeZzzsSe43NywUdO8zn6qgmz3Ey4Vnulu4IUxnv4GxbLcWgguo6a/VcpLkfWFgLt1gpl3ZuOQ3uec7+rkx8O0UKZKWZj/vCgZkY9tqY35jk38l0GE6DGuSrpicqnUwzqdB4CbYThEsTjtlPykYfJZTeCNBG/wAGQmWVz2zH5KIPlMxuAGkmyXwYMoca9KOmB61RrY52Ok8F3YKWTHwFRTJkqZVP+8sDnRSOt1sL8wF++Iu3aemXdl4pRc45jZrysE91ZTX6uuIcD6xsl5EuCZ75buGF8V7+BcayG5oKyneFx9VgD3GhvWejqHhcc6kGyZDHhOK6e7gmS5r+Fg1nuBNWN2pC3BMgvA8pVHDaYXx1FJOssbDgZSR4lQDibvJ/ElI0Rxi9nPAoNsqjC+Fkvc/SjgBuHAXJ8m15KiomJjj4EjFyoOBQO4ybiaSld0XynuxV5yLNcWjd+qqm7yIziA8b2TKTXzbnBfwRR3ZOBi1lFwioqVIVPHigX8/YqqJoZ4ZVDJIjC5lYHOCDdbDcrPg+bK3UsmdqZzrGdSc68IPYMNzKtWpJPUMxyCoQaswcDOMucC1RGssUsbBldGF4YEZwQb797TxtLLLIwVERReWJOQAAX32wJKy0aAkdXTDIalxqzhAcwy5yewYElV8ITZR1XJnWmQ6znYjMvCRaljWGCGJQqRoouVVAzAAXdiYXGKtpUmUcWMDdzWfKDQTbrBfwxSX5OBWWy3lY0fqWpu8iQ4hPE9gbh1XSuiN5L3YrcxPcd4LCnmIjk4HjN6uOBgbZFOF8Epcw+lJATceEoRwLYgY+4SfxIidEiG5kPAwHiRpVxpamqlEaLwXnOdQGU2yo2HcIRemGE+hn+zac3vUVcxkbiF+RRwC4DuJyAKp4dxpxw7rJip6bHK1Lg2M1M3EXbFRTxY1o7j1ThqTqjKNIjyRj7NohckNPEsaKNQVQAOzYSiKN8+J/kyIfkupuINgTNg+tC3R1lMT1si8OhhoII7BK2J8H62Z8kTn/AO1Yn5JPaHQet0i7eQtifCCthfJM4P8AuqkfJB7c6T1ug378kTYQrSt8dHTA9dI3DoUaSQNdsGxBFHy5H+VI5+U7G8k9mlFzw1ESyIw1FWBBtJeeqcCydT5TpMeWM/ZsMq0uEozSzcQdcZGPHi2QkdVJDu1OeHdY709PcUBvSopJjG3EbsjDgN4Njci4dwfF6ZoR6WT7NqpcaKppZRIjcF4zHWDlHiOQFeoYJP4FK3+vIMxHzBe2vFz2RiaeijOJS0wOiOMZBxm9jpJ7gc3KiKSzHUAM9pcorMK/7HFdrAe5mHkqbZC9HgaHFHEZpBf5kFos1ZhBeq579YaS/FPkgWUXAAXADuKjDT4IwgVy0893atpMbXAMOI5wLYMnaCogcZVYaRrBFxBzEEHfowZWU3FSMxB0G2BYBiySNccJUy5BKNci5A405G0m79mGYDjyxtecG0zZDIdUjZQg0ZW1XuSzMxvLE5yTpO/wnOsFPCgysx0nUALyTmABNqwLPhfCAXLUT3dqukRreQo4znJ7iYXEEXgi0ueswevUk9+stHcGPlA2ylKPDMOMOITRi/zobRZTWYK/2yK7WcS9lHlKLIbmR1IZTqIObuB2BqaKQl6WpA0SRnIeMXMNBFmAXqGol/g1Ta4JDnP0Dc2q/P4i6KMy1FTUSBI41Gkk2N8VRhjKlXWDMRFpiQ6+3P0c1nJZmY3kk5yT2aQ3JBSwNLI3Eqgm0lxM2GJtye7WIlxpPOBYXFqajUUdPfqJ65yOIrZRd1QlOHnPHK97nz9z4FgN8aC44SplymI65FylDxrpF0bFXRhcVIyEEaDv8GTrUU08Zyqw16wcxGYgkWogsGGMHhssE13bLpMb3EqeMZwbVwaDA+Dy2Wea7t2GcRpeCx4hnNsJztUVM8hvLMfwAzAZgABv5GCoii8sxyAAaTbDUA/huLzg2mbKIhqkbIXPEug39zMLuqHpwk44pUuceexvK01Yoq6e/UD1rgcZayXkT4Hm3V7tZibFk8wNozc8FVA0UinhVgD2ZCGVlNxBGYg2GLFT4YuL1dGMwEumVBr7cfSzWrYxLT1NPIHjkU6QR4iEvWCBeunqpbskcSZ2Y+YZyQLU0hahwPDIdzXU8p/zJOE5BoA09kJuxaKleULxkC5eciz3ErUS9UVN3/Lj60HjcWS4kVUu4U9/BHHcbuAsbAXYlFSpFfxlReefuuQ4/wAIaKFP8Nj/APdKBoPyxoPXaT2BDuVdRMxEdZTE9dG34g6CAbOdyoaNWJjo6YHrY1/EnSST2CM4/wAHqKZO3Yf/AHbA6B8ga+u0Dusi7EraVJbuIsLxzWe8gUsvVFPfwxyXm7gDCyXkLTy9T1N3/Lk60nic2Buxa2leINxEi5uY9lqZA1dgeaQ4ja3iP+XJwjIdIOh7lnhbrZqWW7LHKmdWHmOcEjxDVAZcG4MicCarkGr5qDJjOcg4TcLElKSkjJEFHFfkjjXQNZzk5T2O+5jSwFkTy37VRxkWa4tS0g6rqbtRIIjU8Ra0dx3fDM27LfrES3R+dTaMXJBSwrFGo4FUADu6dGjlikUMrowuKkHIQQbrrYbmY0rAE9QTHKadjqzlCc4yZx2fAkympJBHV84yinU6sxcjMMmc5IEWOKONQqogFwUAZgBku7ukFzwVUKyxsOFWBBtJed3wNNuK36zEwMfmUWW8rS1Y6kqbtQJJjY8ZW19ymqgKo/kP2rDhBPY8iVdJISYKyK/LHIungOcHKLU4VcJYMlcGajkOg/OQ5cVxkPAbwPEHUho8F4MR7pKuW77qDIWbRmzkC1U1yIMkVPED1sUa/JUauc3kk9iLXSYVrr4aRNdzkXueBAxstzGFwYaFG1CMHGf6xuPzbQjFjp6SBYo1HAqgDvFhOExTRtnXU6n5LKbiDoItLfPguvxbkq6YnI2oMMzDQeAjssV0+FK/FvSkp78p1FjmUaTwA2wZCIYY1znW7H5TMbyTpJ7xTDFkp6uBZY2HCrAizXsIUBmoXbUYycZPqm4fNsGxY8K0V81I+q9wL0PA4U9ipmudDeYqiK/ropF+Up1c4uIBtTBY8KYMdwZKSW77yHKVbTxgjw0UXszG4AcJsmQxUSmc36r160c5sMzTzJFfzDGt9KsYn8ttrbo22tujba26Ntrbo22tujba26Ntrbo22tujba26Ntrbo22tujac4kFOlONxpIQetijBbIo85N5OU22ZfbbZl9ttmX222ZfbbZl9ttmX222ZfbbZl9ttmX22jYNTQ1825U0RGlolB3Q+UbuC0KhI4oqhlRFGYABbgOC21t0bbW3RttbdG21t0bbW3RttbdG21t0bbW3RttbdG21t0bbW3RttbdG21t0bbW3RttbdG21t0bbW3RttbdG21t0bbW3RttbdG21t0bbW3RttbdG21t0bbW3RttbdG21t0bbW3RttbdG21t0bbW3RttbdG21t0bbW3RttbdG0L7vQYQiqC01HLpZb1ygjIVzEcIBtsy+22zL7bbMvttsy+22zL7bbMvttsy+22zL7bbMvttsy+22zL7bbMvttK+71+EJagrNWS6Ga5cgAyBcwHCSbbW3RttbdG21t0bbW3RttbdG21t0bbW3RttbdG21t0bbW3RttbdG21t0bbW3RttbdG21t0bbW3RttbdG21t0bbW3RttbdG21t0bbW3RttbdG21t0bbW3RttbdG21t0bbW3RttbdG21t0bbW3RttbdG21t0bbW3RttbdG21t0bTKUkilqCyOpzggrcRwWkYtUw0E2600hOlYmA3M+SbuC2zL7bbMvttsy+22zL7bbMvttsy+22zL7bbMvttsy+20BxJ6d6cbjVwk9dFIA2VT5wbiMottbdG21t0bbW3RttbdG21t0bbW3RttbdG21t0bbW3RttbdG21t0bfRrGB/LY52gmSW7mOLZzcIq1TAb9V7daeY2YXqym8EcB8IxnNkvVmVv9nhbhYdseBfPYm9aWM7nAvEgyHjN58RYN7Usp3SBuNDkHGLjZ7lVmb/Z5m4GPangbz2PhBAhkkkka5UUZyTZSUknW9Zav1qnBnOnV4jyQkc7XtLSetk4M40arToJI5I2vV1OUEHwfo3xamVD/AL1KDlF+lFObWcurxI1j4tNK5/3WUnIL9CMfMcuvwew0GiRlPXRQ/LfgJvxRxnV4k8DBYnLHrpYfkPwnJiniGvwcFoHNLSC/IIkNwI4ze3P4k53FLVi/IYnIBJ4jc3NY+Da0rRQn/Uk6xbuItfzeJV6VYpj/AKkfWN6Vv5/ButwjGrDWqKzfjdv6eTc0jQ4rVUgzi/Qo0kZScllFwC0yXnjJF557bOnsts6ey2zp7LbOnsts6ey2zp7LbOnsts6ey2zp7LbOnsts6ey2zp7LbOnsts6ey2zp7LbOnsts6ey2zp7LbOnsts6ey2zp7LbOnsts6ey2zp7LbOnsts6ey2zp7LbOnsts6ey2zp7LbOnsts6ey2zp7LbOnsts6ey2zp7LbOnsts6ey2zp7LbOnsts6ey2zp7LbOnsts6ey2zp7LbOnsts6ey2zp7LbOnsts6ey2zp7LbOnsts6ey2zp7LbOnsts6ey2zp7LbOnsts6ey2zp7LbOnsts6ey2zp7LbOnsts6ey2zp7LbOnsts6ey2zp7LbOnsts6ey2zp7LbOnsts6ey2zp7LbOnsts6ey2zp7LbOnsts6ey2zp7LbOnsts6ey2zp7LbOnsts6ey2zp7LbOnsts6ey2zp7LbOnsts6ey2zp7LbOnsts6ey2zp7LbOnsts6ey2zp7LbOnsts6ey2zp7LbOnsts6ey2zp7LbOnsts6ey2zp7LbOnsts6ey2zp7LbOnsts6ey2zp7LbOnsts6ey2zp7LbOnsts6ey2zp7LbOnsts6ey2zp7LbOnsts6ey2zp7LbOnsts6ey2zp7LbOnsts6ey2zp7LMLiGpkvHEQLxzWqZNzeNzjNSyHML9KnQTl0Hf0WEZFXgVlVvxJ8GzVzE8YQe079qCOU3aWcYzHzk+IdaCSVb9DoMZT5wN+KyEjjKH2DwbiwgU+1G3R360Yj+yxX1eIdqTc/tMq+vfy4RCfZjXpeDdPhGFvOHX17+GSoi80rH1+IeaWni88qn1b+fCM7+YIvq8G4ZKeXzSqPXv4MIzL51RvX4h58JQr5ldvVv5nqJfPKw9Xg2tGZPssG9W/iwgr3eVGOj4h5cIM93kxnpb9qMSfaYt6/Bt8GVIHHubb8NTS3f9weIe+plI/7Y38eDKYEf9NfBuallj86EWBu30lDHJd5Ml36vEPFQySfaku/TvibrQ00UfmUDwbYEWiqJE8zEb6fBko8zofV4h4MGxL53c+vfS1EaedgLAXeDkeEqkfzG308FRF/LJ9XiHggp4v5YPr30mE6YfzF8HTXNJ9oBvXvnqWj+0jL6/EOtSI/soq+rfCtWT7ILerwdmEEvniX2b5cJ04PO4Hr8CFF5JNwAsuQpHLupHGEvsxuAlYxX87gCzi9XjYMrDgI7+NhOoA5pCPVvoVnl80Te3wdqMHwP5iy/p30NZDJfxOD4D9pBAl26TyaFUficwFif4dDTsVjA+lpc8J5gP233yUzktDINTIcnOLjw2plHVVGWvI+mh0qfRmPD36mrJpPO5O+gwfO/nKr6/B2bB2Lf5MjdLfIwbzG0sKP5wD4CqLyToFqNmp6GO/IIwcr3a2OXzDRvaVwWS/JLGe2Q8BGS1dAk8Z4GF9x4Rm78xQu/mUmzsW8530ODsX7Ui9HwdaOpiJ4ih9e/lwdTP5418BWpjTQnTjydYLuLGv5t/g+rmplv0LeHA+/35iwdUt5o234jpogeMufV4Ox1ksd/lID+nf8AxfEn2Ri+rwFq53q5VHzUGKvpY+bf1tfNKl+lQFT8VPfn4vlT7QxfXv5KyKO/yUJ/V4OwYTj9MbjfxLNF5pX8BcFRR0S6sYDGf7zEc2+JuAGk2pKONZP+YRe/3ie/MqwxeeVN/PhOQ+ZEHg7BVU8n38X9W/graiP0hv1eAlLE8znUqgk/hatqJKh79bMT6981Us0w/wBOPr29C3c/fqeup4/MS36d/PU1En3yv6fB1IElH1ZFPq38OE2P2o09ngJhDEoY8uXrz133A2/oKZaeM/TkN5+6vp79TYTU/Zjf2794HlP1pGPr8HTg2cjjCE+rfpUU8gHGrD9PgJGj10wB0nrE/B/Pv8LTyVbHSUvxE9C38/fp56iQjiVB69+MGwE86A+vwdmoZ47uONhv3p4JLuJmH6vASllFFFdmxYhin7wY8++qJFiQDSzG4Dzm1DTR04u+ioF/o79JTTyXeUyj9O/hoYI7uKMDwdkRl84tHIy+Y3b6fBjH7Mie3vjdeKdL5Jj9RbyOe6w+XucaA8xa+zG7GqYL0+0ha7ntIL1lgkDqecdnoaWWfLpKqSBzm60ztI7HSxN5O+onaulvGS6MXr97F38YvaWeQIo5zZTdjU0FyH6zlb7H5e5xuBzBr7XXmne+OYfUa4nmv74w4MQ/akf2b6SRU85usiKvmHg9DhCoTzSMN9PRVEf3Q36e98alnd2AVQM5JOYWypNhQDKdYh6Xm12kYs7uxZmJ0knP+0kbtTuSYZl1MvrziyER1VMxvaCS7Nwg5wdI5+zYXqY6e76C9e35QOff/wAOhhJH13/RvnJjpaZWuaeS7NwAZydA5rAncadSRFCupV9ec/tjYMjoxVlI0gjNbIkOFCM2oTdLz67SKGR0YFWBzEEZx3vgo6eP7pb9W+mwhTpdxyL4PjCUzD6zX+vfSPLF9qJx3ujyC/K0jaFVc7HgFlbraZW6+bU0pGfycw4c++wm60dWpPW3MblfjViDxX9mwdSmaQf6kp6Kr59/Wo1dLeMt8hvX7uLvsGu1HSLf1tym5n42YE8V2+Zuupmbr4dbRE5vJzHgz2kz3ZGRtKsudSNR73RvFF9mJBvvjGFvstjerwfkljlH1okO++MYk+0cX197ZFvgoY267gZz8lfSdFheIoVyRQr81F0cec6d+pBBGg2qKSGVuNkB9fZZat0iP+mnWL6FG+rqmOnF30mAv9NqeNYkGpVFw9A3tNRzSrxqhI/CzG8k6TvzcJoWyxTL81108ecaLRrfPQyN13CyH5S+kae9vxjMo+qcX1b6OSWX7MTnwfnpKeT7uL+nfRYRp380i96xlJNhek1fkaKA6Qmh24cw4bTsXkllYszsdJJ7BUSLEijSzG4Dzm1LBHD9lQPV2Sno3ERv/wAxhip94ix32CYJKtjoxrsRPS1/Nvqqnkh+0pHrtTyNE6nQym4jzjsEDB45YmKsjDSCLG5Ia/IsU50B9CNw5jwWOUEd65cIVD38cjb6CjqJPu4v6vB+fBifdkcb6OVH8xBs6hvOO9NOuNJLI1wHBwngGWxvV3vxZqofS+av0Rn06uxYGfHQsMktR8lRrxe2PNr7LhOrx3F+eOIX/mZfNv66pWmjP0IxefvN6N/hp8d2UZIqj5SnVjdsOfV2IXIkl+NNSj6Pzl+jo0arTrjRyxNeDwcB4Dl70ohbzC0krv5yTvoMGPl8qRB4PvSzR3+S6n9W/mooJPOgPeiQHqejjIMsx4tC62OS0bE09FETuUQ/U2tj6M3Yla9qhluefWsQOfysw4c1qVMSNF9JJ0k5yey4IpUhuGiR+vb0FRzb8UqzTD/Uk69r+drubf1S4siN6CDoIzg2ZutqFW94NSygZvKzHgzdikYGoopSdylH6W+kPTmtGB1RRyECWE8I0jUwyd6IaKeS/ijJ36UsEd/lOx/T4PrNURX8aofVv2wZTg8yAervPcVdr8aGlP0iO2b6I59Vpze8sjXniGoagMg7DIwVUUXlicwAGc2yPBgs+gzdHz6rRqFREFyqBmAAzDssal2J0AC8m1dVyzDgUscUcwuG+q6yNZP+WDe/3QbKLgBoHYJFKujqCrA5wQc4tlefBY9Jh6Pm1WQlWRhcVIzgg5j2GA3pJG1x4jrB0g5LXBVN+LDVH6JPat9E82rvOuDKgedCPXv2mp4geJXPr8H4cJBftRv7N+lO0f2ZGHq7ywKXklkYKqKM5JOaxvSbCGVZJhpEelV4c54LE3knT2GTQo61F0sxzKBrNiL2qGXrIOCIHN5Wc8Gbs88HUkR040pxMnMSebf4KpDim7NJIcUfdD9jAvFQq9ZPwSgfmGXjtEczDrXXQynMwOsdhBvBGiwuSHCB66SEaBJpZeHOOG06h45Y2DK6nMQRn7yvTrH9qRR69/NhIjmWNPb4PwV8D+fGX9W/gqKiP+YT+rvJlEUS5ZJm+ai6T6BptG18NFG2Q6mkPym9A0dija6eukXrRrVB8tuDMNJsQDNO+WWdvnO2nizDR3BPK9bKB81Rip6Wbzb/AAvVs4JGeOPrF9OP5+yC8wzpklgbWrerMdNpGugro1606lcfJbgzHR2KRr5qKRsg1tGfkt6DptkEsRySQt8110H0HR3knqKeP+YD+nfz11RJ5iF/T4PxbjL5pU38GE5R50Q942XrKVW62LU0pGbizngz2fIoORI1+ai5lHB2E2Nzw0WVZagaC+lF9J4LQKEjiiUKqKNAA7hwYqUKZcl6i9vvM3m3zkKoGkm1FRxxv5eLex+0T2WdSksUqhldToINhe81FlaWnGkrpdfSOGw7CmRgMqSL811zMLKvX0rN1sutoic44M44c/eOfCcQ8yOd/KJpfPK/g+KCR/s3N6t/HWxyXeVHd+nvCgLMzG4ADOSbZUnwmMoXWItZ+l5tdpWLu7sWZmOcknOew1DYscUS3kn1DhzWFzxxdtDSng+c3DmGjX3FRwPO5PzVUk/harnedyfnMxJ/HfJUipmH0I+vN/Hi3c/cBveSLtYao8PzW4cx067U7YskUq3MD6xw9hiYOjoxVlYZiCMxtkSDCZyK2oS6j9LNr12cBlZTeCDmIPeGStlku8lLv1b80Eb/AGuu9fg/Lg2pX+W2/K00oHO47wRDKznKx0KozsTqFgbtxDXSVA1yEaPojJrv7FGR1RWSAiKEcJ0nUoy2kUCorZQN1lOofNXgHp7jwm6UKZcpDG9/uq3n39JAlJEx+c5xm9Cjz9wxKRT1sSjdYjqPzl4D6LSE9T1cYJimHAdB1qco7ETduRa+SnGuMnR9E5NV1phkZDlU6VYZ1I1HvAEqZSOMoPVv4sG0y/y18H5YJE86kWUkb6XB4e7yZF6Xd8q309DEwx21M3zV4TzX2UkQUyXiKBdSr+JOU9ivDLkumqh9AHMv0jzX2gFyRxi7nJzknSTl7kp4nrJVHznOKvoVvPv8KyyVr68UnFT7qg8/cU4ueOQX84OcEaCMtryzZL5qUfTAzr9Ic93YmI3eme8xTrqZfwIyi0S31FDKwx14V+cvCOe7u+LBxf7UjdHfMwUc9ooUTzKB4Pm0NXNH5nI30+Dp08xRvV3dWoWjDZVp4826MNJ1Dn0Zahi8ksrFmY8J7DMwSOKNSzOxzAAZ7C6SHBx66OI6DJoZvo5hpvsBcABkA7lhn6kiOjEiGJ+IJ599VTJCg1sxAHpNqKnjp0u1KoHq7jYXEEXgixvebBw62OU6THoVvo5joutCxSSORSrIwzgg5uw07B45YmKsp4DaiQGULkWojzboo0HWPb3dBg6BPOWb176arhj87gWHhAmE6n0yE+vfTJUReeJj6u7aaJppG1KovJ8wtWTF1UntEzIo4AoA7CbjJIckcK/OdtA9J0WkW6Wtde11rGPkr6Tp1dzUNJLMvCwU4o5zcLSMWYnSSbyd9g/HrpMmTrB1v3yvc0a3RVqL22pZB8oekaNVheY5BljmX5yNpHpGnsNHMrOoPbx5nU8BW8WqYlljbWrC8HzHu2FIIvNEvt3z4Tp/RID6vCFqvdPtIrevfNWCP7SlfX3b1C6XjUxCn0E9hjXdZMZhusi6ViU9sfwz2XKzZ3lb5ztnY9z4XqkhuGmNOvb0hRz7+R0oYWI0AY7/AIp5u52yo2Z4m+cjZ1NpF3WPEYbrGuhZVHan8c/YeoES86lvUegd2rWmP7KhfVvlqjJ9lGb1eEM8VPL/AClHq3yYTpj/ADF7tq6GWOMa3xSV9IFlNxBzg9ghYPHJGxVlYZiCMxsbkhwkciSHQJfmn6WbXdZheCDeCNfc2C6THcX/AOZKbz90J59/VRGtlvz40pxh90qObuZReSTcANdsqTYSGVIzpEXzj9LNqvz2mYvJJIxZmY5ySc57AxuAGcm1JQxRyD6eKMb0k92yYTqT/MbfQQ1Ev8ph6/CGfBsLeZnHq30NTFJ5nBsRf3bheQyoyjrYZjleM6rzeRwHg7FfihSb5aYa0Jzr9E811pxeskZzHSCM4I0g5e5BlJtU1km5H/TU4qfdA31dVRQZNAZgCeYXm0KLGijQoFwHcsAvZ5DnOgAZyToAy2vxSoN0tSNbkZh9Ec9/YsDyCVmYdbNMMqRjXcbieIDT3aBfaaplk87E76DBszedkHr8IZaB0v8AJkJ/VvlN9paeN/OoPdtSuLJG48xB0EaCLX3mQC+WmGqQDOPpDJru7E5HVFJISYpl1EaDqIyi0Sg1FDKw3SM6x85eEc93ccdI8cR/1H6xfSw3+CKaSoJ0B26xfzE83csqk09DEw3SThPzV4TzX2QnqeljJEUC6gNJ1k5T2K+8SEXS1I1Rg5h9I5NV9qZcWONB5yTpJ0k5+7YaaSTzKTYm/fRUCJ9qQH9PhD/tMRP/AGzv5MGUx/lr3cwIZWF4IOgi2V5sGDIr6zFqP0c2q7NaJikkcilWVhnBBzHsNO2NHLE1zKf/AO0WNyRz9rDVH9DcGY6NXcWEaozyD/TiHSYebf4RqhDGf9OIdJm83cgvSSo7aGlP634Mw06rVDY0ksrYzMf/AO0dhlYJHHGpZmY5gAM5tkeHBhyomoy6z9HNrvzWUAKqi4Aah3dHgypP8tt//s0QP/cPhDFXun2oyf078UKx/ZJX1d4EX+HVouSS7MsoHbDhzj0WXKjZ0lX5yNmYdiFyRVnbTU40BtLr6Rw5rVCh4pYmDKwOkEdwYIpo6YDQHPXt+YDm38VIjyi7/Mfr29LHuKBS8ksrBVUcJsb0lq8qzVA0hdKL6TwZuxNldsyRL852zKLOv8Ssdckd+dYge1HDnPo7wGiaP7RC+vfy16Jf5MYP6vCGDCULedXHr38LTxeaVvb3hN5jkGSSFvnI2g+g6bO10Vai9rqWQfJPoOjV2KVr6ihlY4ja2U/JbhHPfZQBPTvklgbUy+vMezQo0jsdCgXk2rqqWfLoDMSBzC4b6orEMou/y1OM/wB0Gw7hYEQU6XGWdtSr+JzC0TX09DG3WLqZj8puE813Yo2ulrXXttaxj5R4cw06rC4ySHLJM3znbOT+GjvDM0EXnlX2b+fCUzeZUHq8IYZqeT+ao9e/p8ITp5wrevvFMpSSKRQyupzgg57C95sHDrpIhpMell+jnGi+ym4gi4g9hiORlORhpVhmYHUbAXGEtdHUHXGTp+icvH2WriFFFdnxpDin7uMebf4LpMRDd/mSm4fdDefuEi4Qhr46c65CNP0Rl13WlOVnORRoVRmUDUOwsbgALyTY3SQ4OPWySjQZNKr9HOdN1oVCRxxqFVFGYADN3inwhAnmDN6t/NLUS/zWHq8IVpRJ9l1b1b+HCON9qNej3kuLNcLoao6nAzN9Ic99oDc8cgu5wcxB0EZOwoQyspuKkZiDbIkGEzlI1CbX5Xn12kUMjowKsDmIIzjsbs9dKAdA6xPxfzb/AAvVPNef+GnWL6Qx5+zxKWd3YKqgZyScwtlSfCYyFtYi1D6Xm12clmZjeSTnJPYZzckcYv5ycwA0k5LXBlJF8VKdSA52+kea7vJLhEv9mNulv2pN0+07N6/CF8GVF3NGT6t+JKaUc4cervLGD1PVxgCWE8B0jWpyG0rEU9bEp3KUaj81von09iZuvpWbrodbRE5vJzHgz2fIbsjRt811zqeA9iweVoY7jk6wdd98tvpGCKBpJNwFqGkihPCwUYx5zeezJkF+V5G+ai52PBZW6ylVuum1NKRn8nMOHP2KJgKiulU7nENQ+c30Rz3WkA6oq5ADLMeE6BqUZO8peplI4gg9e/TBlN6YwfX4QzUk0fnQiw30lHFJd5Lkfq7zVC4skUq3qR6jw2F7yQ9tNSjh+cvDnGnX2LIJYmyxTL8110/iNFo1vmoZGynW0Z+UvpGnsFFTyVDX6lUn1WqZXmc62Ykn0nfQT9VyjRixDHy8ZAHP2aRb4aGNso1NIfkr6TotlEUS5I4V+ai6B6Tp7Ebnjh7WaqHB81eHOdGu1OuLHFEtyges8PeaOjlku8pwP0742hpIY/MgHhCykee0Uzp5mI30+DJPOHQ95zY3vNRZFiqDpK6Eb0HgtAxSSKVSrKw0EHsMDB45Y2KsjDMQRbB6jdgMgnjzCUD0Ea+Pf4Vmjo114pOM/wB1SOffwRJRREj5THGf0Kvn7LhBDuN+UU8eYyka78gGu/Vadi8ksjFmdjnJJ7DOwSOKJSzMToAFhc8NFkaGnOgtodvQOHPYd54MGRjzu530s8aedgLKAPCKLCVSv8xt9PTVEf3C36e9Ma3QV0a9cNSuPlLwZxosSTDOmWKddat6s409hinWOoAORoWNzg8xv4wLMLwdY31HTtVSr9OQ3L6FPn3+E2eufJluY3L91V7IovJOgWlnZKcE9rCpuQDmF/GT2EEGad8kUC62b1ZzaRbp66ReuOtUHyV4M50396YKanj+4G/VvpcJUyn/ALi+EZr5H+113r3zzvEfrRsPX3qlGZh1yNoZTnUjWLE3ioVevg4JQM3lDIeDsMlDTs1+sxrfvlqTTwn6EfWC77N/PvqydIEA+czAD8bUkCQIB81VAH4dkjoKhlu1iNruwg3mdl6+fgjB/McnHaIZlHXOdLMc7E6z3qSdI/sxqPVvhXxv9m9vV4RymGXzxJvhhKAHncD1963BVkYXhgc4IOcWyvPgsekw9HzarRsVdHUhlIzgg5jvq6ojgUD6TAE8wy2hjWNeIC4fhvaOjkkTy7rlH2iLMSSTpJ32DEeufJkvUXJ95l83ZZ42jbiYXH8bUNRJAwP0WIv58++kYKiIpLMTmAAzm2R4MFnRqM3R8+qyAKqKLgoGYADN3rbCc4HM5Hq30W7S+aJ/COehp38wK/p30NdBJfxSKe9qr1tQq9ZP9GUDP5WccOa0eYMOtddDK2ZgdY3rIUwZG4uJByNNdxZBxk6t9harVWAOeOPrm9OJv6iVKOIkfJQYzell83ZggTCcaC8gDIs12q7I3EDr3smfFyKi6WZsygazZl66pZesh1rEDm8rOeDN3tmrp5L+ORjvoKCd/Pir+rwjmwaF+zI/t3yOreY2kjV/OL+9ovMUy3CWFvnI2jizHTYG9dyISdRwoTl+qTxWBuuejkHqsxu3SWExIONnuFoyHSghywqfpt8viGTjsoAVQLgANA32CaRQwvzSSHGP3cTfzQdVyjTjynHy8QIHN2ZgVZWF4IOgi0hLvQTZIWP0G+RxHJxWU3bpFCZUPEyXixNwCUch9VrwW3Uh52H0UByfWI4rG4yzNllmb5ztp4sw0d7Y42fzC+zuW8530ODSv2pE9nhG0NRETxMh9e/mwfTvfxxr33UXknQLVdZI8f8Aywbk+6Bvq6rihbgUsMY8wvNo1CqBoAFwHgBDg+oe/ijbfrDTxg8bOfV4RpVTx3+Uin9O/ODYVP1Vu9XffqVoIT/qSdYt32r+bf4IpXmvOiR+sX0FjzeAPxdMo+suL69+9VDHf5KE/q8I4MJp96Nxv44pIvsyuO+9dUNUyr9CMXD7zejf4Uq8RDdnjiFw+8W83gDJHFF9qVBv58Jv92NB4RwVlPJ97F/Vv4Kuoj+9jfq774JgjpFGjGuxn9LXc2+OQC1NRx7rk/zGGM/3ifAGesp4/vY36d/PV1En3sX9PhHHHFL9mVDv4MJv96ND32p4mlc6lUXn0C1dUyVDX/SYn176SrSSUXf5ade3oU+AU+E08yxud/JFJL9qVz4R/FszD6q43q36VUMl3lIw/T32rVWiQj/UNzfdxt/g6lEMZ/1JT0VPn8AnqZ5LvJRR+rfjBsLH6y3+vwjmwfUJ54237Q08oHEzj199hhOLH+xJd6d/hepkqSdOIOsX8pPP4BLBUSEcbIPVv4aCnS7ijUeEckbJ5xdZHZfMd9Ng0td5Mie3vtHGKqBRnLxnGuHCQCOffVcqwxIBlLMbh+NqCmjpwRpxVAJ5zl8AocGhvtSP7N9I6r5zaONU8wu8JIa6eO7ikI31RQ1Efmub9PfeukMkyot/UkpOUHUhOUHRm1b3F/8ATaeRbmUEZZmBzZMijhv1eAcFDTx+cFv1b6augS7jkUeEowlORzuT699KZovPE/feVSjxuoZWU5wQc4s5LGllUvAT9Ejrk9ItfkeCrS48zEH0WJyvPUq1w4kxjaMhkMqYsEba1TLeeFr+IeAkRhi80Sb44SgbzOD6vCV50kH1o1Pr3xr40+11vr8PxhCRPs9b6t8kzyn6sbH1eEs9NTyfcC/p30WEqZv5i+H8uEqlv5jb6ClqJPuYv6vCWfBkZ8zuN9FOj+ZgbMoPn8PVUt5rSzO/nYnfQYMk9MiDwlko5Y7/ACXB/Vvhaakhk86A+HsNHNJ5kJsd9HRxR3+U5P6fCUSVMRPGEPq374Mp7+MRgerw9TBlRceOMj179pKaIHiDn1+EsWESv2o26O/Wl3P7Lsvq8PWpRH9p1X17+bCWL9mNel4SwYQgfzhl9e/hmqIv5rH1+Hs01PH/ADFPq38+EJ38wVf0+EsLQS+aVfbv6fCUy+dUPr8PZ8JQr5lc+rfzGeXzyt7PCUULSfZIb1b+KvR7vKjA/T4ey1zyXeTGR+rfmhST7RLevwlkwZUi7/ptv/8AZpQP+4PD26plI/7Y38eDaYfy18JZaeRPOpFgbt9LQI93kyAfq8PYqB3u8qQj9O+YgWip408ygeASC9pJXCqOMnJZO2ihrFqJB9WLGPosv/s8GSAHnkxLDMXEEQP3zbW2EYl/QbcqR+7typH7u3Kkfu7cqR+7typH7u3Kkfu7cqR+7typH7u3Kkfu7cqR+7typH7u3Kkfu7cqR+7typH7u3Kkfu7cqR+7typH7u3Kkfu7cqR+7typH7u3Kkfu7cqR+7typH7u3Kkfu7cqR+7typH7u3Kkfu7cqR+7typH7u3Kkfu7EXf/AFSP3dpHZgvVK5ATm7W20r7LbSvsttK+y20r7LbSvstNTNTNE1csedlN9+Kfm25XHu7crj3duVx7u3K493blce7tyuPd25XHu7crj3duVx7u3K493blce7tyuPd25XHu7crj3duVx7u3K493blce7tyuPd25XHu7crj3duVx7u3K493blce7tyuPd25XHu7crj3duVx7u3K493blce7tyuPd25XHu7crj3duVx7u3K493blce7tyuPd25XHu7crj3duVx7u3K493blce7tyuPd25XHu7crj3duVx7u3K493blce7tyuPd25XHu7crj3duVx7u3K493blce7tyuPd25XHu7crj3duVx7u3K493blce7tyuPd25XHu7crj3duVx7u3K493blce7tyuPd25XHu7crj3duVx7u3K493blce7tyuPd25XHu7crj3duVx7u3K493blce7tyuPd25XHu7crj3duVx7u3K493blce7tyuPd25XHu7crj3duVx7u3K493blce7tyuPd25XHu7crj3duVx7u3K493blce7tyuPd25XHu7crj3duVx7u3K493blce7tyuPd25XHu7crj3duVx7u3K493blce7tyuPd25XHu7crj3duVx7u3K493blce7tyuPd25XHu7crj3duVx7u3K493blce7tyuPd25XHu7crj3duVx7u3K493aGmWmES1qyZmY334o+dbaV9ltpX2W2lfZbaV9ltpX2WjkVmUVK5QDfd2tgLv8A6pH7u3Kkfu7cqR+7typH7u3Kkfu7cqR+7typH7u3Kkfu7cqR+7typH7u3Kkfu7cqR+7typH7u3Kkfu7cqR+7typH7u3Kkfu7cqR+7typH7u3Kkfu7cqR+7typH7u3Kkfu7cqR+7typH7u3Kkfu7cqR+7typH7u3Kkfu7cqR+7typH7u2tcIxN+gW0lBBKB98Wb/3mDJCBzx49n7WKasWnkP1ZcU+iz5VkicMp4iMndiC8zVtQsSngGMcp4Blsl6iZR1LSX+W4x2HEnPZ8gTB1OHmA4ZZcY38KhbMbya2tklHMGNw5vGipvHUVbJEOcKbjz2TIUwjThJiOCWLFN/Cwaz3AzMOqqS/y0GOBxpz2cZJqKoWVRwHFOQ8By9zkExRu2NNORojjF7OeIcdjegwrhBFlqWGtIsqJ9bGPFZzeZqydpCOBQcijgFw8a6EETUc7Rk8DAZGHAbxYXIcK4ORYqlRreLIj/VxTx2ABljRsWaAnRJGbmQ8Y4u46VDJNUTyBI40GdmY5ALLfHJh6qjvhQ5juEZ7fymyagc9qg3yVFVKXY8AvzDUBcB426c3x1FLKUYcBuzjWDeDZro48PU0d0LnN/HjHaH6S5NYGe1UgkhngkDxyIczKwyEdwSAijoYrmqayQfJjT8WNwGk2ikxqXA1NIdzAGZpTk3V+E5BoA8b8smNVYGqZDudxztEf8p+EZDpBsgArKGW5amjc/JkT8GF4Og9mrYi1DgtX7QHNLMRlRL9Gdsw0kVJzsbkiTRHGuZEGgD8fHDTHKVN6TJpjkXM6HSD+NqKMNX4LZ+2Azywk5XjJ51zHQT2PCURNDRE3rTKcm7zAfJBzLnYjUCbYQlM1RUTNjM7H8AMwAyAZB448HyianqIWuZGH4g5iDkIyG2DYga+iBuWoUZN3hBzqTnXOpOog9irw0OCMHlss0t2V30iNLwSdOQDKbYSlM080hzk5gBoUC4ADIAAOxX3NNDARAnlStci85s1xaCANWTgajdioD9Y2HbA1CU0Z+qi433rL8qsmmnJ48dyPRYa8FxN+ItyRB0bckQdG3JEHRtyRB0bckQdG3JEHRtyRB0bckQdG3JEHRtyRB0bckQdG3JEHRtyRB0bckQdG3JEHRtyRB0bckQdG3JEHRtyRB0bckQdG3JEHRtyRB0bckQdG3JEHRtyRB0bckQdG3JEHRtyRB0bckQdG3JEHRtyRB0bckQdG3JEHRtyRB0bckQdG3JEHRtyRB0bckQdG3JEHRtyRB0bckQdG3JEHRtyRB0bckQdG3JEHRtyRB0bckQdG3JEHRtyRB0bckQdG3JEHRtyRB0bckQdG3JEHRtyRB0bckQdG3JEHRtyRB0bckQdG3JEHRtyRB0bckQdG3JEHRtyRB0bckQdG3JEHRtyRB0bckQdG3JEHRtyRB0bckQdG3JEHRtyRB0bckQdG3JEHRtyRB0bckQdG3JEHRtyRB0bckQdG3JEHRtyRB0bckQdG3JEHRtyRB0bckQdG3JEHRtyRB0bckQdG3JEHRtyRB0bckQdG3JEHRtyRB0bckQdG3JEHRtyRB0bckQdG3JEHRtyRB0bckQdG3JEHRtyRB0bckQdG3JEHRtyRB0bckQdG3JEHRtyRB0bckQdG3JEHRtyRB0bckQdG3JEHRtyRB0bckQdG3JEHRtyRB0bckQdG3JEHRtyRB0bckQdG3JEHRtyRB0bckQdG3JEHRtyRB0bckQdG3JEHRtyRB0bckQdG3JEHRtyRB0bckQdG3JEHRtyRB0bckQdG3JEHRtyRB0bckQdG3JEHRtyRB0bckQdG3JEHRtyRB0bckQdG3JEHRtyRB0bckQdG3JEHRtyRB0bckQdG3JEHRtyRB0bckQdG3JEHRtyRB0bckQdG3JEHRtyRB0bckQdG3JEHRtyRB0bckQdG3JEHRtyRB0bckQdG3JEHRtyRB0bckQdG3JEHRtyRB0bckQdG3JEHRtyRB0bckQdG3JEHRtyRB0bckQdG3JEHRtyRB0bckQdG3JEHRtyRB0bckQdG3JEHRtyRB0bckQdG3JEHRtyRB0bckQdG3JEHRtyRB0bckQdG3JEHRtyRB0bckQdG3JEHRtyRB0bckQdGx1YLiX8BZvlUc00BHFiOB6LHtQKhKmMfVdcb71lvKwzhqOcjUL8ZCfrC19yzTQEwv5Mq3o3MexYNlE0E0ZzEZwRpUi8EHIQSLUAWHC+Dg2WGW7I66TG1xKnjByjsGC4TK/zpGzLGg0sxuAGs2mbc6OkDXx0lMCcSJeLOTpJJ7DjXSYXr74qVRpxTdfIeBQeG6yXMXrlxaRG+hADcR5ZbmtCuLHDBGERBqCjIB40ZlxZIZ4xIjjUVOQiz3sHoUxqR2+nATcPqFee2NixYXoL5aVtWMbr4zwOBwX9hhbc62kLXR1lMSMeJuPODoIBthSESp86NszRuNDKbwRrG/8AgzMyM0bdZW1oyPJkzqmVV+sdI7BWyCKnpqeMvJIx0AC2SWHAaNjU1Oc43Zh/it9Edb5VoEEcUMSBERRmCqMgHAPGrOhjlhlQOjqc4ZTkI4DbLLNgJ2xaaoOc7gx/wm+iet1YtqKQxVFNURlJI3Ggg9g+E0yojSN1lFWm4JJlzK+RW+qdB33wpD0VEVbr6eC66afgIBCqfnMDoscpJ39W2jJHCg7aSRsyoNJP43C1VGBX4XkTrsueOEHtI/Sc51DxsUsZFDheOPrsmaOYDt4/SucajSNpyxzIe1kjbMyHQR+N434ygi3wWCUVaWbr6iG66GfhJAKsfnKTp3kKNJI7m5VUC8knQALU7mhwTGTkSkjJCtdoLm9z5XBv8JSiKKNcyj5TsfkqovJJzAWrFV8LYUKXPUSfNXSsa/JXnOU+NujVnwThQJe9PJ81tLRse2XnGUWwbKYpY2zMNDqflKwuIIzg7+pcUOFowcj0shAZrtaG5x5PDaZBJG6m9WUi8EHUR+34YO2DYsU3MlMBfO/2SE/6m/kYIiKL2ZibgANJth6FXq2YXmigOVaddRzFzpbJmUeN3AMLPSsouNdAMrU7aznKHQcmZrRsUdGFxVgbiCNB3/wQdcGzYxvZ6a6+B/sgp/0/2/BSMYIpwDeplU3zsOHHJXiQb/4OTBMGxyLetRX3X4+XOsYIPlFdR8b/AMJJimEY41uWmr7r8bJmWQAnyg2sb/4WRnBNQCblEpONA3HjgL9c/swNg6erUH5TqpxF52xRz2rJnqJnOdndizE8ZJ32F6uOjp0Hz3YC88AzngBtgmmWIvdcZpc8kh4WYs3P438LUzRK5F5hlGWOQcKsFPNbBFXJR1CHQ6MQSOA3XjgI31HMlRDIM6OjBlI4iBbDWDoKsgfJdlGOvM2MOa3wnwnFAwBymCEbq/NjCMc+/wDg5D1HQlhkNXMDjMOFY7/+4PHD8JIepK4qMgq4QMVjwtHd/wBs7/4MYTlp1BOUQSjdU5sYyDmtgfBLVci35BJPIR+WJfPv8LQ/HFZeLiZJ+uUHij3Nebxw4IhGGKO4XkPBezAcce6Dn3+F8ErVxrfkMkEgH5ZW81qCaHB6cAihRSPtY2+wxhOmojd82SRVJ5gSbU8axRqMyqouA8w8cNRG0UinMysLiPMbYHwnU0WXVHIyg84AO+whLPg9+ESwuAPtYtqvDtbIDwbs13ou32DeqcINwGOF8U/aK+OPCJpsILwmSFCx+0G31Jh2ikJ4N2UH0E2nqJJSdZZifXvqL4P1DA6i00K/hf44634P07E6yssy/gBvoKmKUHUVYH1WO+qYtwlmopjG7x3g4pI0XgHmtt72297be9tve23vbb3tt72297be9tve23vbb3tt72297be9tve23vbb3tt72297be9tve23vbb3tt72297be9tve23vbb3tt72297be9tve23vbb3tt72297be9tve23vbb3tt72297be9tve23vbb3tt72297be9tve23vbb3tt72297be9tve23vbb3tt72297be9tve23vbb3tt72297be9tve23vbb3tt72297be9tve23vbb3tt72297be9tve23vbb3tt72297be9tve23vbb3tt72297be9tve23vbb3tt72297be9tve23vbb3tt72297be9tve23vbb3tt72297be9tve23vbb3tt72297be9tve23vbb3tt72297be9tve23vbb3tt72297be9tve23vbb3tt72297be9tve23vbb3tt72297be9tve23vbb3tt72297be9tve23vbb3tt72297be9tve23vbb3tt72297be9tve23vbb3tt72297be9tve23vbb3tt72297be9tve23vbb3tt72297be9tve23vbb3tt72297be9tve23vbb3tt72297be9tve23vbb3tt72297be9tve23vbb3tt72297be9tve23vbb3tt72297be9tve23vbb3tt72297be9tve23vbb3tt72297be9tve23vbb3tt72297be9tve1PFuEU1bMZHSO8nFBOi8k8++v8eF/jwvtGxRgdBBuPjvkcIoGkk3C1VVthGgN2Rqecl1u4iWXjU+O+kq1wlXm7ItPAQ7X+UQq8bC2AEd6G8heq4TlenY6CTlUnM2TMxtSSNDPBMhSSNwbirKcoI8dtXIsMFPAheSRybgqqMpJth9EeuIIYUkIypTqdNxysRnbgA/YqYseGKFQsrXZhKp62UDhy6iLNeYnQSxTEfSQqVB4mNgbvHSTdZbjK7iWWYD6KBQpPGwsyYsmGK4BpQDnESjrYgeDKdJP7P/xAA6EQABAgIECQoGAwEBAAAAAAABAgMABAURElEQFBUgITFSYaETIjBAQVBg0eHwMjNxgbHBI1ORQkP/2gAIAQIBAT8A72ShS/hEJk1n4jVCZNA16YDDY7ICEjUMJQk6xBYbPZCpNB1aIVJrHwmuFNqR8Q8Vty63NI1Q3KoRr0wBVq6PXC5ZC9WiHJZbenWPE6G1OGpMNSqUaVaT1F2WQ5pGgw40po1K8SMy5c0nVCUhAqTmk1a4VMtp7YVOj/kQZxfYBGNuRjbkCcX2gQmdH/QhMy2rtgEHSM1SQoVGH5Yo5ydXiKXlrXPXqzVrSgVqMOTh1IEKWpfxHoUrUjSkw3OEaFiEOJcFaTmzEt/0jxBLS9rnq1Zr00E6EQpRWa1dKlRSaxDM2DoczZmX/wC0+HpdnlTWdQzCQkVmH5kuaE6uoszBa0HVCVBYrGZMsWDaTq8ONoLirIhCAhNkYSQkVmH3y6dGrqbLxaO6EqCxWMKkhQqMOtlpVk+G5Vqwm0dZzJl/lDZTq6rLvckajqzJlrlEVjWPDTDfKLAzJp6yLA1nq8o7WLBzJhvk16NR8MyjdlFo9uFaghJUYWorUVHq6VFJrEIWHEhQwzSLaK7vDCU2lBIgAJFQwzjmpA6zJuaSg4SK9EOJsKKfC8om0uu7McXyiyrrLarCgqAa9OGcTUu1f4Xk01IJwzCrLZPU2Jcu6TqgMNjRVDsolQrRoMEEGo5suq02MM4mtAN3heXFTQwzqqkgdSZla+cv/IAq1YZhjlBaTrzZJWgjDMCts+F2xUgDDOnnAdQblluadQhphDWrXnTMva56deZJnnkYXBWkjwunVhm/mdKltS/hEIk1H4jVCGEN6h0MyxVz04ZT5mE6vC41YZv5nQBJOoQGHFdkJk1nXCZJI+IwlhtOoZ7ryWteuMaXbtdl0IWFi0MyYYsG0nVglPmYTq8LjVhm/mQywp36QJRsa4xRuMVaugSzQ7IDDY7ICEjUOiW4lv4jDk2VaEaIJr0nAy8WjuhKgoVjCQCKjD7BaNY1RKfMwnV4XGrDN/MhtIQkJHSkgaTC5ptOrTC5tatA0QSTpObLv8kajqgGvSMLiAtJSYlPmYTq8LjVhfYW4u0noiQNcKmG09sKnEj4RCptxWrRClKV8R6GUdNfJnVmMMLbXWrCdXhcas9yZS0qyRGOi6DOnsTBnF9gEGadPbBecVrMV19LK/NGedXhZlouqq7Ogmvmnqcr80dA80WlVdnhQAk1CGmw0myOgmvmnqcr80dA62HU2TBBBqPhOURaXauzH5qybKIKlKNajmTXzT1OV+aMxKlJ0gwxM2jZXmTaLK7V/hOTFSCcL6+TQSM6a+aepyvzRnML5RAJwzgrQD4TlPl4Zz4B9c6a+aepyvzRnSfwH64Zv5fhOTVWkjC6jlEFMEEGo5s1809TlfmjNAJNQhpHJoCcM4qpIHhOVXYXUe3Melw7pGgwZdxJ1Zk1809TlfmjMTLuK7IZlw1pOk5k0u2uodnhRh3lU7+gmvmnqcr80dA+7ySd/hVtwtqtCG3UuisZ838zqcp8zPcdS0KzDjhcVaPhZKig1phucB0LhK0r+E5s4Klg9Tkxzyc1S0o+Iw5OAaEQpRWa1eGg6saiYYVbbBOGdTWkK6nJpqSVYX1WGyRBdWdZPh6TVWkpwuo5RBT1NpFhAThnFVJCfD8suw59cyZbsLrGo9Rlm7a6zqGZMrtuHd4f1Q0vlEBWF5vlU1QQQaj04BUahDLYaTVhdXyaCqNfiCUdsqsHtzJli3z06+nlmLHPVrzJt20qyOzxEw7yqdOvMmJa1zka4Iq19GBXoEMS1nnL15kw7ySdGvxG24W1WhCFhxNoZjrCXdPbDjK29fQtsrd1aoaYS1p7cxaw2m0YccLirR8SMulo1jVCFhwWk5q5Zte6FSax8JrgsOJ1iLCh2RYUeyAw4rUITJrPxGqESzaN+ataWxaVDzxdNZ1eJpdZS4AO3qMwsqcIPZ4nZ+YnqL3zFeJ2fmJzDNlCykiEzLau2qAQdWaSBrhUy2ntrgTZWsJSMx75ivE7PzE5j3zFfXACRqgPODUYxh2+MYdvgvOHWYJJ14GvmJ+uY98xXiVDDi9QhEltGEMNt6QMx8EOGvoWQS4KsxbDa9JELktkwthxGseHwK9UIlnF9lUIkwPiMIaQj4RnzDPKisa4Iq0Z4FeiJdnkhWdeetpC/iELkwfhMLlnEdkVVeGAkq0AQiUcVr0QiTQPi0wlCUfCOjmmK+enPlWKuer7dGpCV/EIXJoPw6IXKOJ1aYKSnQR4SS2pfwiESaz8RqhEq2nXpgAJ0DoFKSnSowubQnVphU2s6tEMuh1NYzJljkzaTqzZZjlDaVqzHnQ0mswmbWNemETaFa9EJUlXwnoCArQYXKtq1aIXJrHwmuFNqR8Q8GAE6BDcotWlWiESzaOyvoVOIR8Rhc4kfCK4XNOK7aoJJ0nC04WlViEKCxaGEgKFRh5otKq7MLLRdVV2QAEioYVqCBaMOuF1Vo4QSNIhE04ntrhE4k/EKoS4hfwnoVyza+yqHJRSdKdMEEaD4IallOaToENtJbHNHQKfbRrMKndkQuYcXrPQS73JGo6o14XGw4myYWgtqsmEILirIhtsNpsjDqiYe5U1DV0CJhxGowid2hCH216j0DjSXBzhDsspvSNI8CgEmoQzKhPOXrziatcLmW0dtcLnCfhELdWv4j0kq/VzFfbMfZ5VOjXDDIaTp15k0/XzE/fpEOrR8JhE4ofEIRMtq7aoBr1Zz0qFc5GuCCDUfASUlRqEMMBoVnXmuPob1mFziz8OiFLUv4j1CWf5QWVa8+Zf5MWU6+oJWpHwmETix8WmG30OajpzX2A6KxrhSSk1Hvl59uXTacNQh+mzXUyn7nyhVKzR/wCuAjKc1t8B5RlOa2+A8oynNbfAeUZTmtvgPKMpzW3wHlCKWnGzWlfAeUZcn/7OA8oy5P8A9nAeUZcn/wCzgPKMuT/9nAeUGm58ioucB5RlOb2+A8oynNbfAeUZTmtvgPKMpzW3wHlGU5rb4DyjKc1t8B5RlOa2+A8oynNbfAeUZTmtvgPKMpzW3wHlGU5rb4DyjKc1t8B5RlOa2+A8oynNbfAeUZTmtvgPKMpzW3wHlGU5rb4DyjKc1t8B5QKUm0msL4DyjLk//ZwHlGXJ/wDs4DyjLk//AGcB5Rlyf/s4DyjLk/8A2cB5Rlyf/s4Dyg0rNqNZXwHlGU5rb4DyjKc1t8B5RlOa2+A8oynNbfAeUZTmtvgPKMpzW3wHlGU5rb4DyjKc1t8B5RlOa2+A8oynNbfAeUZTmtvgPKMpzW3wHlGU5rb4DyjKc1t8B5RlOa2+A8oynNbfAeUZTmtvgPKMpze3wHlApufAqDnAeUZcn/7OA8oy5P8A9nAeUZcn/wCzgPKMuT/9nAeULpaccNal8B5RlOa2+A8oynNbfAeUZTmtvgPKMpzW3wHlGU5rb4DyhNKzSf8ArgIYps6nk/ceUMvtzCbTZrHeE3NJlG7atfYIffcmF23Dp8DsPuS67bZ0xKTSZtu2nX2ju+kJkzLxI1DQPBNHzJlngTqOg93TbnJMLWLsyVopyZRyhNQjIR2+HrGQjt8PWMhHb4esZCO3w9YyEdvh6xkI7fD1jIR2+HrGQjt8PWMhHb4esZCO3w9YyEdvh6xkI7fD1jIR2+HrGQjt8PWMhHb4esZCO3w9YyEdvh6xkI7fD1jIR2+HrGQjt8PWMhHb4esZCO3w9YyEdvh6xkI7fD1jIR2+HrGQjt8PWMhHb4esZCO3w9YyEdvh6xkI7fD1jIR2+HrGQjt8PWMhHb4esZCO3w9YyEdvh6xkI7fD1jIR2+HrGQjt8PWMhHb4esZCO3w9YyEdvh6xkI7fD1jIR2+HrGQjt8PWMhHb4esZCO3w9YyEdvh6xkI7fD1jIR2+HrGQjt8PWMhHb4esZCO3w9YyEdvh6xkI7fD1jIR2+HrGQjt8PWMhHb4esZCO3w9YyEdvh6xkI7fD1jIR2+HrGQjt8PWMhHb4esZCO3w9YyEdvh6xkI7fD1iaopyWRygNYzJRzlWELN3dtJCuVX77cyXq5FFVw/HgOYq5Fddx/GZRoqlUe+3u2dFqXWNxzJI1y6DuHgOdNmXWdxzJIWZdA3Du18WmlDccyjDalUe+3wHSZqlV++3MYFlpI3Du0isVQRUasNEGuVAuJ8B0uapUi8jCBWaoAqFXdzwsuKG84aFNbBG/9DwHTRqYA3/o4WBadSN47vnRZmFjecNBnmLG8dxrWltJUo1AQ9TdRqZT9zDNNmup1OjdDbiXkhaDWD12nDzEDecMkLUwgbx3fSQqml++zDQZ5yx9P33HTb5FlkfU/rDQr5DhZOo6eu04ecgfX9YaNFqaR77O76XFU0TuGGhD/Mobv33HSLvKzKjdo/zDQrdp4ruH567TZreSN37w0QK5oHce76aFUwDu/Zw0Oapmrce4nnA02pZ7BBJJrOGhmrDFs9p67TBrmargMNCit8nd+x3fTg56DuOGizVNJ+/47iph2xL2bz64QK4l2+RaS3cOu0oa5tX2/Aw0GOes7h3fTg0IP1/WGQNmZQd/WJmablU2nD6w7TT6jzAAP9iXppYNTwrF4hC0uJC0msHPpt206lsdg/OGQa5aYSnfX/mFa0tpK1GoCH6aWTUyKhvhqmX0nngEf5EtNNzSbTZ9OsT5tTKzvw0GOas/T99302P4Unf+sMsbLyDvH56vPUkiV5idKvx9YdeW+q24azhoR0lKmz2af9z5x3ln1L34aEarWpy7Rhpt0pSlsdun/MLTy2FW2zUYkqSRNcxWhX5+nV5k2nlnefzhoQfwqO/9d30wK5au4jCg2VA9VJAFZiepautuX/3y84Jr0nMoVgobU6e3V9s6bd5FhS7hmUU1ycsDfpw00wVtpdHZr++YDVpESNLVVNzH++fnAIIrHVVGtROGhxVLV7z3fSgrlFfb85jZtIB3dTefbl0W3DUInaRcmzZGhN3nmyNEldTj+gXecABIqGdTTtlkN3n8YUJK1BI7YbQG0BA7MJAUKjE9RJRW4xpF3lmyVIuShsnSm7yhl9uYRbbNY6m4bKCd2ZRYqlU/f893z4tSyxuzJQ2mEHcPx1Kcn25QVHSq7ziYmXJldtw5jba3lBCBWYkaMRL1Lc0q4DoKYdtzFm4euGi2uVmU7tPv7509RiJnnt6FcDDjS2VFCxUcyXmXJZdtsxJz7c2KhoVd5dSmzZYWdx/GZICzLIG7u+ZFplY3H8ZlHm1KoO7qM9SwbrbY0m/yhSis2lGs5kpJuTaqkau0xKyjcomygae09ATUKzDznLOKcPacNBtaFOn6Z81KNzabKxpvibk3JRVS9XYcxKig2kmoxI0sHKm39Bv8+o0ibMqs7syWFllA3D8d3rFpJGZRJrlU/f8APTuOIaSVrNQiepRcxWhvQnic2RotT9TjuhPEw22lpISgVDoaQd5KWUft/uZRzXJSyRfp/wB6BxtLqShYrET1FqYrW1pTxGbI0oqX5jmlPEQ24h1IWg1jp6WNUqr7fnMQLKQO8HBZWRvw0Ma5cjef102qJ6cVNuE/8jUMxKVLNlIrMSNFJaqcf0m7sHR047UlLQ+uFlsuuJQO0wAAKh0U9RQdrcY0G7sMKSUGyoVHMkZxUo4D/wAnXANfTUyapcDeP3hbFpYG/vGbFl9Y3n84aDP8Shv/AF0zwKm1Aa6jm0TMMNGysVKPb+t3SUo7ysyrdo9/fDQ7XKTFq4enSUtMMOmygVqHb+t+ayCltIOuodNTh/iSN+GUFp9A3j8940gLM0sb8NBH4x9P309JUcptRdaFaTw9M2RpRUvzHdKeIhtxLqQtBrHQrWG0lR7IWorUVHtw0I1ZaU5efx0TjiWklazUInqUVMcxrQnic2jaOU4oPOipI1b/AE6enT8A+v6w0eLU0gb+8aVFU0r7fjDQZ/kUN3UJ6ig5W4xoN0KSUGyoVHMlZxyUVWjV2iJWbbm01oOm7oKVd5OWIv0Zkm1yLCUbuhmpxuUTWvXdE1OOTaq16rsxKSs2UisxI0SG6nH9Juu6hTh/kSN2GihXNJ+/47xpkVTNd4GGhTVMEbj+uozkg3Nis6FXxMSzksuw4MxtxbSgtBqMSNJomKkOaFcDn027WpLQ7NOGUa5Z9KN/Qz1Jol+Y3pVwEOOLdUVrNZzJeWcmV2GxEnINygrGlV/UaaNcwBuH7w0MK5mvcf13jTg/lSd37w0SappP3/HUnmETCLDgrETtHLlTaGlN/nmyNLFFTb+kX+cJUFC0k1jNpB3lplSvt/mGhWrTpcPYPznqUEi0o1CJ6liuttjQL/LNkqOXNG0dCb/KGWES6LDYqHUqWNc0r7fjDQY/lUd377xp0fAfr+sNHGzNIO/qZAIqMT1E1VuS/wDnl5QRVoOZJz7koatabvKGXkPoDiNRwvuci0py4QTXhodqxL2rz6ZzzyGEFxeoROT7k2atSbvPMAr0CJGia6nJj/PPygAAVDqdIm1NLO/DQQ+M/T99404P40HfhlDZmEHePz1Wdo1E1zk6Ffn6w6ythVhwVHMoNwkLR2aDhpl2xL2No4QKzUIZb5FtLY7BnU44QEI7NJzGmVvqsNisxJUaiV5ytKvx9OqzZtTCzvP5w0GP41nf3jTQrlwd/nhaNlaTvHVpmVbmk2XB6ROSLkodOlN+Gh5YstFxWtX4w007aeDdw/OGjmuVmUi7T/mfTEsXmg4nWn8YZORcmzo0C+JaVblUWWx69WdNpZO/DQoqlyd5/XeNLCuVV9vzmJNpIPVlISsWVCsQ7QrKjWgkcYYolhk2lc479WZNO8s8pd5w0G1WpTp+nQP0Qw8bSead2qGqFZQa1knhCUpQLKRUOrKNQJzKJFUqn7/nvGkRXKr+mZLG0yg7h+OtzrvIy617syi2uSlk79PcEybLKzuP4zKOFmVQN3eM4LUusbjmSJtSyDu63TbtlpLY7T+MKEFxQQO2EJCEhI7O4J82ZZZ3ZkmLMugbh+O8XRabUNxzKLNcqn7/AJ63TKiZizcMNFNcpMg3ae4aUNUqr7fnMaFltI3DvHXChUSMNDmuWquJ63TMqVgPp7NeGiJUsoLq9avx3DTBqlqt4wpFZAjV3lMCy8sbz+cNCGthQ3/odcdoqWdNdVX0hijJdg2gKzv7ips1MpG/9HDLi08gbx+e854WZlY34aDPNWPp3/Th5qB9f1hkRamUDf3nSgqml/b8DDQZ56xuHf8ATh56BuOGixXNI+/47zpgVTJN4GGhDU+obv2O/wCmzW+Bu/Zw0OK5mu4HvOmxU+k7v2cNEGqaAvB7/pc1zRFwGGhBW+o7v2O86cHOQfrhow1TSPfZ3/SZtTS/t+MNBjnLP07gQ2pfwiEyaj8RqgSaBrMYq1dGKtXRirV0Yq1dGKtXRirV0Yq1dGKtXRirV0Yq1dGKtXRirV0Yq1dGKtXRirV0Yq1dExRcrM1cqmureYyBIbHE+cZAkNjifOG6DkmlBaE6RvPnGJtezGJtezGJtezGJtezGJtezGJtezGJtezGJtezGJtezGJtezGJtezGJtezGJtezGJtezGJtezGJtezGJtezGJtezGJtezGJtezGJtezGJtezGJtezGJtezGJtezGJtezGJtezGJtezGJtezGJtezGJtezGJtezGJtezGJtezGJtezGJtezGJtezGJtezGJtezGJtezGJtezGJtezGJtezGJtezGJtezGJtezGJtezGJtezGJtezGJtezGJtezGJtezGJtezGJtezGJtezGJtezGJtezGJtezGJtezGJtezGJtezGJtezDlCSTqitaayd584yBIbHE+cZAkNjifOJei5WVr5JNVe8xirV0Yq1dGKtXRirV0Yq1dGKtXRirV0Yq1dGKtXRirV0Yq1dGKtXRirV0Yq1dGKtXRirV0GTQdRhUmofCa4W2pHxDo221OGpMNyqUaVaTAFXisivXDkqlWlOgw42ps1K6BiXLnOVqhKQgVDxepIUKlQ/LlvnJ1Z0uxyhtK1RqzCQNJhUy2ntgzqOwRjqbox1N0Y6m6MdTdGOpujHU3Rjqbox1N0Y6m6MdTdGOpujHU3Rjqbox1N0Y6m6MdTdGOpujHU3Rjqbox1N0Y6m6MdTdGOpujHU3Rjqbox1N0Y6m6MdTdGOpujHU3Rjqbox1N0Y6m6MdTdGOpujHU3Rjqbox1N0Y6m6MdTdGOpujHU3Rjqbox1N0Y6m6MdTdGOpujHU3Rjqbox1N0Y6m6MdTdGOpujHU3Rjqbox1N0Y6m6MdTdGOpujHU3Rjqbox1N0Y6m6MdTdGOpujHU3Rjqbox1N0Y6m6MdTdGOpujHU3Rjqbox1N0Y6m6MdTdGOpujHU3Rjqbox1N0Y6m6MdTdGOpujHU3Rjqbox1N0Y6m6MdTdGOpujHU3Rjqbox1N0Y6m6MdTdGOpujHU3Rjqbox1N0Y6m6MdTdAnUdohMy2rtgEHSM2YY5M2k6sxlouqq7IACRUMx2bA0Iha1LNaj4pStSDWkw1NhWheYQFCow80WlVdmFhvk0b8JNWkw/MFzmp1eLWJgt81WqAa9IwvtcqirtwSyLbn0zJt7/AMx9/F8o9/5n7Zkyiw4d8SaakFV+FxfJpKoJrNZ8XgkGsQ2vlEBWGcTWgKuhlNlsDDOq0BPjGSVoKcLybTZEAVCrDOGtyrxjJmpyrCRWKswpSdJEWE3RYTdFhN0WE3RYTdFhN0WE3RYTdFhN0WE3RYTdFhN0WE3RYTdFhN0WE3RYTdFhN0WE3RYTdFhN0WE3RYTdFhN0WE3RYTdFhN0WE3RYTdFhN0WE3RYTdFhN0WE3RYTdFhN0WE3RYTdFhN0WE3RYTdFhN0WE3RYTdFhN0WE3RYTdFhN0WE3RYTdFhN0WE3RYTdFhN0WE3RYTdFhN0WE3RYTdFhN0WE3RYTdFhN0WE3RYTdFhN0WE3RYTdFhN0WE3RYTdFhN0WE3RYTdFhN0WE3RYTdFhN0WE3RYTdFhN0WE3RYTdFhN0WE3RYTdFhN0WE3RYTdFhN0WE3RYTdFhN0WE3RYTdFhN0WE3RYTdFhN0WE3RYTdFhN0WE3RYTdFhN0WE3RYTdFhN0WE3RYTdFhN0WE3QEpGoePGHQ4jf43fdDaN8JUUGtMMqKk1nxq6opSSIUorNao//EAEcRAAECAQYHCwoGAgIDAQAAAAECAwAEBRESMVEGEBMgIVSRBxQXQWBhcZKh0uIWIjAyQFCBscHRQmKisuHwUnIVIzRTgkT/2gAIAQMBAT8A97FQTbBeSLILyuKMoo8cVicdJEBxQ44DyhbAfBtgKCrOVanEphTyjZ6VLqkwl1KuU6lBIpMLdKrPYUOlMJWF2cpHHQnQLYJKjSc4NKMBi8xkExkUxkUwWEwWLjBaUIszQSNIht2toPKJx2jQnNCSqyEsf5QEhNnoSkKthTA/DCklNua27xK5QOuUeaM1DJOlUAAaB6UgHQYWzRpTmtOfhPJ5xdQUC3MAp0CG2gnSbfYVthenjggg0HMacrCg8nFKCRSYUSo0nGBToENt1Bz+xrQFiCCDQcYNBpEIVWFPJt5dY0DMabqik2+yuIrCkW5jS6p5NOKqppzGUUmsfZ3kUecMxpVZPJl5VKqMYFY0CAKooHs5FIoMKTVNGNpVCqOTBNApgmnTjYT+L2l9P4sxJrCnku8aE0ZiRVFHtKhWFGYyaU0cl3zpoxtilQ9jccq6BbBcUeOEPEetANOkZrooUcbB86jku6aVnGwNJPsS3uJOY05V0GzNfGkHG2aFDkurSTjYGg+wKdSmFuFec05R5pzHxoxptHJc42fV9KVBNsKfAshTilW+hac/Ccb3q4xbyaZ9X0BIFsFxI44LyeKC+eIQXFHjz0IK7IyKaKIUCk0HMacraDbie9Xk6z6sLcCILyoyyoyy4yq74yir4rE+iSkqshLIGlWNxFcQRRoOMGiG3K402w96vJ1n1YUaxp9LRTCWlGEspFsWZrjdfSLcxJqmmHvV5OtuJSmg+iAJsgNqPFAYPGYDKRbAAFnoXkCitmOOJUmgcoUtFYpjIG+MhzxkEwGkCAhI4vTPerydWsIHoGfV9je9X0CFhY5KE0aYWqsafQM+r7G96voEKqmmAadPJN5VCaMxtqnSqAALMxn1fY3vVzKARphxqjSnMZVSmjkm+fOoxtprKzmfV9je9XOcTVVRjYPnUck3vWxsetnM+r7G96uc/wCtjZ9bkm+NNONCqqqYBpzWfV9je9XNshaqyqcbA008k3U1k5iHSjQbIDqTx5jPq+xvermFxI44W6V6OLMaTVTyUcRUPoGfV9je9X0DaK55KqSFCgwpBQaDns+r7G96uelBWaBCUhIoHJYgEUGFMn8MFJFuawfN9jfPm5oSTZCWT+KAAkUDk1USeKHBVURjYOkj2N86QMbYrKAiokcXJ58aacaDVUD7GtVZRONgaaeT7qaU5jSqyaPYXVVU0ZjSaE8oFpqmjGhVQ0wDTpHpyaNJhaq5pxoTWNHKF5NIpzGnKug+ndcraBmMpoFPKJxFQ5jbtGhXpXHadCcxtFc8o1JChQYUkpNBzEOFEJcSqz0KnEpthbhXmJSVGgQlISKBykWgLEKSUmg5qXVCA+DbAcSeOKwvisL4LiRxwXwLIU6pWalJUaBCEBA5TOAFOn2FsAJFHKdz1T7Cj1Rync9U5gZrAEQWlCCKLc0CmyA0owWQkEnMR6o5TueqcxHqjFbBQk8UZJF0ZNF0BCRxY1+qcxHqjlKXEptMF+4QpxSrcxs0pHoXDQk5iXFJsgP3iA4lVh5QF1IgvniEFalWnPbXUOmz0Li650WZ4WpNhgPnjEB1J5MkgWwXkiyC8o2QVE2+jaco8057rlPmj0YUU2Ql5QtgPJNsAg2ckioJtgvAWQXVGCabfQAE2QGVG2AykWwtBQaMxpytoNua65V0DMQgrNEFlJsgsqFkEEW+gBIsgPKEB8G2AoKs5GWQp4CyFOqV6EJKrBAYJtgNJEUUY1pCxQYIKTQcYNGkQhdcY1rqCCadJxgFRoEISECgY6KYLSTBYIsgpKbR6FLqkwl4G2LeRC3QnQIUsqt9AG1KsEBi8wG0p4vQOIrjRbmJUUmkQlQUKRClBIpMKUVGk5jbdQabfQFtKuKCxcYLak2j0CVlNkIdCtB5Ck0Qt2nQnPDSjAYHHAQlNg9I63T5wzG11DzQ4uuebMabo84+kKEqtEFgcRgtKGe27RoVANPIImjSYccK+jNS2pVkJZAtgJAs9gdbqmkWZ7TdbSbPYCkG2FMg2QptSbc1two6IBp0j3zN01yudXcjJEFR7Bzk2CJt3NUABU4Okm5P3NuwQ1gNMTYoLNPSpX3jyLmLVxtV3o8i5i1cbVd6PIuYtXG1XejyLmLVxtV3o8i5i1cbVd6FYEzCrQZOOsrvR5DYP6uOsrvR5DYP6uOsrvR5DYP6uOsrvR5DYP6uOsrvQMB5gH/5x1ld6PIuYtXG1X3jyLmLVxtV3o8i5i1cbVd6PIuYtXG1XejyLmLVxtV3o8i5i1cbVd6PIuYtXG1XejyLmLVxtV3o8i5i1cbVd6PIuYtXG1XejyLmLVxtV3o8i5i1cbVd6PIuYtXG1XejyLmLVxtV3o8i5i1cbVd6PIuYtXG1XejyLmLVxtV3o8i5i1cbVd6DgVMRFBk42q70eQ2D+rjrK70eQ2D+rjrK70eQ2D+rjrK70eQ2D+rjrK70eQ2D+rjrK70eQ2D+rjrK70DAqYhoEnG1XejyLmLVxtV3o8i5i1cbVd6PIuYtXG1XejyLmLVxtV3o8i5i1cbVd6PIuYtXG1XejyLmLVxtV3o8i5i1cbVd6PIuYtXG1XejyLmLVxtV3o8i5i1cbVd6PIuYtXG1XejyLmLVxtV3o8i5i1cbVd6PIuYtXG1XejyLmLVxtV3o8i5i1cbVd6PIuYtXG1X3g4DzAf8A846yu9HkNg/q46yu9HkNg/q46yu9HkNg/q46yu9HkNg/q46yu9CcCZhToEnHWV3o8i5i1cbVd6PIuYtXG1XejyLmLVxtV3o8i5i1cbVd6PIuYtXG1Xeh3AaYnBQGaOhSvvE5bmqCCqb3SDcr7j7GJxmuVzU9kJWgpPYeg2H4e8MH5ifn6ViTtaEjSpVw+54h9Imya5LNEnEmkqaANpN5PGeQ85zXJZ3k5k8qTSDtBvB4jE/zG/MMrMnd0pOlKrx9xxj6Ue78EpmTM02oQof9i/OV0ni+A0dNN/InC2ZkzzNq0JH/AGI85PSOL4jR00Xe7pgkols6MMKsKhT0DSewZk+YcyOZ3zJUILixbQaAOanTp+HbHCc3qx6/hjhOb1Y9fwxwnN6sev4Y4Tm9WPX8McJzerHr+GOE5vVj1/DHCc3qx6/hjhOb1Y9fwxwnN6sev4Y4Tm9WPX8McJzerHr+GOE5vVj1/DHCc3qx6/hjhOb1Y9fwxwnN6sev4Y4Tm9WPX8McJzerHr+GOE5vVj1/DHCc3qx6/hjhOb1Y9fwxwnN6sev4Y4Tm9WPX8McJzerHr+GOE5vVj1/DHCc3qx6/hjhOb1Y9fwxwnN6sev4Y4Tm9WPX8McJzerHr+GOE5vVj1/DHCc3qx6/hjhOb1Y9fwxwnN6sev4Y4Tm9WPX8McJzerHr+GOE5vVj1/DHCc3qx6/hjhOb1Y9fwxwnN6sev4Y4Tm9WPX8McJzerHr+GOE5vVj1/DHCc3qx6/hjhOb1Y9fwxwnN6sev4Y4Tm9WPX8McJzerHr+GOE5vVj1/DHCc3qx6/hjhOb1Y9fwxwnN6sev4Y4Tm9WPX8McJzerHr+GOE5vVj1/DHCc3qx6/hjhOb1Y9fwxwnN6sev4Y4Tm9WPX8McJzerHr+GOE5vVj1/DHCc3qx6/hjhOb1Y9fwxwnN6sev4Y4Tm9WPX8McJzerHr+GOE5vVj1/DEx4cyOeXxJVoLazZSaQeanRp+GZP8lEinN9hNgUaOgmkdh924HKCZ8k5N5/acydgoS98Ktrq/ceQc0hRnBgJtrp/cMzDFQVPkoIvH7R7twbcyc7yZX509pozMJG8nO8pT+dXaaeQeDbeUneTJ/Ok7DTmYSOZWd5Sr86uw0e7ZscyUtZcuWk7CMzDNvJz5KBzg7Ug8g8C28pPknFxJ2JJzJycystecvUo7SfdqFVFBQ4oQqskKHHj3QG6k9rVelJ7KPpyD3P2689oVclR7KPrjWqqkqPFC1V1FR4/d02uZWRMuXpSdoGPdJbqzo2u9A7FK5B7mzdadHF3IPapOOcnMlInnLkqOwH3fg45lJokyvyJ7BRj3TW6JRJ3L0qGwj7+42GHJU6lllJUpRoAHHE27mpWgLnB2gn8KaNHxP2+MS/c0RUKpC8a1yqNPxFFGwxLJG/IHlSeUpqrTaP78/bdzJumUShy5KRtJ+2PCNzJzRKVfkV2ij3fga5lJjk55iNiiMe6c3S3JnLiobav29x7ms2IVlZxWNI81PNxq+g2490mbULkrcvSPOSap5waaNhs6T7buYt0NSly8pGyt98eGbmTmOUHmA2qA934AOV5kQLlKHbT9ce6W3TNzS7l/NJ+3uPBCRbwmZlBGlQrH/60/KgY90iVhqbm5PxrVT8EjT2ke27mjdE3OrvX8kj748P3KkyLF6kjtp+nu/c3crTUtNyz+1OPdDbrzMVXKSfmPr7im6SGXytqTJ/GoDaYQgNpCE2DHuiS3fE6CTg6G0gfE6T2Ue27nrdSZgq9Sj8h9Me6Q5VmpCL1j9qvd+5k5TJpQ3coHaP4x4bt5SYn+aqf1D3FufSLfU7h42NpJ+J0D5k/DGSEikxOssM4S52VH8SifhTo7PbcCG8nMTHPWP6jj3TXKJNJ271E7APv7v3MXKHJS3zJP7vvjwpbykzSlP5Sdmn6e0TPMksnx/IyVPSTYOk/S0xItzmbWUDfKlLV01R8ANPbE6bm8nW2VzcspVcrSD8bR2xKZM7JHVMPpqqSaCDn7m0iyUhclZGlaqB0J/knZjwqlu8JofdB0kVR0q0fWnHJpM7LHUsMJrKUaAImvc3k6GwucVlSrk6APjaeyJbucza8g72UpCuLTWHxB09sTxMksmN/IypPQRYeg/S0e0YLN5KZpMn8gO3T9ce6c5S5Jkcyj+37e79zRyicHUXop2KH3xzw3lZufRehX7T7Pg1gbKZ7IffpQzfxq/1+9nTEgm+TTYwJPJUBKR/aTeefHulyFDb7MsSNKgQfhRQe2j4DPwfkX/HTYxJ+MJFPSdJ7Tj3S5bUk7MjB9YlR6BoHzOzHuaSFDj70sUNKQEj400/Kj4nHL5vk05sGTypAUk/2kXHnjCXA6UzIS+xStm/jT/t97Oj2eZ28lNzCLkJ/aMe6W5TODSLkfNR+3u/c8cqTzVvQofI/TG+jKNKReCIIo0eyIQpxQQgUk2ARgxgEEVZXOopNoR3vttuhKQkUCzM3R5zblErbkTZpyYJPSqjR8AO3OmGRf8AIzmxJqNBUKegaT2A5mHct35PK0g6GwE7NJ7Sce5vOaJPKnJE4aMoAR0pp0fEHszFJChQqyMJ8AgumVzSKDaUd37bLoWhTaihYoItB9kApNEMIybSUXADHuhuV55q3ISPmfr7vwHcyc+s89YfpOZLG8lKXG7lEbD7HN02SqdnxJ5Imso7ALyeIRg3gjJZiSHV+e9/lxDmTd02nmszCaNJjCfDxEmrSSazSuwr4h/reeezpha1OqK1mknSSePO3N5Dlpe5KiNCE0fFX8A433kydpTy7Egk9A0xKpQqVvrfXaokn4mnGhamlBaDQRpBHEYwYw8RKasknQ0LsC+I/wC1x57OiAadIzMJMEZLPqS6jzHv8uI8yr+m0c9kTjNkqml8yeVpqqGwi8HjHscibyspbbvUBtOZhw5lJ9e5qo/SPd+CrmSnmTK/MBt0fXMn5vJTpKUfnV+4+xYO4Kyuf11h5rQtUfkLz2DjiapokkzMBiSJoHGeMm8n+gcWZLJYxIGTKJSoJSOM/wBt5owmw1fnemTSSlDParpuHNt9BueyLe005cjS4on4DQPkT8ceG8t3lMrtB0roSPjb2A52DOGr80USaV0rZ7U9F45tkSOWMS9kSiTKCkmwj+282ZOszySeWCxK00jiPGDeD/RfGEWC0rmBdZXnNGxQ+RuPYeL2KYW8rOkmR+dP7hmYVOZSeZSr8xGzR9Pd8yuZKcpOu5af3DMwubyc9yhP5qdoB+vsFsYMYCLlVWVzoKqLQiwnpuHNaeaGmm2EBtoAJGgAaAMyfcIpHMLVd80rNiRafsOf5mJ7n+WT69lJSfNFiRYP557fQJSVqCU2mJtkgkEjako/AkDYNPbj3TJdS4xIgbAVH46B8jnzJP8ALJheyknPmm1JsP8APPbExYRSOfmq7BoWLUm0fcc/yzHWkPoLboBSdBB0gxhPgIuS1pXNYKkWlFpHReOa0c8WewYIt5Se5OPzU7AT9MyeXMrOUoXetX7j7vk68m8hdxB7Ytx4dt1J8dN4Sf0gfT08kkb8ueDEmSVKNgH97YwZwKYmmiUyyhb3YnovPPsvzcJsN2ZrpkshoW7xn8Kfuebi47olUqelrqn5QoqUbSfQ4JSLf88MNkaAax/+dPzoGZhfLd/zy8sHQk1R/wDOj50n0EllT0idD8nUUqFhEYM4bszpRJZdQh3iP4VfY83HxXZuE2BLE7UymR0Ie7FdNx59t8SuSPyF4sSlJSoWg/3t9PgG3Xnxo3BR/SR9cdkSheVdUu8k9vvCSOZWTtuXgHaMe6M3UncKvQn5qH09MAVGgWxgzg+zMUkSmj/tUPOPHTd0D+cx55uTtl11QSkWk6AIwnw7cltaSTYSluwqsKui4dp5vR7mcirOvy0iwBI+Ok/Ibcc4ysSCSOylX4Ek7BC1lxRUq0+iwZw7ckdWSzmSpuwKtKem8do54ZeblDYdaUFJOkEaQczCbB9mfZIpNH/akeaeOm7oP8wQUmg+m3OW687qVchXzSPrjlbmSk7jlySdg94zE5lZrk670J/aMe6Y3RLWHL0EbCfv6abloaljK3PVCkk9AIpzcPJonSXID0mUVNJtQLRz/m+Y4hb6TAeRbymZskaV0qPxs7AMe6DLd7TRkQdLigPgNJ+QHx9JgHNE6yFBelKilpViDaef8vzPGLM2cVodljq2/VKlEdBJo9NuZt0y19y5IG0/xjn1zJTXKF3IV+0+8cEnMrMsnV+WjYSPpj3T2/8AxnP9x+30+B2F7MsaRIJaqh0aATYocWn/AC+fTm4TYEszrTKpFQh7jH4VdNx59t8SqSPSJ0sShJSoWg+hkzCpU8hhFqiAOkmiJOymTNJZRYkADoAox7pMty0ubkgOhCaT0q/gDb6KSyR+XOhiTpKlGwCMGcCWZqolUtoW9xD8Kei88+y/NwwwvZkbS5BIlUunQSLEjj0/5fLp9PuYN/8Akuf6D92PC1zJTJKFflo2kD6+8cBHK8xNC4qH6jj3TG6ZGw5cojaP49gwYw7cklWSTmSpFgXaR03jntHPDTzb6A60oFJ0gjSDmT5g9I5+ZqPihQsULR9xzH56YnvB+WTC9k5QKUmxQsP2PN6DAWRb8nltRGhsFR+GgdpGZhBLf+RnN+UcRUaOgaB2D0MyYPyyfnsnJxQkWqNg+55vppiY8HpHMLVSTilRtUbT9hzD55jrzbCC66oBI0knQBGE+Ha5XWkk2EpRYVWE9Fw57TzewbmbdEifcvUBsH848O3KkxOi8pH6gfp7x3OnK8zlNy1DsB+uPdGbrzQlVyx8lD2HB7CmVzAuqnzmjak/MXHsPHE0zxJJ6Yy8kVSOMcYNxH9B4syVyNiXsliUpCkm0H+9sYTYFPzRTKZJStntT03jn235+5nIqrD0sI9YhI+Gk/MbMc/S3/jpsflPGEmjpOgdpHocGcCn52olMspQz2q6Lhz7L4kkjYkDIYkyQlIsA/vbmTtPEkmVjLytVA4hxk3Af0DjjCHCmVz+uqrzWhYkfM3nsHF7Duct1JoUq9Z+SR9Me6K5UmcJvWkdhP0947mblMhebuXTtA+2PDxuvMbpuKT+oD6+xTdOUqmp8SiSKqqGw8xHGIwbwvks+pDLnmPf48R50/a0c9uZbGE+AiJTWlc1iqu0osB6LjzWHmh1pbCy26CFDQQdBGbgpIt4TOw0RpIrHpVp+tGPdIluRkDclB0rVT8E/wAkZ7TS31htoEqOgAaSYwYwERJasrnQVl2hFoHTeeawc8WZmEmF8lmJJZb897/HiHOr7WnmticZylU6vmUStdZR2DmA4h7FgG3UmNo3lR/UR9Me6Y5RIWW7107Afv7x3MHNEpb/AND+7Hhe3lJklA/LTsIP09jQtTagpJoI44wYw9CqsknU6bAvvd7bfCVBQCkmkHMwiwVkk/orHzXRYofI3jtHFE4SB+bJSqSykUKT/aRzHHNcjM4S1qSj8agPhTp7ISkJFAsx7oUt3zO2QB0NpA+J0n5jZnTfIH50lKZLJhSpX9JPMIwdwVkkwIrDznTao/IXDtPHmKUEgqUaAIwmw9CaZJNJ5ivu/fZfC1qWoqUaSfY8EW8nMknH5adpJ+uPdPc0SZv/AHP7feO5m5RLH270g7D/ADjn9vKzVKUfkV8j7Lg1hjKZkIYepWzdxp/1+1nREgnCTTmwJRJVhST/AGg3HmzN02SoSuTyoesayT0Cgj5nHueSLfM6l8jQ2kn4nQOynGpQQkqVYInKVmXyx2VH8aidp0Z25lJUFUolR9YVUjoNJPyGZL5wk02MGUSpYSkf2gXnmjCXDGUz2SwzShm7jV/t9rOn2WYG8lNUmR+RP7Rj3THKZYw3cknaf4947nDlWdlJvQfmk45a3lZM43ekjaPZpnnqWTI/lpKrpBsPSPraIwfwmkk/t/8AWargtSbekXjn20Y90GeG5fLUyVk0pappP5jbsoA6ace5vIsjNy5URpcV2J0fMnHhbLd4TO+4DpIqj/60fKk5+59PDcglqpK8aEu0UH8ws20kdNGPCDCeRzA3/wBhrOGxIt6TcOfZTE7z1K57fy0qVTcBYOgfW0+zSJvJSZtu5IGwY90dytOyU3IHzUfeOATlSfGxeFD9JP0xkUiiHkZNxSLiR7Mw+5JnA6yopULCNBESLdIl7CAiUtpcN/qn40UjYBE6YfTnODZaZAaSbatu02fAA5kxyL/jpuZk3GlIp6TpPaTj3TJbVaYkQNpKj8NA+Z2egmrD6cpvbDTwDqR/lTW28fxBMS3dIl76CiTNpbN/rH4U0DaDD77spcLryipRtJ0k+zMoyjqUXkCAKBRjw9crz44LgkfpB+vvHA9zJz3JzzkbQRmTu3kpwfRctQ/Ufa8HJF/yM6sScjQVAnoGk9gzMOJbv2eXADoRQkfC3tJ9wTO3lZwYRetI/UMzDBzKT3KDzgbAB9PeOD7mSnWTK/On5jMwobyc8ylP5ydun6+17msiystdlZGhCaB0q/gHbjlL6ZKyt9diQSegCmJQ8qUuqeXaoknpJp9wYLt5SeZMn84OzT9MzCBzKzrKVfnV8z7xkDmSlTTlyknYRmYbt5OfX+eqf0j2vc6ZS3NJcFqlmn4AD+9OPDqW7zmZxIOlZCR8dJ7AfcOBDeUn1jmrH9JzJc5lZU45eonaT7xBoNIhpeUbSu8A490JupPRVelJ+Y+nte53PjcnUqbHzRWNKemwj40Cj4490CfG5wlKZHJzSlumk8RUft8yfcO563XnkKuSo/IfXG6vJtqXcCYJpNJ95TS5lZvYXehJ/SMe6U3ROTS70fJR+/tYJBpESDDueJCgNlQWB/kKTtBBPxJicsNZ3nJBaUsISbQkUU/Gknt9xbmrdM5OruR81D7Y52cyU3vruQo/pPvPBhzKTPJlfkA2aPpj3Tm6HZM5eFDYR9/f+5i3S7KXLgkbSftjwncyczSlX5CNuj6+88CXMpMTHNWGxRx7pzdMnk7lxUNoH29/7mTdEnlDl6kjYD98eGzmTmJ/nqjaoe89z5yvMoTcpQ+v1x7pLdaa213LHalXv/c2bqzW4u9Z7Epx7oLlSZSm9SR9fp7z3NXK02OouWe1Kce6A3XmVSrlJPbR9ff+5+3UmRKr1KPbR9Me6U5Vm1pF6x2JV7z3MXKWZS3cUnaD9seGjeUmJ8XAHYoe/wDAtvJzGwLwTtUce6c5QzJm7yo7APv7gKgm2C+OKC+rijLLjKrvjKrvjKrvjKrvjKrvjKrvjKrvjKrvjKrvjKrvjKrvjKrvjKrvjKrvjKrviasIpxmUrMiXVrUU6AbKaLQb44QMIP8A3Dqp+0cIGEH/ALh1U/aJVhtPUtZVJ33QUKFBFVP0Eb6VcNkb6VcNkb6VcNkb6VcNkb6VcNkb6VcNkb6VcNkb6VcNkb6VcNkb6VcNkb6VcNkb6VcNkb6VcNkb6VcNkb6VcNkb6VcNkb6VcNkb6VcNkb6VcNkb6VcNkb6VcNkb6VcNkb6VcNkb6VcNkb6VcNkb6VcNkb6VcNkb6VcNkb6VcNkb6VcNkb6VcNkb6VcNkb6VcNkb6VcNkb6VcNkb6VcNkb6VcNkb6VcNkb6VcNkb6VcNkb6VcNkb6VcNkb6VcNkb6VcNkb6VcNkb6VcNkb6VcNkb6VcNkb6VcNkb6VcNkb6VcNkb6VcNkb6VcNkb6VcNkb6VcNkb6VcNkb6VcNkb6VcNkb6VcNkb6VcNkb6VcNkb6VcNkSXDaepEymTsOgISKAKqfqI4QMIP/cOqn7RwgYQf+4dVP2idcIpxnooMtXWq00aALaKbALoyq74yq74yq74yq74yq74yq74yq74yq74yq74yq74yq74yq74yq74yq74yq74yy4D6uOA+OOAoKs9GpYTbCnibOVqXiLYSoKs9A46E6BbBJJpPK8Eg0iG3QrQbc51yroFubRTAaUYyBvjIG+Mgb4yBvjIG+Mgb4yBvjIG+Mgb4yBvjIG+Mgb4yBvjIG+Mgb4yBvjIG+Mgb4yBvjIG+Mgb4yBvjIG+Mgb4yBvjIG+Mgb4yBvjIG+Mgb4yBvjIG+Mgb4yBvjIG+Mgb4yBvjIG+Mgb4yBvjIG+Mgb4yBvjIG+Mgb4yBvjIG+Mgb4yBvjIG+Mgb4yBvjIG+Mgb4yBvjIG+Mgb4yBvjIG+Mgb4yBvjIG+Mgb4yBvjIG+Mgb4yBvjIG+Mgb4yBvjIG+Mgb4yBvjIG+Mgb4yBvjIG+Mgb4yBvjIG+Mgb4yBvjIG+Mgb4yBvjIG+Mgb4yBvjIG+Mgb4yBvjIG+Mgb4yBvjIG+Mgb4yBvjIG+Mgb4yBvjIG+Mgb4LShBFFua05W0G3MWuoKYJp0nMQzTpVASE2cqSkKthbNGlOYDRpEIXXFONxdY5jbdXSbeVrjdbSLcxtVQ4nVVU5jKPxHle8j8QzGlVkw+aTRjSmsaIs5X2wpNU0Y2DQaIWaVHGwNJPLF8aQcaDQoQdONkebyxeHm4xoOZSRFY3xWN8VjfFY3xWN8VjfFY3xWN8VjfFY3xWN8VjfFY3xWN8VjfFY3xWN8VjfFY3xWN8VjfFY3xWN8VjfFY3xWN8VjfFY3xWN8VjfFY3xWN8VjfFY3xWN8VjfFY3xWN8VjfFY3xWN8VjfFY3xWN8VjfFY3xWN8VjfFY3xWN8VjfFY3xWN8VjfFY3xWN8VjfFY3xWN8VjfFY3xWN8VjfFY3xWN8VjfFY3xWN8VjfFY3xWN8VjfFY3xWN8VjfFY3xWN8VjfFY3xWN8VjfFY3xWN8VjfFY3xWN8VjfFY3xWN8VjfFY3xWN8VjfFY3xWN8VjfFY3xWN8VjfFY3xWN8VjfFY3xWN8VjfFY3xWN8VjfFY3xWN8VjfFY3xSTy8cRVPLdtFYwQDoMLABoHLVABNBgADQI//9k=;imageBorder=none;labelBorderColor=none;imageBackground=none;fixDash=0;dashed=1;dashPattern=1 2;" vertex="1" parent="1">
          <mxGeometry x="694.0300000000001" y="1596.9299999999998" width="74.64" height="66.14" as="geometry" />
        </mxCell>
        <mxCell id="8NOeoENCalmSI0go_x_y-4" value="" style="ellipse;whiteSpace=wrap;html=1;aspect=fixed;fillColor=none;dashed=1;" vertex="1" parent="1">
          <mxGeometry x="680" y="1580" width="102.71" height="102.71" as="geometry" />
        </mxCell>
        <mxCell id="8NOeoENCalmSI0go_x_y-25" style="edgeStyle=orthogonalEdgeStyle;rounded=0;orthogonalLoop=1;jettySize=auto;html=1;strokeWidth=4;dashed=1;" edge="1" parent="1">
          <mxGeometry relative="1" as="geometry">
            <mxPoint x="1140" y="1632.48" as="targetPoint" />
            <mxPoint x="1050" y="1632.4644444444443" as="sourcePoint" />
          </mxGeometry>
        </mxCell>
        <mxCell id="8NOeoENCalmSI0go_x_y-2" value="" style="shape=image;html=1;verticalAlign=top;verticalLabelPosition=bottom;labelBackgroundColor=#ffffff;imageAspect=0;aspect=fixed;image=https://cdn4.iconfinder.com/data/icons/social-media-and-logos-11/32/Logo_Github-128.png" vertex="1" parent="1">
          <mxGeometry x="940" y="1582.71" width="100" height="100" as="geometry" />
        </mxCell>
        <mxCell id="8NOeoENCalmSI0go_x_y-10" value="code push to github" style="text;html=1;strokeColor=none;fillColor=none;align=center;verticalAlign=middle;whiteSpace=wrap;rounded=0;" vertex="1" parent="1">
          <mxGeometry x="800" y="1600" width="113.5" height="26.93" as="geometry" />
        </mxCell>
        <mxCell id="8NOeoENCalmSI0go_x_y-15" value="code pull to local machine" style="text;html=1;strokeColor=none;fillColor=none;align=center;verticalAlign=middle;whiteSpace=wrap;rounded=0;" vertex="1" parent="1">
          <mxGeometry x="1030" y="1596.93" width="120" height="30" as="geometry" />
        </mxCell>
        <mxCell id="8NOeoENCalmSI0go_x_y-18" value="" style="image;aspect=fixed;html=1;points=[];align=center;fontSize=12;image=img/lib/azure2/databases/Azure_Database_MariaDB_Server.svg;" vertex="1" parent="1">
          <mxGeometry x="1310" y="1687.88" width="37.22" height="49.62" as="geometry" />
        </mxCell>
        <mxCell id="8NOeoENCalmSI0go_x_y-20" value="" style="shape=image;verticalLabelPosition=bottom;labelBackgroundColor=default;verticalAlign=top;aspect=fixed;imageAspect=0;image=data:image/png,iVBORw0KGgoAAAANSUhEUgAAAOEAAADhCAMAAAAJbSJIAAABwlBMVEX///8AAADq6uoKCgrS0tLf39+ampqOjo76+vry8vLn5+fi4uJ6enpeXl7v7+/8/PzFxcW7u7uDg4PBwcFZWVkjIyOxsbF0dHRRUVEVFRWkpKTZ2dlDQ0PNzc1KSkocHBzpeCagoKDLITZpaWk3Nzf3mSMvLy89PT2SkpLIIDi5IEizIE4qKioSEhLdUifcUS3OIzPHACHDID29IEOsAEe4IEmvHVD5unX4pUj+9Ov717L2kQD97N70kR3ykS/6v4DzmD34r2H3zK33v5D3ni3uiTXqgz3znlPocxP53MvqgTDtmmrkZyDwq4biYiLqj2fri1DsnHvmfFD43NTfUgzrikjhYjXjbkDkdFHcWkPuqpbcUzbnj37lgWrml5vdZlzWOiTihITWPjjgdmzXSUb11tnqqq3NCBbYUkvbQwvxva/ccnnTLSfvwcXVLw7qpKnRP0/aYm+/AC/ISFzVeInXjJzQhZrFU3DXorS8PF+xQm/guMmhCFXPkKbBkbGeEVy/bI6SKXK5eaGXToqMHG2lQXyvOm+td6N8H3jGn72sXo+TTJB6EHGBAWrFmLeVWpXUw9iqi7vOwNmXhbF1dJewr8LyTq0GAAALPklEQVR4nO2ai1tTVxLA8yK5CZiQAEESYiA8AxhIQrJarNZd6/qgtLvt2qpdpBRod9EVBV1WcastFhDagtv+vz33dWbOI4hYwbrz+z5bcjK598yZOTNz5l6PhyAIgiAIgiAIgiAIgiAIgiAIgiAIgiAIgiAIgiAIgiAIgiAIgiAIgiAIgiAIgiAIgiAIgiD+3wn7EOGaYrEIljvA+b0yoTY/4nh/DbHGXi8S8x470Dm+EgGvhN6K9bJY9IDnuX9C8tQDWrEjstgBT/MVOCpPvVEnlZalfj9eGm6R557SiR2TpUIHPdF9E5Gn7m3VSGUUqeSBz3S/NCpzP6qRalekIgc+0/2iBBpvt6EINSlC/tp5802jS5m8xjyqCZsPYar7I+ZXNayTheKqTOIwJrsvwurkvXFZSAm3Gpk3Fo15lESQ1Mgodt6d2B9OnDn5m036pQhqZi+nC41I9iUDzTtjPWNjp3YROPVO7GWnvkeUisarlCupF4uYxHyNqVCitbn5SCIRjPvEgHymp6fn3dO1p3FmbOw9WcVoINjafOxoc0N/Zi/rWZ8MJbqauxLBgHhrzey9bYJIuE0j0iBfP5DoFiW6G7Ajn+0xVfxjjcmdPDHGvv0THjJSeO3bEvXybyKtzUdMWu0TQBKJDwXRYqkVjYmgoc6PpUBj9Gtikdfbxa8TO9Fzrqfn/fN6BU+ds/T/M4zEQkqIb5BMzNe9k31o6hWFWyDhqancBCfEqFYijW/WqRUxcVc+dq7nxLn3Oy5od+LF0z2m/u++x0d0+8J7XDBjHR/v9EQ1W42roDWQtwldKqGVwEvQXFNB7u/GpdNnz493XNC56cULl5j6yIY+XWwwwW4POeBIUudAvPRERwa0j9DpAkzo70SyIBDRlAyAUxgYHRcujzM+0CnY0XH2BPPSsTP2QOZ4rYsNoYCjX3iEc8o1hvhIO3i2FzUyGvhgHBUHkDGN7K73abGNaIyPX56YmBj/UFHwY6b3Rx91dJw/f+mUZBwVlMaU05yMM0XwZm/Q08r/hqITBI7gqARHJ3T09zc0pqPRSEao5W3PMiYm/sI0nPirouAnbPAyM2NHx99UBbPt7WII4Z2TaE1DuzhuigJNHSpdjvMZtKLvkTDfx6jc6eLtN9z5sUOSUSh8eKVwZeJT6dhyslAoXPlg3FTwwkVzAJ3l2hLpqNngS6FsxathqeXQF2pMB5LCIaLFFoTlPh7FBlUvxBJgv/o9qlhxhkRWrHM1/Owzps2nYsg3rg4PF64x72VB6LI5gNyklW+6MIoQ7goJhWQ244wKZ117CHysnd1Pnhf+3sCuz70YbtSCZw5G9NuGNa4PX/+8MFz4+6Sg4Y2p61PXrhYKTMfz1tzBJ3ErxQcTc7tk4Fvm/uGgNJO1byyYIAa+3SSb0Eyr4C080MCNhAYdrKUTdGNXp65/PjU8fKOI3fSL6empL79kw4XCJx+bAyHhfgAETjcAoISCFMRGysqLYxYpYCRnBfnB18xrEVHYor7BJiF2IGFGrrVv3JxmGs7kirMgNffVzPTXkzenp64P/+Of1tX4z7qEy6EI4OwFfOYTzusw3G59RoErLVikSzKFqTGKHy/o0UQhRQadofmZm5NTM7lc8RaXmi2O5G7OjYwwQ/7rmjUC95eqUPAlx2CoPS0exeW4gCKC+NF2rj73Y5/5CXy8ZfdSP4JqDLf3Ol/MTzIFc8U5VyqcH8kVby+wsemZOct3waP6pCtCp8/xCbTfxMWAcdsNod6ybAomzZoxD3zDmifE4t16NJGAUG24CWyyOHJnkWmzsOgKzo/kRu58kcvnF2a+nrZCbCf/lb+pvg6oD/Cldk9tcI9e8fZw54D02YodKF2Yfsh3oe3S0I3S9miMdCYe7IK52FN1v50r5u4wnZhCMJDL32ZaMr6yXVc6fmlxNARR8TkS8l7JLezYgWJJGpswIAk3eUTqkgm1GWfB49xsMbcwP5LPj8zboSbKFCxOLjCd2f/nPdL61qZLNpX4CEIO4ijQWLEjDFVqE8pN9jRR11vo0aQTuhOyA89qs8xat+/m87mFJevzIvvzziRWEBcUtbHzFAp6YgkB+9MuYaVAg7NMCAnbCsE5K4uumtnl6ORFKxwu5UeWSqUS23bmx7m7pXzOdFS2Mx2r7slJnXwIhYbUTYFYYQdxcK2jssAQKOQU9BDK2+GKuLTQAfl9MX93abFkwqocY6BUuntvke3KHAs3jsReFHTiBxx4pJAAq5SRrukUKbq2odu+Bw/mm9uQd59/6GgwHgCzolKOGfDOUqnMNGMmu1culxfvMTvmc6XbjoC+nyLRKisidlN8kIitbYfqc0dQfcLEczaqh3igwQ9N/c3BTNpeDHB+dJ67xbS7zRQrl+Y84fLAQHm5bDntopsg0b3bGwMqGUadMhex9oD92Wt5j3oaUh6DermjNSrCQgckhZ55y5vBYpbpdq88YP7Xc78yOLC0VLZULLnVA8xG82RIBBSRag+IHXZ0hLTp9nc1Lf6k8mP36ITSR5/wTB9KGlytVpjZKgPMePeM0epg5aGpbbl0l9c4Su1ZG8gBUu0BYcHeSRA5edpSejo8qoBHuj0e2O7dwm2QI+BXUu5XKv9eqlQqA8vL1ero8n/YXwPlEi9xXkZDUEQKNHB0sAINerydUEWwpAnsYTfQaIQsYBv24WQ1OzpYWR4dHBy49WCl+oD9ZWpbAuMrtSfCiDDAIcE0YqBBjU+rWkUVDheUm4v8ZmFFGDbmkJB1UXNLPAOZlmP+WX24srLysFqtDg5WSnDSUAouREOL1+/3ZnudIjsKJYbQtkX70z4cooqGFylyuuAbCQUax/XASUVF0CKJx9hH1er9B+zff79ZeXy/aqo4sIy/1yy4vWQ8NzizgfIuK65FJ/9CDjQtXFBKF3B8RhWNIwwbU9AQX0E8FvuYcz5aWdl+8vQbZkam4ehD4Xt0bMcRso4X8+5sIOi1CxdA+1M+OkHpIwVTOHuBsHsflO3RhAL6n1t8+/3K8ujT71affPuYOero41nxaxSte7lT+RLqbWBICjSwP6xq0fDrBAUFUcKGFpHbo0FLzo0YE6pnoTnFmN16svx0fXV1lZnw+0e+sGhCcXWbUxmW5JO4puDxDMKh6M4xaTFQ4EGnIeF8B7bRRCWhORlqSoczKemlB+mtFcOztrW2tr7+w8Z3T55tbDx7Ji1AjWcoijaalqANbJA263OTVhAf0Dt1P+aup6thRaS85vtxc2uTabi5sbW++sPqj7KCKKRogO6ipq1rIx+dOrWCaB1xEoBhXifpn7phlPfCwsyI61sbP62vr69taF5QVV5/BNAbWLC0UjtHrhbhMz5jJbUXRcLgepAuaoCqUofY5ub65vMtxvq2qmBtFdtwVIb7SksIz4gC0mectuAeeIFQFoerxjSP+VpSARBV3nwLb2yubezsbG9vz8pfOfi03ZCEUFIofWt3kvAD288glOL9CrrgUI9642g4Jj/DG+o08G5Q31Nluv3k2d7tBepYSuplebMhqTvLd2u39BCE/8TJAXVBm5R4gWhnf4iNJsU3gCMpR1pMcRHkqX2hjH3HZMiiX6xWLeo92zvMlLtoyMg0oPq/tUk5StUHg+blg0n5OoFgv3Xj5G/73oovE08m4/G9vkC0s7MXqXAmHk/GG9Mvlnzj2H6+rbw28nbxv5ixcdhzeK0EfmF+etiTeK38zP49f5vd1DShJ/o2u+nP1n93XtdLiIePZULmpr+fd+BfFqciMF7UDiUIgiAIgiAIgiAIgiAIgiAIgiAIgiAIgiAIgiAIgiAIgiAIgiAIgiAIgiAIgiAIgiAIgiAIgtiFXwHuB0LNZKKQvwAAAABJRU5ErkJggg==;" vertex="1" parent="1">
          <mxGeometry x="1165.68" y="1690" width="56.78" height="56.78" as="geometry" />
        </mxCell>
        <mxCell id="8NOeoENCalmSI0go_x_y-16" value="" style="dashed=0;outlineConnect=0;html=1;align=center;labelPosition=center;verticalLabelPosition=bottom;verticalAlign=top;shape=mxgraph.weblogos.java" vertex="1" parent="1">
          <mxGeometry x="1234.06" y="1645.13" width="60" height="101.65" as="geometry" />
        </mxCell>
        <mxCell id="8NOeoENCalmSI0go_x_y-24" value="" style="shape=image;verticalLabelPosition=bottom;labelBackgroundColor=default;verticalAlign=top;aspect=fixed;imageAspect=0;image=data:image/png,iVBORw0KGgoAAAANSUhEUgAAAgAAAAIACAYAAAD0eNT6AAAABHNCSVQICAgIfAhkiAAAAAlwSFlzAAALQAAAC0ABGxbo1gAAABl0RVh0U29mdHdhcmUAd3d3Lmlua3NjYXBlLm9yZ5vuPBoAACAASURBVHic7d15kBznfd7x5+2ea3d2F9jFsSDAAwRAHIRIkABIkRRJiZQti5YsxXIkxXEsW7ZpqSzRVxQrKTllOrEtV8JEFduJXaQiVyWSqIgpMZRoS5YpirdFEgRBEDwAELwJLLD37szO2f3mDwASAGJ39urumXm/nypViTs9/T7Ynd1+pqfnNxIAAAAAAAAAAAAAAAAAAAAAAAAAAAAAAAAAAAAAAAAAAAAAAAAAAAAAAAAAAAAAAAAAAAAAAAAAAAAAAAAAAAAAAK3KLObOfu13/mCTb72LTWg3Wc+sNKHy1lPvYq4BAIALTKhR66loQnvMema/AvPcHf/9iwcWbf8LufNHb701s3Sk/AFZfdRKNxhp1WIFAwAAb3PEGvNDL9Rdo8uzf3/XrbdW57ujeRWAT3/6cyuDdOr3rfQbRlo238UBAMC8DcnqjroxX/rbv/zi4FzvPKcC8Muf+1w+W03/obH2dyR1zHUxAACw6Kas1Ze8au7Pbr/91qnZ3mnWBeDmz37+Z2TM7ZLOn1c8AAAQpVcl3XzHX/75fbPZuGEBuPXWW1NvDZf/RNIfzGZ7AACQmNBafXH86KE/uuuuu4KZNpzxgH7LLbdkK+r8upX5yOLmAwAAUbHSd7pTlY9/6UtfKk23zbQF4Ld+69auml/+rqRrI0kHAAAiY60equTqP/u/b7uteLbbvbN98Td/8zfTVb98lzj4AwDQkozR9dmKf88tt9ySPdvtZy0ANtf710Z6f7TRAABAlIzMeys2/xdnu80/8ws3//bn/4Ws+dPoYwEAgMgZ7dhx1XUv7378kb2nf/kUn/69L6wJ6sELkrpjDQcAAKI0Edhwy1f+6j8dPvmF014CCILgS+LgDwBAu+nxjXfbqV/48RmAm3/789fImkfjzwQAAOJgPHPV7f/ti49Lp54BsOYPE0sEAAAiF4b2Cyf/v5GkT93y7y4OZfeJSX8AALQza6y5+Pa/+uKLniSFJvwVcfAHAKDdGRn9snT8JQAja/5lwoEAAEAMrOwvSZK5+TOf3yrP7Es6EAAAiEloNnnGMzcknQMAAMTHeOF7PWvsZUkHAQAAMbLmMk/WbE46BwAAiE8obfYkXZB0EAAAEB9jtNYTo38BAHCM7UlJ6opyia7uridWLV8+Od/7D4+Ol44cOWIXMxMAAM0snc0s8z3vmuhWMN0pneUjgRfTFZdvq77n+mveO9/73/N3333sqaeejPCbAABAc+nr63tkaW9flEv4XuNtAABAu6EAAADgIAoAAAAOogAAAOAgCgAAAA6iAAAA4CAKAAAADqIAAADgIAoAAAAOogAAAOAgCgAAAA6iAAAA4CAKAAAADqIAAADgIAoAAAAOogAAAOAgCgAAAA6iAAAA4KDIC4BnDCUDAIAmk4p6gVXnrF4/MDiirs4OdeU7ol5u1s7plT7zQWnnBinlJ51GGhyX/n6X9PUHpSBMOg0AoN1FXgAkKQxCTUwWZa1Vd1dnHEvOaHWf9DefkTqzSSf5iRVLpF95r7S2X/qP30g6DQCg3cV6er5QLKkeBHEueVaf+UBzHfxP9e53SJetSzoFAKDdxVoArLWqVmtxLvk2npF2bEg0QkM71iedAADQ7py8QM9r8n81l00CAKIW66HGGCmTSce55NuEVnr21UQjNLTnUNIJAADtLtYCkM93KuUnf8n97f8gVetJpzi7x/dLT1EAAAARi6UApHxfS3ry6mmCdwBI0v43pX/9ZWnfa5K1Sac5rlCWvvmI9Md3Nk8mAED7ivxtgEfeOvzSxg0X9Ee9zly98Kb0u3dI2bSUieXNkDMrlDnwAwDiE/mhz5rmPqxVasf/BwCAS7jeHAAAB1EAAABwEAUAAAAHUQAAAHAQBQAAAAdRAAAAcBAFAAAAB1EAAABwEAUAAAAHUQAAAHAQBQAAAAdRAAAAcBAFAAAAB1EAAABwUOQfB9zX13fO5GRRnfkO+V5r9Y3zl2/V+SsuUWe2O+koDRXL43rl6NM6PHpwTvdbt/IynbfyHcqmOiJKhjhNVcb16rFn9Obw/qSjAGhykReAXK6ja7JYUnGqrL7eHmUy6aiXXARGP3XpJ3XR6iuTDjInl669UXtfvV+PvvjNhtv6fkrv23az1q7cFkMyxOmSC27Uc68/pIdfuFPW2qTjAGhSsT0lD63V6HihJf4gXXLBu1vu4H/SpWtv1PpVOxpud8WGn+Pg38a2nn+9Np7Tmo9hAPGI9Zx8EAQqV2pxLjkvm1ZfnXSEBdm0pnH+Vv83orHZPA4AuCv2F+XDMIh7yTnrzC1NOsKCdDXIb4ynjkzzX9eAhcm3+OMYQLRiLwCpVOSXHSzYRPFY0hEWZKw4MOPt1oaaKA3HlAZJGW3xxzGAaMVaADLplLItcBHg3ld/kHSEBbDa+9oDDbd6tqX/jWjEWqt9r/EzBjC92ApAJp1S79KeuJZbkJeP7dGPDnyrJV6uOFU9rOmBfV/VwOhLDbfd98YD2vvqfZKa/6JMzE0Q1PXwC3fyVkAAM4r8fPz4xPixteev7m+Nt//9xNMvf18HD+/S+csvVjadTzpOQ6VaQa8PPqupysSstrfW6tEX/6+ee+NhrVm2WRk/F3FCxKFcK+j1wX0qVsaTjgKgyUVeAIqFwnirHfxPKpRH9PybjyQdI1JjxaMaKx5NOgYAIGatNZoPAAAsCgoAAAAOogAAAOAgCgAAAA6iAAAA4CAKAAAADqIAAADgIAoAAAAOogAAAOAgCgAAAA6iAAAA4CAKAAAADqIAAADgIAoAAAAOivzjgHO5XGc9CJTy/aiXip8xSnWvlp/rSToJWoENVS8cVVAam/NdvWy3Uj2rZEzkv7JYIGvrqk8MKKxMzvm+fsdSpbr6JZPsczMb1FQbe102qCaaA9GK/K9JX9+yNccGR5XLZtS7pFvGM1EvGYvUkjXq3fGrSi89L+koaCXWqnz4aY3t/qrC2lTDzY2f1pJtH1fn2ndJao/fHTdYTb36mMaf+YZsUGu4tUnntOSSj6rzgmsk0xw/Z1uvaPKF76hw8L6koyAisdXMcqWq0fG5N+Jm5GW7tPza3+Xgj7kzRrk129V71adm9Ye+55KPqnPtteLg32qMOte+Sz2XfmxWW/du/8TxktckB39JMqmsei755+o4/8qkoyAisZ5nKleqqtbqcS4Zia6NN8nLdicdAy0su2KTsss3zrhNqrtf+QuviykRopBfe61S3atm3Ca7/CLl1myPKdHcLbnko4m/JIFoxP5TrdUanw5rdpm+C5KOgDaQ7j1/5tuXnt9UzwgxD8Yo0zvz34vU0ub+e+Jlu5Xq7E06BiIQewHwvNZvkmGtnHQEtIGwWprxdsvjrC2EtQY/53qT/5ytVVirJJ0CEYj1aOx5RtlsOs4lI1E+vCfpCGhxNqyrcvS5GbepDh1UWC3GlAhRCGtTqgwdmHGbytF9skHzvjRaHT6osFpIOgYiEFsBMMZoSXeXvDZ4LWnqtcdUGdiXdAy0Kms1sfcuBaXRGTcL62WNPf012TCIKRgWlQ00vvurDc/kBKUxTTz7TcnamILNXlgpaGz315OOgYhE/jbAWq1a7uzoU76zU+l0m8wCsKGG/+mvlb/wOuXO3SG/o5drtNHQyfeHFw/9UJXB/bO6T/mt3RqaGlbXRT+tdM8aGb/1z6C1OxvUVJt4S4WD96k2+uqs7lN8+SHVJgbUteHGppj3ENZLqg69pMKBf5jX3Aq0hsgfZYODg29s3XJRc1/lMh82UPHlB1R8+YGkk6DN1UZf0+gTX046BiJWHTqgkQYvFwCLqfXPxwMAgDmjAAAA4CAKAAAADqIAAADgIAoAAAAOogAAAOAgCgAAAA6iAAAA4CAKAAAADqIAAADgIAoAAAAOogAAAOAgCgAAAA6iAAAA4CAKAAAADkpFvcCqVedcODQyrq58h3LZTNTLNQ8jXXRlTut3ZtXRTc+CG6w1Gjta1/MPTunYK/Wk4wCYQeQFwPO8VLVa00i1piU9eeU7O6Jesim862PdWrcjm3QMIHbdyzI6d0tGj945qVf2VJKOA2AasT41HZ+YUhiEcS6ZiDWbMxz84TRjpCs/klc6Z5KOAmAaMZ+btipXa/EumYBzL3bopQ5gGpmcp/4L00nHADCN2F+cttbGvWTsUhme9QASvwtAM4u9AGQykV92kLjhN9r/LAfQiLXS8Jv8LgDNKtYC0NGRUzrV/gXgpSfLmhgKko4BJOqlJ8uaHG7/a36AVhVLATCSujo71LskH8dyiatXpftuH9fAQZ79wD1hIL3wcElP3F1IOgqAGUT+dHxw8NhrF63f2W+MW68FFsdC/eMd4+pc6qm7z5fnu/Xvh5vqlVBjxwLVyu1/rQ/Q6iIvALVarerawf9UU2OhpsY4DQoAaC6MqAMAwEEUAAAAHEQBAADAQRQAAAAcRAEAAMBBFAAAABxEAQAAwEEUAAAAHEQBAADAQRQAAAAcRAEAAMBBFAAAABxEAQAAwEEUAAAAHBT5xwEvWbJk2VSpoo5cVg5/KvBZZWT0zlRaqzxf6YjXGrdWe4Oa3giDOd1vlefpcj+jXn54bW8kDPV0UNNRy8dXAy6IvADk8119Y+OTmpwsatmyJUr5ftRLtoQLPF+/l+3Sai++kzBWHbq3VtZXqyXZWWz/z9I5fTyTky8O/q4IZPW1akn31ipJRwEQsdiOPkEYanRsUtbO5tDT3jIy+v2YD/6SZCT9XDqnG9PZhtu+w0/pFzMdHPwd48volzOdutiP/LkBgITFegSq1eqqVGtxLtmUrkqldU7MB/9TvT/VuAD8fDrHod9RRtKH07mkYwCIWOxHoSDg9cV+k+y1l6tM45dhVnq8VOOy2TxGALS22I9EfoLPfJvFcMIXWQ2r8YWAw3O8WBDtZdjy8wfaXaxH45TvK5eL+nr35vdEUFMhwWsh7q9VG29Tb7wN2tcPZvEYAdDaYisAvu+pr7db4pVlFazVf60UVUqgBDxSr+reWrnhdg/Vq/penSvBXXRvraJHAwoA0O4iv9S3WJwcPXdNf//xOQAc/E/aF9T0O6UJXZ/KqN/zZCIuRiUb6umgrn3B7C/C/EplSo/WqtqRSqsr4esWEL2CDfVkvaaDYT3pKABiEHkBGB+fGOrs4Irisxmzob49i2fjSdof1rW/ygEBANoNT+sAAHAQBQAAAAdRAAAAcBAFAAAAB1EAAABwEAUAAAAHUQAAAHAQBQAAAAdRAAAAcBAFAAAAB1EAAABwEAUAAAAHUQAAAHAQBQAAAAdF/nHA6XQ6ba1kov24+9bl+zL5HhnPTzqJ82ytIlucnN+d0xl5+Z7FDdSGbBjIFiekIJj7nY13/HclFfmfrWTZUGFxQqrzMdyIVuS/SStWrFw7cGxI+c4O9XR3SqIJSJLxfaWvuUnpnTfKZLJJx8EJdmRA5fvvVnBo36y2N7m8sj/1UaW2bJcocbNiqxXVn3lUlQfvkYLZHeTSl16tzPUflsl3R5yuSQR11V7crep9d8mWp5JOgzYVy0sA1kqFYklj44U4lmsJ2Q/9ujLX3MTBv8mYvlXq+IVPK7X+HY03zubU+YnPKbX1Cg7+c2AyWaWvuFEdH/rkrLbPXPtBZW/6V+4c/CXJTym99Up1fPyzMj6PLUQj1msApkoV1TitJf/cDUpt3JZ0DEzHGGXe8/MNN8tcdp1M78oYArUnf+Nl8s5dP+M2Jt+tzFXviylR8/FWXaDUxVckHQNtKvaLAKtVCoB/3sx/9JA8b/kqmc6umbc5d0NMadqXf97M30P/nLWS48+AvQbfI2C+Yi8AhqsBpTBMOgFmo9HPKZzHhWw4XaPvIb8rMnwPEJGYC4BRLpOOd8kmVH/lheMXRqBphYdfaXjxVfDqCzGlaVPWKnhl5u9h8NbLstVKTIGaU+3l55OOgDYVawHo6e6U5zN6IDz2pmq7H0o6BqZTq6p8312NN9v7mILDr8QQqD3Vdj+g8NhbM25jKyVVf/gtZwtzcGifgoPPJB0DbSrytwGGNgwymbS6OjuUy2WiXq5lVH5wl8KRo0pvf7e83uVcRd4EbLWi8I2Dqj70HYXH3mx8hyBQ6Rt/oey7PqDUlh0yPb3Rh2x1YaBwZFC13Q+qtufhWd2ltucRhcUJZa5+v/yVayS/3ecAWIXjw6o/+yNVH/++s+UH0Yv8N2ngyJGXN1904eqo12k51h7/I7j7waSTYCFqVVUeuFuVB+5OOklbCw7uVeng3qRjAG2F8/EAADiIAgAAgIMoAAAAOIgCAACAgygAAAA4iAIAAICDKAAAADiIAgAAgIMoAAAAOIgCAACAgygAAAA4iAIAAICDKAAAADiIAgAAgIMoAAAAOCgV9QLLVyw/d2y8oK58TqlU5Ms1lf51aa3bkVV+KT0Ls1Mcszq0q6xjr9RmfZ90zmjLdR1afm5KXhv8ik2NhTr0VEVHX5799wDA3EX+5yKTznZMlcqaKlXU19utXDYT9ZJNYev1Hdr+wXzSMdCC1u/Mate3i3rx0VLDbbv6fL3vUz3K9/oxJIvPup057f67gp5/qJx0FKBtxfjU1GpsfFI2tPEtmZDec1K67CYO/pgfY6QdH8xr6arG/fyaj3W13cFfOv49uPymLvWe0wanNIAmFeu56TC0KlercS6ZiHXbs/La728yYuT50oWXZWfcpqvPV/+6dEyJ4uf5x3+XAEQj9henwzCMe8nYZfO85o+Fy3aZGW/P5We+vR3wuwREJ/bfrnS6/U/pjQ/Uk46ANjB2JJjx9onBUOHMm7S8sQEuBASiEmsByGbSyqTb95TlSQd3lVUutP+ZDkSnNBHq0FMzXwBXLYc68KPGFwq2qtJkqENPVpKOAbSt2ApANptRb293XMslqjpldd+XJzQ51OZPzxCJicFA9315XLVy4wtmn7q3qBceLkltdm3txGCgH3x5QpVSm/3DgCYS+fn40ZGRw+vWntufSrl1Vdzo4bq+fduYVl6YVr7Pk8dLmWjAhtLkcKDBV+sKZ/lumTCQdn2nqP2PlbTs/LTSmda+LiAMpcIcvwcA5ifyAlAql4quHfxPCkOrgUNV6VDSSdDuJodDTQ5zuhzA7PG8FAAAB1EAAABwEAUAAAAHUQAAAHAQBQAAAAdRAAAAcBAFAAAAB1EAAABwEAUAAAAHUQAAAHAQBQAAAAdRAAAAcBAFAAAAB1EAAABwUOQfB5zP53uq1ZoymXTUS8XO+Cllll0kL92ZdBQnhNWCKsOHpLA+p/t5uSXK9l0oGTc/lrrdBLWiakMvyc7xceDnepTuWyfT4HFgbaDqyCsKy+MLiQk0vcgLwJIlS/uHRsaVSafUt7RHnt8eJx0yyzZo6c5PKpVflnQUpwRTwxp94iuqjhxqvLEx6tn68+q66L0c/NtMUBrV6K6vqDp4cFbbd238aXVv+bCMP7s/eTYMVHzpPk089/8kaxcSFWhasR2Nq7W6RsYm4louUn5Hn5Zd81kO/gnwO5ep712fkd/R23Db/IXXq2vj+zj4tyG/o1d9V39Gfufyhtt2XnCNet7xC7M++EuS8Xx1bfwZ5ddeu5CYQFOL9el4tVZXpVqLc8lIdG16v0w6l3QMZ3npTuXXvXvmjYyv7os/FE8gJMJL5dS14T0NtjLq2frhea/RvfXDkmmPs5bAmWJ/ZNfrc3vdrhmle1YnHcF5qSVrZrzdzy2Rl8nHlAZJSfXM/Djwsnl5uSXz3r+X6ZLfMf/7A80s9gLgea1/OjasFZOO4LywMjnz7fUpyYYxpUFSwmphxtttvTzni0ZP30EgWy3N//5AE4u1AHiep2y29d8NUHpjV9IRnFd+c+afga2VVR7YF1MaJKX0xpMz3m6DusqH98x7/+WBfQrr5XnfH2hmsRUAY4x6l3bLMyauJSNTemuXpl77p6RjOKv40n0qH32+4Xbje+5UMDUUQyIkYerlh1Q+srfhduN7v6l64dic918vDml8z53ziQa0hMjfBliulgur8iv6851Z+X7rn/6XJFmrsd3/S+WBZ9W5ZrsMrzXHIqwUVHrj8Vk/sw9Kozr2gz9Vft27lVm2QaYNXn7C8dP+pTd2qXzkmVltH5QnNHT/n6lz3fXKLN/Y8HFgw0DVoYMqvvKgbI1n/2hfkReAkaHhI5devGl91OvEzlqV39qt8lu7k06CGdhaSYX930s6BhIW1ssqHPi+dOD7SUcBmgbvbwEAwEEUAAAAHEQBAADAQRQAAAAcRAEAAMBBFAAAABxEAQAAwEEUAAAAHEQBAADAQRQAAAAcRAEAAMBBFAAAABxEAQAAwEEUAAAAHEQBAADAQamoF1i9es1Fx4ZG1ZXvUGdHLurlFk1ndoneedGHdP7KS9WZ6U46TuLqQVUDY4f05MF7NTB2KOk4AIAFirwASFK9HmhsvKAwsOrq6ohjyQVJp3L6yFX/Rt0dy5OO0jRSfkbnLtui1b0b9d3d/0OvDz2XdCQAwALE+hLARGFKQRDEueS8XLnhQxz8p+F5vq7b+osyxiQdBQCwADFfA2BVqdTiXXIeLlhxSdIRmlpPx3It6exPOgYAYAHivwiwBZ44eh7XRjbieX7SEQAACxD7kS6bTse95JwdGX0p6QhNrVwtaKwwkHQMAMACxFoA8vmc/FTzP3Pc9dLfqVorJR2jaf3TgW8ptM1/LQcAYHqxFADfM+rpzmtJd1ccyy3Y+NQx3fPEf9EAZwJOUyiP6Ad7/1YvvvlY0lEAAAsU+dsABwaOHtq44YKWu2JsaPJN3f34bcqm88qmmv+ti1ELwrqmquOy1iYdBQCwCCIvAGFYD6NeI0qVWlGVWjHpGAAALCoudwcAwEEUAAAAHEQBAADAQRQAAAAcRAEAAMBBFAAAABxEAQAAwEEUAAAAHEQBAADAQRQAAAAcRAEAAMBBFAAAABxEAQAAwEEUAAAAHBT5xwH3Le3rLxRK6uzMyfNM1MvNyc6LpB3rpc5csjnCUDoyKt3/jDQ0kWwWAIAbIi8Auc6OnolCUZNTJS3r7VYmnY56yYZ8T/r8L0g3bks6yek+cYP0J/9H+tH+pJMAANpdbC8B2DDUyNikrI1rxel97LrmO/hLUi4jfeFjUl930kkAAO0u1msAwiBUpVqNc8mz+sjVSSeYXkdWuuGSpFMAANpd7BcBBkEY95KnSflSb1eiERpauTTpBACAdhd7AUil/LiXPE09kAbHE43Q0JGRpBMAANpdrAUglUo1xUWA9zyedILpTZSOvxsAAIAoxVYA0qmU+nq7ZZrgnYDffFj63lNJp3i78aL0R189XgIAAIhS5G8DnJwcHzr/3HP6s9m0TDMc/SWFVrrtbunbj0vbN0hdHcnmCULpyLD00HPSVCXZLAAAN8RQAAqjuVwm6mXm5cDh4/8DAMA1jAIGAMBBFAAAABxEAQAAwEEUAAAAHEQBAADAQRQAAAAcRAEAAMBBFAAAABxEAQAAwEEUAAAAHEQBAADAQRQAAAAcRAEAAMBBFAAAABxEAQAAwEEUAAAAHEQBAADAQRQAAAAclIp6gbcGjqT3Hzj0xnzvXyhM1fL5rmcXMxMAAM0sk8vZqNcwN9/ybyNfBAAANBdeAgAAwEEUAAAAHEQBAADAQRQAAAAcRAEAAMBBFAAAABxEAQAAwEEUAAAAHEQBAADAQRQAAAAcRAEAAMBBFAAAABxEAQAAwEEUAAAAHEQBAADAQRQAAAAcRAEAAMBBFAAAABxEAQAAwEEUAAAAHEQBAADAQRQAAAAcRAEAAMBB5pnnD76edAgAABAvc/josE06BAAAiBcvAQAA4CAKAAAADqIAAADgIAoAAAAOogAAAOAgCgAAAA6iAAAA4CAKAAAADqIAAADgIAoAAAAOogAAAOAgCgAAAA6iAAAA4CAKAAAADkolHQBAfIw0Xq0HzwdBUA2CQJLk+75SvpdNpVIXS+pJNiGAuFAAAAeEVnsmJgv1UqmyzVp79dm2McZUc7nMU0u68inP97bFnRFAvMzho8M26RAAomIGR8cmXy2Vy1fM5V4dudwTvUu710l2eVTJACSLAgC0KRvaFweHRrvrYbhmPvf3U/5bK/uWFIznbVrsbACSx0WAQBuyVm8cHRpZOd+DvyQF9WDNscHxlbJ6dRGjAWgSFACg/RSGRkarYWj7FrqjwAa9Q8OjdWttcTGCAWgeFACgzUyVKrtqtWD9Yu2vWg82lCu1JxZrfwCaAwUAaC9HxycKc7rgbzbGxiaulHRssfcLIDkUAKCNlCvVF621+cXer5Xy1WrthcXeL4DkUACANlKcKvdGt+/Skqj2DSB+FACgfYTVam1LVDsvl2tbJPG2YaBNUACAtmFGrLXpqPZuZbPW2pGo9g8gXhQAoG2E41GvYIzGol4DQDwoAEDbMF0xrNEd/RoA4kABANrHcmMURLVzY0xd0rKo9g8gXhQAoH346XTqYFQ7T6dSByX5Ue0fQLwoAEAb6cp3DkS2766Oo1HtG0D8PEmlpEMAWBy5TGbtiVP1i8oYU89lMhcu9n4BJKbkWWspAEC7MFrbnc8/tti77e7KPyajCxZ7vwCSYgqekeFtPUAb6erKbfI9M7hY+0t53rGufG7zYu0PQDMIJ7zAhkNJxwCwqPpXrOgbMDKVhe7IGFNdvmzpEUkrFyEXgCYRBHbIq9VqvAQAtBnPmEtWruzd4xkV5r8PFVYuX7LH871ti5kNQPLq9aDklUq1jqSDAFh8vue9s79/2eF02j801/umU/6hlSuXHfH91JVRZAOQrHK5kk9VqpXNUlddUirpQAAWl5HZuGJZb71SrT80Nja5PgiDNTNt76f8t/qWdh9Kp1LXiL8JQLuqTVUqm1NhaHvCMNzted72pBMBiEQqm0ld37+y19pQL1TqtaO1ajUVhDYnSb5nyulMpp5NpfuNp82SZiwJAFpbEIbP2NDuTElSsVgqdXfnk84EIFrGeNqSy6S3GofRigAACaRJREFU5DKRfWgggCZXKJSr0olJgIWp8uV8zCcAAO3NWjs8VSpdLp0oANbazkq5ujfZWAAAIEqlau1Za22HdMpnAYxNFrZba4eTiwUAAKJjBifGJnae/K8fF4AwtD2TxakXkgkFAACiNFGYOhBadZ3879M+DbBQKL0rDMKn448FAACiEgbh7kKheM2pXzvz44DN4PDouZL42E8AANqCGRwaGV8jyZz61TMLgILQrhgZnRiQ7ILniAMAgESVh0fHj9SDoP/MGzxJbzvQlyvVbWPjxWckLfrnigMAgFgE4xOTeyqV6qVnua3sSSqe7V5TpfKVYxOTT0kqRxoPAAAsturYROGJ4lTlqmluL3iSRqe799RU5Z2jo5PPSxqLJB4AAFhsIyOjE89PTZWvnn4TM+rJ2Bk/KaxUqWw/OjgyFVr77GInBAAAi8da+/zg4FixXKleNtN2RvYlz4TmQKMdBkG4+uixkc3FqdIPJU0uWlIAALBg1mpqqlT90ZGjIxtrQf28htvLHvRCoydnt3ObHp8o3jAwOFKsVOsPiWsDAABIWqlaDR4cHBqdHBufuEqys/oYb2P0hNn13KHzVa+/NtcVU553rKs7/3xnLnu+jNbNPTMAAJiP0OrlcrXy+uR4YWsQ2hVzvX/K6lwjSbue2f+8pC3zDZJJpV7q6My+lctmc57n9RujNZL4vFEAABauZq3eCq0dKFfKldJUZU21Vt+wgP09u3PbpktTkmRlvmZk/2S+e6rW6xuqE/UN4yfeUWiMqfnGHLOeKfm+N7WAkAAAOCkIwk6FYWdotdRau1bS2kXZsdXXJSklSakw+FrgeX8syV+UfVubrlu7UqEU1IPF2CUAAFi4utKpr0snRgFffvmWV410V7KZAABAlKzRN3ZuXf+6dOpnAXj2i5LCpEIBAIBIBTb0/vzkf/y4AOy4ZPNeY+wdyWQCAABRslZ/c+VlFz138r9P+zTAetp+QdKx2FMBAIAoHc16lX9/6hdOKwDv3LJl2Mj+ingpAACAdhHKep+49NJLT/vsH+/MrXZs2/w9Wftn8eUCAABRMdJ/2HnZRd8/y9ffzlprntp74A5Jvx55MgAAEAlr9NWdl2z8hDHGnnnb284ASJIxxk6OHP60ZL8efTwAALDorPlaYfjwJ8928JemOQPw4/taa5569sBtsvr9aNIBAIDFZmX/885LN31+uoO/1KAAnPTUngMfscb+T0lLFy0dAABYXEYT1upTV2zb9I1Gm571JYAz7bhs47cC2e2S7l1wOAAAsOiMzLf9INw2m4P/8e3naNfTBz5gfPtH1uqKuccDAACL7HFr9MdXXLrpu3O505wLwEm7n9n/Xiv9hpX9kGQ657sfAAAwV3ZKMvcY2S/v2Lb5/vnsYd4F4KRHXnyxu6Nsfsoa+x5J10pmk6T8QvcLAAB+rCCZ/VL4qIz5YYdfv2/r1q2FhexwwQXgbHbvfnF16PurjMJ8aEw2ijWAuB07OviVIAy5ELaJ+Z43trJ/xa8lnQNYDJ61FSuv6AXBwPbtmw8v9v4jKQBAu/ne957rm6wNDNtp31CDZmCMtLxryYobbtg5lHQWoNnN6l0AgOtMrvBLHPybn7VSzbMfTzoH0AooAMAsBEF4U9IZMDv1ev1nk84AtAIKADALtXr9sqQzYHaCev3ypDMArYACAMxCrRb0J50Bs1PhZwXMCgUAaOD79z/27jAM+F1pEWEYePc98Ph1SecAmh1/1IAGAs/7WNIZMDe1kAsBgUZSSQcAml1XtnN5ti+TdAzMQSrlL086A9DsKABAAx2dufUd4j2ArcRK65POADQ7BgEBM3jssTc6MvmpcUnppLNgTmqqdS/duXP1VNJBgGbFNQDADHJdpSvEwb8VpU16ckfSIYBmRgEAZhAqvDrpDJif0Fh+dsAMKADATEJzVdIRMD9G/OyAmVAAgJkYcRBpVVbXJB0BaGYUAGAajz/z4oWSViWdA/PW//TTL6xNOgTQrCgAwDR84/Eacourez4/Q2AaFABgGibkIrJWZ7gQEJgWBQCYhjWGg0eLs1b8DIFpMAgIOAsGALUNBgIB0+AMAHAWDABqGwwEAqZBAQDOggFA7YOBQMDZUQCAs2EAUNtgIBBwdhQA4GwYANQ+GAgEnBUFADgDA4DaDgOBgLOgAABnYABQ+2EgEPB2FADgDAwAaj8MBALejgIAnIEBQO2HgUDA2zEICDgFA4DaFgOBgDNwBgA4BQOA2hYDgYAzUACAUzAAqH0xEAg4HQUAOBUDgNoWA4GA01EAgFMxAKh9MRAIOA0FADiBAUBtj4FAwCkoAMAJDABqfwwEAn6CAgCcwACg9sdAIOAnKADACQwAan8MBAJ+gkFAgBgA5BAGAgEncAYAEAOAHMJAIOAECgAgBgC5hIFAwHEUAEBiAJBDGAgEHEcBACQGALmEgUCAJAoAwAAg9zAQCBAFAGAAkIMYCARQAAAGADmIgUAABQBgAJCDGAgEMAgIjmMAkLMYCATncQYATmMAkLMYCATnUQDgNAYAuYuBQHAdBQBuYwCQsxgIBNdRAOA2BgC5i4FAcBwFAM5iAJDzGAgEp1EA4CwGAIGBQHAZBQDOYgAQGAgEl1EA4CwGAIGBQHAZg4DgJAYA4QQGAsFZnAGAkxgAhBMYCARnUQDgJAYA4SQGAsFVFAC4iQFAOIGBQHAVBQBuYgAQTmIgEBxFAYBzGACEMzAQCE6iAMA5DADCmRgIBBdRAOAcBgDhTAwEgosoAHAOA4BwJgYCwUUMAoJTGACEaTAQCM7hDACcwgAgTIOBQHAOBQBOYQAQpsNAILiGAgC3MAAI02AgEFxDAYBbGACE6TAQCI7hIkC0lOHh4Z5KzX7WeOYSa+XP5b5hGOYr1drPRpUNrS+bSf+953nFudzHGAVWdq/qmTtWr+4ZiiobsNgoAGgZbx4d3eYpvEfSBUlnAc7iaCDzvvP6+/YmHQSYDV4CQEuw1vqeDb8hDv5oXv2+7J3WWv6uoiXwQEVLOHp0eKeMNiedA2jg4oGBYd5OiJZAAUBLCGT7k84AzEZo7DlJZwBmgwKA1uBrf9IRgNkIPftC0hmA2aAAoCWsWbFivzX23qRzADMxMt8+b+XKg0nnAGaDAoCWUc+kPiHp7qRzANP4x2rW+9WkQwCzxdsA0XIGBoavCjy7U/LySWcBpLDoh2bXqlXLfpR0EgAAAAAAAAAAAAAAAAAAAAAAAAAAAAAAAAAAAAAAAAAAAAAAAAAAAAAAAAAAAAAAAAAAAAAAAAAAAAAAAAAAAAAAADf8fwEIZifGnOYSAAAAAElFTkSuQmCC;" vertex="1" parent="1">
          <mxGeometry x="1225.92" y="1540" width="78.14" height="78.14" as="geometry" />
        </mxCell>
        <mxCell id="8NOeoENCalmSI0go_x_y-26" style="edgeStyle=orthogonalEdgeStyle;rounded=0;orthogonalLoop=1;jettySize=auto;html=1;strokeWidth=4;dashed=1;" edge="1" parent="1">
          <mxGeometry relative="1" as="geometry">
            <mxPoint x="930" y="1632" as="targetPoint" />
            <mxPoint x="800" y="1632" as="sourcePoint" />
          </mxGeometry>
        </mxCell>
        <mxCell id="8NOeoENCalmSI0go_x_y-27" value="&lt;font face=&quot;Comic Sans MS&quot;&gt;Install dependence&lt;/font&gt;" style="text;html=1;strokeColor=none;fillColor=none;align=center;verticalAlign=middle;whiteSpace=wrap;rounded=0;" vertex="1" parent="1">
          <mxGeometry x="1181" y="1492.5" width="158" height="30" as="geometry" />
        </mxCell>
        <mxCell id="8NOeoENCalmSI0go_x_y-29" value="Local Machine" style="text;html=1;strokeColor=none;fillColor=none;align=center;verticalAlign=middle;whiteSpace=wrap;rounded=0;" vertex="1" parent="1">
          <mxGeometry x="1200" y="1618.14" width="120" height="21.86" as="geometry" />
        </mxCell>
        <mxCell id="8NOeoENCalmSI0go_x_y-31" value="" style="image;aspect=fixed;perimeter=ellipsePerimeter;html=1;align=center;shadow=0;dashed=0;fontColor=#4277BB;labelBackgroundColor=default;fontSize=12;spacingTop=3;image=img/lib/ibm/infrastructure/mobile_backend.svg;" vertex="1" parent="1">
          <mxGeometry x="1530.01" y="1468.44" width="68.12" height="68.12" as="geometry" />
        </mxCell>
        <mxCell id="8NOeoENCalmSI0go_x_y-35" value="Users" style="sketch=0;outlineConnect=0;fontColor=#232F3E;gradientColor=none;strokeColor=#232F3E;fillColor=#ffffff;dashed=0;verticalLabelPosition=bottom;verticalAlign=top;align=center;html=1;fontSize=12;fontStyle=0;aspect=fixed;shape=mxgraph.aws4.resourceIcon;resIcon=mxgraph.aws4.users;" vertex="1" parent="1">
          <mxGeometry x="1750" y="1605" width="60" height="60" as="geometry" />
        </mxCell>
        <mxCell id="8NOeoENCalmSI0go_x_y-36" value="" style="image;aspect=fixed;perimeter=ellipsePerimeter;html=1;align=center;shadow=0;dashed=0;spacingTop=3;image=img/lib/active_directory/web_server.svg;" vertex="1" parent="1">
          <mxGeometry x="1542.13" y="1600" width="56" height="70" as="geometry" />
        </mxCell>
        <mxCell id="8NOeoENCalmSI0go_x_y-37" value="" style="sketch=0;shadow=0;dashed=0;html=1;strokeColor=none;fillColor=#505050;labelPosition=center;verticalLabelPosition=bottom;verticalAlign=top;outlineConnect=0;align=center;shape=mxgraph.office.databases.database_server_orange;" vertex="1" parent="1">
          <mxGeometry x="1534.06" y="1737.5000000000002" width="70" height="77" as="geometry" />
        </mxCell>
        <mxCell id="8NOeoENCalmSI0go_x_y-38" value="" style="endArrow=classic;html=1;rounded=0;entryX=-0.036;entryY=0.634;entryDx=0;entryDy=0;entryPerimeter=0;strokeWidth=4;strokeColor=#00ff40;" edge="1" parent="1" target="8NOeoENCalmSI0go_x_y-31">
          <mxGeometry width="50" height="50" relative="1" as="geometry">
            <mxPoint x="1370" y="1640" as="sourcePoint" />
            <mxPoint x="1520" y="1520" as="targetPoint" />
          </mxGeometry>
        </mxCell>
        <mxCell id="8NOeoENCalmSI0go_x_y-40" value="" style="endArrow=classic;html=1;rounded=0;strokeWidth=4;strokeColor=#00ff40;" edge="1" parent="1">
          <mxGeometry width="50" height="50" relative="1" as="geometry">
            <mxPoint x="1370" y="1640" as="sourcePoint" />
            <mxPoint x="1530" y="1640" as="targetPoint" />
          </mxGeometry>
        </mxCell>
        <mxCell id="8NOeoENCalmSI0go_x_y-41" value="" style="endArrow=classic;html=1;rounded=0;strokeWidth=4;strokeColor=#00ff40;" edge="1" parent="1">
          <mxGeometry width="50" height="50" relative="1" as="geometry">
            <mxPoint x="1370" y="1640" as="sourcePoint" />
            <mxPoint x="1530" y="1780" as="targetPoint" />
          </mxGeometry>
        </mxCell>
        <mxCell id="8NOeoENCalmSI0go_x_y-42" value="" style="endArrow=classic;html=1;rounded=0;strokeWidth=4;" edge="1" parent="1">
          <mxGeometry width="50" height="50" relative="1" as="geometry">
            <mxPoint x="1620" y="1640" as="sourcePoint" />
            <mxPoint x="1731.87" y="1640" as="targetPoint" />
          </mxGeometry>
        </mxCell>
        <mxCell id="8NOeoENCalmSI0go_x_y-43" value="Backend" style="text;html=1;strokeColor=none;fillColor=none;align=center;verticalAlign=middle;whiteSpace=wrap;rounded=0;" vertex="1" parent="1">
          <mxGeometry x="1507.3200000000002" y="1536.56" width="113.5" height="26.93" as="geometry" />
        </mxCell>
        <mxCell id="8NOeoENCalmSI0go_x_y-44" value="Frontend" style="text;html=1;strokeColor=none;fillColor=none;align=center;verticalAlign=middle;whiteSpace=wrap;rounded=0;" vertex="1" parent="1">
          <mxGeometry x="1507.3200000000002" y="1670" width="113.5" height="26.93" as="geometry" />
        </mxCell>
        <mxCell id="8NOeoENCalmSI0go_x_y-45" value="Database" style="text;html=1;strokeColor=none;fillColor=none;align=center;verticalAlign=middle;whiteSpace=wrap;rounded=0;" vertex="1" parent="1">
          <mxGeometry x="1513.38" y="1820" width="113.5" height="26.93" as="geometry" />
        </mxCell>
        <mxCell id="8NOeoENCalmSI0go_x_y-46" value="" style="endArrow=classic;startArrow=classic;html=1;rounded=0;strokeWidth=1;strokeColor=#ff8000;entryX=0.5;entryY=1;entryDx=0;entryDy=0;" edge="1" parent="1">
          <mxGeometry width="50" height="50" relative="1" as="geometry">
            <mxPoint x="1563.78" y="1596.93" as="sourcePoint" />
            <mxPoint x="1564.0700000000002" y="1560.42" as="targetPoint" />
          </mxGeometry>
        </mxCell>
        <mxCell id="8NOeoENCalmSI0go_x_y-47" value="" style="endArrow=classic;startArrow=classic;html=1;rounded=0;strokeWidth=1;strokeColor=#ff8000;entryX=0.5;entryY=1;entryDx=0;entryDy=0;" edge="1" parent="1">
          <mxGeometry width="50" height="50" relative="1" as="geometry">
            <mxPoint x="1563.78" y="1730.95" as="sourcePoint" />
            <mxPoint x="1564.0700000000002" y="1694.44" as="targetPoint" />
          </mxGeometry>
        </mxCell>
      </root>
    </mxGraphModel>
  </diagram>
</mxfile>
